<svg version="1.2" xmlns="http://www.w3.org/2000/svg" viewBox="0 0 2000 2000" width="2000" height="2000"><style>.a{fill:#fff}.b{fill:#101b2d}.c{fill:#00c8b4}.d{fill:#00cbba}.e{fill:#00d7cc}.f{fill:#00dbd4}.g{fill:#66e5b3}.h{fill:#8cd7a9}.i{fill:#65e0df}.j{fill:#73e1e0}.k{fill:#98daac}.l{fill:#7fe1e1}.m{fill:#85e1e2}.n{fill:#8de1e2}.o{fill:#a7deaf}.p{fill:#93f0ec}.q{fill:#c0ead4}.r{fill:#bcf4e7}.s{fill:#c2f5e7}.t{fill:#bef7ee}</style><path class="a" d="m0 1000v1000h2000v-2000h-2000z"/><path class="b" d="m444.5 825.1c-3.9 0.5-11.1 2.3-16 4-4.9 1.7-12.5 5.1-16.8 7.7-4.3 2.6-11.3 7.9-15.5 11.8-4.2 3.9-10.3 10.7-13.4 15-3.1 4.3-8.2 12.6-11.2 18.4-3 5.8-11.3 24.9-18.4 42.5-7.2 17.6-13.3 33.6-13.7 35.5-0.4 1.9-0.4 5.2-0.1 7.2 0.3 2.2 2 5.3 3.8 7.4 1.8 2 4.9 4.4 6.8 5.4 1.9 1 40.4 16.6 85.5 34.8 45.1 18.1 83.8 33.3 86 33.7 3 0.5 5.2 0.2 8.5-1.3 2.5-1 5.5-3 6.7-4.3 1.3-1.3 7.7-15.7 14.3-31.9 6.7-16.2 13.8-34.7 16-41 2.1-6.3 4.6-15.3 5.6-20 1.4-6.3 1.8-12.5 1.8-24-0.1-12.7-0.5-16.9-2.3-23.5-1.2-4.4-3.4-10.7-4.8-14-1.5-3.3-4.6-8.9-6.9-12.5-2.3-3.6-7.5-9.9-11.6-14-4-4.1-11.1-10-15.8-13.1-4.7-3.1-11.9-7.4-16-9.4-4.1-2.1-12.9-5.5-19.5-7.7-6.6-2.2-15.1-4.6-19-5.3-3.9-0.8-11.5-1.6-17-1.9-5.5-0.2-13.1 0-17 0.5zm-115 248.8c-2.2 1-4.8 2.7-5.7 3.7-0.9 1-2.4 3.6-3.2 5.6-0.9 2.1-1.6 6.2-1.6 9 0 3.5 0.8 6.8 2.3 9.7 1.2 2.4 3.6 5.2 5.2 6.1 1.6 1 4.6 2.1 6.5 2.5 1.9 0.3 36.4 2.3 76.5 4.5 48.9 2.6 74.2 4.3 76.7 5.2 2 0.7 5.6 2.7 8 4.3 2.8 2 5.2 4.8 6.7 8 1.9 4 2.5 7.4 3.1 16.5 0.4 6.3 1.4 12.8 2.1 14.3 0.8 1.6 3 3.9 4.9 5 2.5 1.5 5.2 2.2 9.2 2.2 4.1 0 6.4-0.5 8.4-2 1.4-1.1 3.6-3.3 4.8-4.8 1.9-2.5 2.1-4.4 2.4-16.5 0.2-9.8-0.1-16-1.3-21.7-0.9-4.4-3.3-11.6-5.4-16-3-6.1-5.4-9.5-10.5-14.3-3.6-3.4-9-7.4-11.9-8.8-2.8-1.5-8.6-3.5-12.7-4.5-4.1-1.1-14.5-2.4-23-2.9-8.5-0.6-42.1-2.4-74.5-4-32.4-1.7-59.9-3-61-3-1.1 0-3.8 0.9-6 1.9z"/><path class="c" d="m1100.5 1059.3c-1.9 2.3-3.4 4.7-3.2 5.2 0.2 0.5 2.3 2.2 4.8 3.8 2.4 1.5 6 3.1 7.9 3.6 2.7 0.7 4.2 0.5 6.8-1 2.4-1.4 3-2.4 2.5-3.6-0.3-1-0.9-2-1.2-2.3-0.4-0.3-1.2-1.7-1.9-3.2-0.8-1.9-2.8-3.5-6-4.8-2.6-1.1-5-2-5.4-2-0.4 0-2.3 1.9-4.3 4.3z"/><path class="d" d="m1107.2 1050.5c-2.9 3.6-4.4 6-3.5 5.4 1.4-0.8 2.9-0.5 6.5 1 3.1 1.4 5.2 3.1 6 4.8 0.7 1.6 1.5 3 1.9 3.3 0.3 0.3 0.9 1.3 1.2 2.3 0.5 1.2-0.1 2.2-2.1 3.4-1.5 0.9-3.9 1.6-5.5 1.5-1.5-0.1-4.2-0.9-6-1.8-1.7-0.9-4.5-2.7-6.2-3.9l-3-2.3c-4.7 5.7-7.1 8.8-8.3 10.6-1.2 1.7-2.2 3.8-2.2 4.5 0 0.6 2.4 3.7 5.3 6.7 2.9 3 6.1 6.6 7 8 1.5 2.2 2.4 2.5 6.5 2.2 2.6-0.2 6.3-0.4 8.3-0.5 1.9-0.1 4.2-0.9 5.1-1.7 0.9-0.8 2.7-3.8 4.1-6.5 1.4-2.8 3.7-8.4 5.1-12.5 1.3-4.1 2.8-9.8 3.2-12.5 0.4-2.8 0.3-6.3 0-8-0.6-2.6-0.9-2.7-1.7-1.3-0.5 1-1.6 1.8-2.4 1.8-0.8 0-4-2.5-7-5.5-3-3-5.9-5.5-6.3-5.5-0.5 0-3.2 2.9-6 6.5z"/><path class="e" d="m1028 921.5c0 0.3 0.5 1.4 1 2.5q1 2 0 3.3c-0.6 0.7-0.7 2.2-0.2 3.7 0.5 1.4 2 2.8 3.3 3.2 1.4 0.4 4.2 3.4 6.6 7 2.3 3.5 7.5 10.4 11.5 15.4 4 5 9.5 11.5 12.2 14.5 3.6 4 4.7 4.7 4.1 2.9-0.7-2-0.6-2.3 0.5-1.5 1.2 0.8 1.3 0.6 0.6-1-0.4-1.1-1.1-2.9-1.4-4-0.2-1.1-1-2.6-1.6-3.4-0.9-1.2-0.7-1.2 1.2-0.3 1.2 0.7 2.4 1.7 2.7 2.2 0.3 0.5 1.8 1.7 3.5 2.5l3 1.5c-6-8.9-9-12.6-10.5-14-1.5-1.4-5-5.4-7.8-9-2.8-3.6-6.2-7.4-7.5-8.5-1.3-1.1-4.7-4.9-7.5-8.4-2.9-3.5-6.4-7-7.9-7.7-1.6-0.8-3.5-1.4-4.3-1.4-0.8 0-1.5 0.2-1.5 0.5zm94.6 116.8c1.2 1.2 2.7 3.2 3.3 4.5 0.6 1.2 1.1 3.5 1.1 5.2q0 3-1.5 3c-0.8 0-2.6-0.7-4-1.5-1.4-0.8-2.5-1-2.5-0.5 0 0.5 1.6 2.1 3.5 3.5 1.9 1.4 4.2 2.3 5 2 0.8-0.3 1.5-1.1 1.5-1.7q0-1.3 1 0.2c0.8 1.2 1 1.2 1-0.5 0-1.1-0.4-3.6-1-5.5-0.5-1.9-2.1-5.1-3.5-7-1.4-1.9-3.4-3.6-4.3-3.7-1.4-0.2-1.4 0.1 0.4 2zm-43.2 48.6l-5.9 9.3c14.5 14.2 19.3 18.6 20.1 19.1 0.8 0.4 4.2 0.1 7.7-0.7 4.8-1.2 6.8-2.2 9-4.8 1.5-1.8 3.8-4.9 5.1-6.8 1.2-1.9 3.4-6.2 4.9-9.5 1.4-3.3 2.1-5.2 1.4-4.2-0.7 1-2 2.8-3 4-1.2 1.4-3.2 2.3-5.5 2.4-2.1 0.1-5.8 0.3-8.4 0.5-4.1 0.3-5 0-6.5-2.2-0.9-1.4-4-5-6.9-8-2.8-3-5.3-6.2-5.6-7-0.2-0.9-2.7 2.2-6.4 7.9z"/><path class="f" d="m1018.9 924.3c-0.6 2.3-1.4 4.9-1.9 5.7-0.6 1.2 0.3 1.6 4.9 2.2 3.1 0.3 7.1 1.3 8.9 2.2 1.7 0.9 4.4 3.1 5.8 4.9 1.4 1.7 2.1 2.3 1.6 1.2-0.6-1.1-2-3-3.1-4.2-1.2-1.3-2.8-2.3-3.6-2.3-0.8 0-2-1.2-2.5-2.7q-1-2.8 0-4c0.7-0.9 0.6-2-0.1-3.5-0.7-1.3-1.7-2.6-2.3-3-0.6-0.4-2.3-0.8-3.8-0.8-2.4 0-2.9 0.6-3.9 4.3zm45.7 39.7c0.6 0.8 1.4 2.4 1.6 3.5 0.3 1.1 1 2.9 1.4 4 0.6 1.5 0.5 1.8-0.4 1.3-0.8-0.6-1.1-0.1-0.9 1.5 0.1 1.3 5.1 7.8 11.4 14.8 6.1 6.8 14.1 15.3 17.8 18.9 3.7 3.6 11.2 11.6 16.6 17.8 5.4 6.1 10.4 11 10.9 10.7 0.5-0.3 2.4 1.6 4 4.3 1.7 2.6 3.3 6.7 3.6 9.2 0.4 2.5 0.4 7.7 0.2 11.5-0.4 4.7-1.8 10.3-4.3 17-2 5.5-5.4 13.4-7.4 17.5-2 4.1-5.4 9.7-7.6 12.3-2.7 3.2-5.2 5.1-7.5 5.7-1.9 0.4-5 1.1-6.7 1.4-3.1 0.6-4-0.1-13.5-9.1-5.6-5.4-10.1-10.1-10-10.5 0.1-0.5 0-0.8-0.3-0.8-0.3 0-3.3 4.4-6.8 9.8-3.5 5.3-9.7 15.5-13.9 22.7-4.2 7.2-9.5 16.4-11.9 20.5-2.3 4.1-5.5 8.7-7 10.3-1.9 1.9-3.8 2.7-6.1 2.7-1.8 0-8.1-2.3-14.3-5.2-6-2.8-12.9-5.9-15.2-6.9l-4.3-1.9c3.6 5 5 7.3 5.4 8.3 0.4 1-0.3 3-1.9 5.2-1.4 1.9-2.5 3.7-2.5 4 0 0.3 3.5 1.2 7.8 2.1 4.4 1 10 1.4 13.2 1.2 3-0.3 7.5-1.4 10-2.5 2.5-1 6.5-3.7 8.9-5.9 2.4-2.1 7.2-8.6 10.6-14.4 3.8-6.2 8.9-13 12.5-16.5l6-6c7.1 3.9 10.2 6.6 11.4 8.5 1.3 1.9 5.4 6.5 9.2 10.3 3.8 3.7 7.5 6.7 8.2 6.7 0.6 0 3.4-2.1 6-4.7 4.4-4.4 5.9-7.2 15.7-30.3 6-14 12.4-29.8 14.4-35 3.2-8.8 3.5-10.4 3.5-21 0.1-10.7-0.1-11.9-2.8-17.5-2.1-4.3-6.2-9.3-14.1-17.5-6.2-6.3-14.7-16.2-19-22-4.3-5.8-9.3-12.3-11.2-14.5-1.8-2.2-3.3-4.3-3.3-4.7 0-0.5-1.3-2.8-3-5.3-1.7-2.5-4.7-5.6-6.7-7-2.1-1.4-4.9-3.3-6.3-4.2-1.8-1.3-2.2-1.4-1.4-0.3zm-225.5 173.2c-0.1 0.2 0.5 2 1.4 4.1 1.2 3 1.4 5.9 0.8 15-0.7 11-0.7 11.3 1.9 14.7 1.4 1.9 4.1 5.1 5.9 7.1 1.9 2 5.7 5.3 8.4 7.4 2.8 2.1 6.7 4.6 8.8 5.6 2 1.1 3.9 1.7 4.2 1.4 0.3-0.3 0-1.3-0.6-2.2-0.9-1.4-0.9-3.3 0-7.8 0.6-3.3 1.1-8 1.1-10.5 0-4.3-0.3-4.8-7.2-11-4-3.6-11.2-10.5-15.9-15.3-4.8-4.9-8.7-8.7-8.8-8.5z"/><path fill-rule="evenodd" class="g" d="m1028.1 468.2c3.9 0.2 6.3 0.9 7.8 2.3 1.2 1.1 2.7 3.6 3.2 5.5 0.8 2.8-0.2 12-4.8 44.2-3.2 22.4-5.7 40.8-5.5 40.8 0.1 0 2.6-2.3 5.5-5.1 2.8-2.8 7.9-6.4 11.2-8 3.3-1.6 9.4-3.7 13.5-4.6 5.5-1.1 10.2-1.4 17.5-1 6.6 0.3 12.7 1.4 18 3 4.4 1.4 10.7 4.4 14 6.5 3.3 2.2 7.2 5.5 8.6 7.3 1.5 1.9 3.8 5.7 5.2 8.4 1.4 2.8 3 7.7 3.7 11 0.7 3.3 1.2 10 1.2 15-0.1 5.5-2.5 25.9-6.1 52-3.4 23.6-6.6 44.7-7.1 46.8-0.6 2.1-2.2 4.6-3.7 5.7-1.8 1.4-4.3 2.1-7 2-2.4 0-5.6-0.7-7.3-1.5-1.7-0.8-3.4-2.4-4-3.5-0.5-1.1-1-4.1-1-6.7 0-2.7 2.7-23.9 6.1-47.3 5-34.7 6-44 5.5-50.5-0.4-5.7-1.3-9.5-3.1-13.2-1.6-3.5-4.1-6.5-7.2-8.8-2.7-2-7-4.3-9.8-5.3-3.6-1.2-8.2-1.7-16.5-1.7-9.6 0-12.4 0.4-17 2.2-3 1.2-8 4.4-11 7.1-3.1 2.8-6.9 7.4-8.7 10.8-1.8 3.2-3.9 8.2-4.7 10.9-0.8 2.8-4 22.8-7.1 44.5-3.5 24.5-6.3 40.8-7.3 43-1.3 2.8-2.7 3.8-6.2 4.9-3.9 1.1-5 1.1-8.7-0.3q-4.3-1.6-5.8-4.6c-0.8-1.6-1.5-4.2-1.5-5.7 0-1.6 6.3-46.9 14-100.8 7.7-53.9 14.2-98.8 14.5-99.8 0.3-0.9 1.7-2.6 3.3-3.8 2.2-1.7 3.8-2 8.3-1.7zm-113.6 71.9c7.8-0.1 14.1 0.5 18 1.5 3.3 0.9 8.3 2.6 11 3.9 2.8 1.3 6.1 3.6 7.5 5 1.8 1.9 2.5 3.8 2.5 6.5 0 2.7-0.7 4.6-2.5 6.4-1.8 1.9-3.5 2.6-6 2.6-1.9 0-4.6-0.6-6-1.3-1.4-0.7-4.7-2.1-7.5-3.1-2.7-0.9-8.4-1.9-12.5-2.3-5.2-0.4-9.8-0.1-15 1-4.1 0.9-10.2 3-13.5 4.6-3.6 1.8-8.1 5.2-11.2 8.5-2.9 3.1-6.6 8.4-8.3 11.8-1.9 4.1-3.4 9.3-4.1 14.8-0.8 6.4-0.8 10.7 0 17.5 0.7 5 1.9 11.7 2.7 15 0.8 3.3 3.2 9.6 5.3 14 2.6 5.4 5.8 10 9.7 14 3.7 3.9 8.1 7.1 11.9 8.9 3.9 1.8 8.7 3.1 14 3.7 6 0.6 9.9 0.4 15.5-0.7 4.1-0.8 10.2-2.8 13.5-4.4 3.3-1.6 8.9-5.4 12.5-8.5 3.6-3 7.4-5.8 8.5-6.1 1.1-0.3 3.3 0 4.9 0.8 1.6 0.7 3.5 2.5 4.2 4 0.8 1.6 1.4 4.3 1.4 6 0 2.8-1.2 4.4-7 10-5.2 5-9.3 7.9-15.7 11-4.9 2.3-11.9 5-15.8 6-3.8 1-10.4 2-14.5 2.4-4.1 0.3-11.1 0.1-15.5-0.5-4.4-0.7-10.7-2.3-14-3.6-3.3-1.4-8.4-4-11.3-5.8-3-1.7-8-5.8-11.3-9-3.2-3.1-7.5-8.3-9.5-11.5-2.1-3.1-5-8.8-6.7-12.7-1.6-3.9-3.8-10.4-4.8-14.5-1-4.1-2.2-11.5-2.7-16.5-0.5-5-0.6-12.8-0.2-17.5 0.4-4.7 1.5-11.2 2.5-14.5 0.9-3.3 3.3-9.1 5.3-13 2.4-4.5 6.2-9.5 10.7-14 4.9-4.9 9.6-8.3 15.5-11.4 4.7-2.4 12.6-5.4 17.5-6.7 6.9-1.8 11.8-2.3 21-2.3zm-145 32.9c0.6 0 2.4 0.4 4 0.9 1.9 0.7 3.7 2.4 6.9 8.5l-7.9 35.6c-4.3 19.5-8 36.6-8.3 38-0.4 2.4 0.8 3.1 24.5 13.9 13.6 6.3 30.8 14.3 38.1 17.8 11.7 5.6 13.4 6.7 14.7 9.8 1.4 3.2 1.3 3.8-0.2 7.2q-1.8 3.7-5.3 5.1c-2.2 0.9-5.4 1.2-8.5 0.9-3.7-0.3-13-4.2-36.2-15.1-17.2-8-31.6-14.6-32-14.6-0.5 0-4.1 15.6-8.2 34.8-4 19.1-8 35.9-8.7 37.4-0.8 1.6-2.9 3.9-4.6 5.3-2.3 1.7-4.6 2.5-7.5 2.5-3.2 0-4.8-0.6-6.3-2.3-1.1-1.2-2.2-3.2-2.5-4.5-0.3-1.2 3.3-20.3 8-42.5 4.7-22.1 8.1-40.5 7.7-40.8-0.4-0.3-15.1-7.3-32.7-15.4-17.6-8.2-33.5-15.9-35.2-17.2-1.8-1.2-3.7-3.4-4.3-4.8-0.8-1.9-0.6-3.4 0.8-6.1 0.9-2 3.1-4.4 4.7-5.2 1.7-0.8 4.8-1.5 7-1.6 3.2-0.1 10.4 2.9 34.3 14.2 16.6 7.8 30.7 14.2 31.2 14.2 0.6 0 1-0.3 1-0.8 0-0.4 2.9-14.7 6.5-31.7 3.6-17 7.4-32.8 8.5-35 1.2-2.3 3.5-4.9 5.7-6.2 2.1-1.3 4.3-2.3 4.8-2.3zm432.6 15.7l13.2 0.6c9.7 0.4 15.6 1.2 22.2 3.1 5 1.4 10.8 3.2 13 4.1 2.2 0.9 7.2 3.3 11 5.2 3.8 1.9 10.1 6.1 13.9 9.2 3.7 3.1 8.3 7.8 10.1 10.6 1.8 2.7 4.1 7.2 5 10 1.1 3.1 1.8 8 1.8 13 0 4.4-0.7 10.9-1.6 14.5-1.1 4-9.9 23.1-23.4 50.4-15.9 32-22.7 44.6-25 46.7-2.1 1.8-4.4 2.9-6.3 2.9-1.7 0-4.3-0.7-6-1.5-1.7-0.8-3.7-2.5-4.5-3.8-0.8-1.2-1.5-3.8-1.5-5.7 0-2.1 1.6-6.9 8-20l-3.7 2.5c-2.1 1.4-6.3 3.4-9.3 4.6-3 1.1-8.9 2.3-13 2.6-4.1 0.3-10.2 0-13.5-0.6-3.3-0.6-9.6-2.9-14-5-5.4-2.6-10.4-6.1-15.4-10.7-5.8-5.5-8.1-8.6-11.2-14.9-2.4-5-4.2-10.4-4.8-14.5-0.5-3.9-0.5-8.9 0.1-12.5 0.5-3.3 2.3-8.9 4.1-12.5 1.8-3.5 5.5-8.7 8.2-11.6 3.5-3.5 6.8-5.8 11-7.3 5.2-2 7.3-2.2 15.5-1.8 6.8 0.4 12.3 1.4 19.5 3.7 5.5 1.8 14.3 5 19.5 7.2 5.2 2.2 14.8 6.7 21.3 9.9 6.4 3.3 12 5.9 12.5 5.9 0.4 0.1 2.4-3.5 4.5-8 2-4.4 4.4-10.8 5.3-14.3 1-3.8 1.3-7.9 1-10.7-0.4-2.5-1.9-6.5-3.6-9-1.6-2.5-4.4-5.7-6.2-7.1-1.8-1.5-6.5-4.2-10.3-6.2-3.8-1.9-10.2-4.4-14-5.5-3.8-1.1-8.6-2.3-10.5-2.7-1.9-0.4-8.4-1-14.3-1.3-10-0.6-11-0.9-12.8-3.2-1.3-1.6-1.9-3.9-1.8-6.1 0.1-2.5 1.1-4.7 3.1-6.9zm-637.5 30.2c2.3 0 4.9 0.7 6.4 1.9 1.3 1 3.1 3.1 3.8 4.7 0.8 1.8 1.1 4.2 0.7 5.9-0.5 2.2-10.7 13.1-76 78.6l53.6 53.4 35.2-35.7c22-22.3 36.3-36.1 38.2-36.8 2.4-0.8 3.6-0.6 6.5 0.9 1.9 1 4.2 3.1 5.2 4.7 1.3 2.2 1.5 3.9 1 6.4-0.6 2.7-7.6 10.4-71.1 74.5l27.2 27.3c14.9 15 27.6 27.3 28.2 27.3 0.5 0 17.8-17.1 38.5-38 36.1-36.7 37.6-38.1 41.2-38.1 2.1 0 4.9 0.8 6.4 1.8 1.4 1 3.2 3 4 4.5 0.8 1.7 1.1 4 0.7 6-0.6 2.6-9.9 12.5-87.8 90.8l-4.5-0.1c-2.5 0-5.5-0.6-6.7-1.2-1.2-0.7-33.1-31.9-71-69.3-37.9-37.5-69.5-69.4-70.2-71-0.9-1.9-1.1-4.3-0.6-7 0.6-3.6 4.3-7.6 37.2-41 20.1-20.3 39.6-40 43.3-43.7 5.9-6 7.2-6.8 10.6-6.8zm805.7 56c3.9 0 5.2 0.6 7.9 3.3 1.9 1.8 3.6 4.6 4 6.2 0.4 2.1 0 4.4-1.6 7.5-1.2 2.4-4.5 6.5-7.4 9-3 2.5-5.3 4.9-5.3 5.3 0 0.4 1.5 0.3 3.3-0.3 1.8-0.5 6.9-1 11.3-1 4.4 0 10.4 0.7 13.5 1.6 3 0.9 7.9 2.9 11 4.5 3 1.5 8 5 11.2 7.6 3.2 2.7 7.8 7.3 10.3 10.3 2.4 3.1 5.5 7.6 6.9 10 1.3 2.5 3.2 7.5 4.1 11q1.7 6.5 1.1 12.5c-0.3 3.3-1.5 8.7-2.8 12-1.2 3.3-4.3 9.2-6.9 13-3.2 4.7-16.2 18.4-39.3 41.3-30.5 30.2-35.1 34.3-38.4 34.8-2.3 0.4-4.9 0.1-6.7-0.7-1.6-0.7-3.9-2.7-5.2-4.4-1.6-2-2.3-4.4-2.4-12l32.9-32.5c18.1-17.8 34.5-34.5 36.5-37 1.9-2.4 4.5-6.7 5.8-9.5 1.5-3.3 2.2-6.9 2.2-11 0-3.8-0.7-7.5-2-10.5-1.1-2.4-4.1-6.9-6.5-10-2.5-3-7.4-7.4-10.9-9.8-3.6-2.3-8.7-4.9-11.4-5.8-2.8-0.8-8.2-1.4-12-1.5-4.6 0-9.1 0.7-13 2.1-3.3 1.1-8.4 3.6-11.3 5.6-2.9 1.9-18.4 16.4-34.5 32.3-16.1 15.9-30.3 29.4-31.5 30-1.2 0.6-3.5 1.1-5 1.1-1.5 0-4-0.8-5.5-1.7-1.5-1-3.6-3.1-4.7-4.8-1.1-1.6-2-4.3-2-6 0-1.6 0.6-3.9 1.2-5.1 0.7-1.2 19.3-19.9 41.3-41.5 22-21.7 43.9-43.1 48.6-47.6 8.3-7.9 8.8-8.3 13.2-8.3zm-506.8 38.1c0.5 0 3.8 5.6 7.2 12.4 3.4 6.9 6.3 12.8 6.3 13 0 0.3-29.6 15.3-131.5 66.3l-110 111.3-21-20.9 39.1-39.8c21.6-21.9 45.5-46.2 53.3-53.9 9-8.9 14-14.7 14-16 0-1.2 1.1-2.5 3.2-3.5 1.7-0.8 5.9-4.3 15.4-13.9l4 4.1 59.5-29.5c32.7-16.2 59.9-29.5 60.5-29.6zm605.7 124c3.2 0 9.2 0.7 13.5 1.5 4.3 0.9 10.5 2.9 13.8 4.4 3.3 1.5 8.7 4.8 12 7.2 3.3 2.4 8.2 7.4 10.9 10.9 2.6 3.5 6.3 9.6 8.1 13.4 1.8 3.9 4.1 10.2 5 14 1.2 5 1.5 9.7 1.2 16-0.3 5-1.2 11.3-2.1 14-0.8 2.8-3.1 7.4-5.1 10.3-1.9 2.9-3.4 5.3-3.3 5.3 0.1 0 4.2-1.8 9-4 4.9-2.3 10.3-4.1 12.3-4.1 2.6 0 4.2 0.8 6.5 3.3 1.7 1.8 3.5 4.9 4 7 0.6 2.4 0.6 4.6 0 6.2-0.6 1.4-2.3 3.5-3.8 4.6-1.5 1.1-7.9 4.4-14.2 7.3-6.4 2.9-32.5 15-58 26.9-25.6 11.8-48.3 22.3-50.5 23.2-2.2 0.9-6.7 2.5-10 3.5-3.3 1-8.4 2.4-11.3 3-2.9 0.6-8.1 1-11.5 1-3.4 0-8.9-0.7-12.2-1.6-3.3-0.8-8.5-2.8-11.5-4.3-3.1-1.6-8-5-10.9-7.7-3-2.7-7.3-7.6-9.7-10.9-2.3-3.3-6.1-9.7-8.3-14.2-2.3-4.5-5.3-11.5-6.6-15.5-1.3-4-3.2-10.6-4.1-14.8-1-4.5-1.8-12.3-1.8-19.5-0.1-7.2 0.3-13.4 1.1-15.7 0.7-2.1 2.3-4.4 3.5-5.3 1.2-0.8 3.9-1.5 6-1.5 2.5 0 4.6 0.8 9.3 4.9v15.3c0 13.7 0.3 16.3 2.8 24.8 1.5 5.3 4.5 13.3 6.7 17.8 2.5 5.3 5.8 10.2 9.2 13.7 2.9 2.9 7.3 6.3 9.8 7.4 2.4 1.1 6.9 2.6 10 3.1 3.9 0.8 7.4 0.8 12.5 0 3.8-0.6 10.1-2.4 14-3.9 3.8-1.6 11.5-5 27-12.4l-6-0.7c-3.3-0.5-8.5-1.7-11.5-2.8-3.1-1.1-8.4-4.1-11.8-6.6-3.4-2.5-7.9-6.7-10-9.3-2.1-2.6-5.2-7.2-6.9-10.3-1.8-3-4.4-9.1-5.9-13.5-1.5-4.7-2.8-11.2-3.1-16-0.4-5.3 0-10.4 1.1-15.5 0.8-4.1 3-10.4 4.7-14 1.7-3.5 5-8.9 7.3-12 2.4-3 6.7-7.5 9.7-10.1 2.9-2.5 8.7-6.7 12.9-9.3 4.1-2.5 11.1-6 15.5-7.7 4.4-1.7 11.8-3.9 16.5-4.9 4.6-1 11-1.8 14.2-1.9zm-532.7 44.1c0.5-0.1-0.2 0.8-1.5 1.8-1.4 1.1-10.4 6.7-20 12.6-9.7 5.9-20.7 12.7-24.5 15.3-3.9 2.5-10.9 8.4-15.6 13.1-4.7 4.8-10.1 11.4-12.2 15-2 3.6-4.7 9.8-6 13.8-1.2 4-2.6 7.3-3 7.3-0.4 0-0.7-0.7-0.7-1.6 0-0.8-1.1-2.1-2.3-3-1.2-0.8-3.3-1.5-4.5-1.5-1.2 0-2.2-0.4-2.2-1 0-0.5-0.7-1-1.5-1-0.9 0-1.8-0.6-2-1.5-0.3-0.8-1.1-1.3-1.8-1-0.7 0.2-2.6-0.9-4.2-2.5-1.7-1.6-3.4-2.7-3.8-2.4-0.4 0.2-2.2-0.4-4-1.4-1.8-1.1-3.6-2.6-4-3.5-0.4-0.9-0.2-2.7 0.4-3.9 0.6-1.2 2.8-4.7 4.8-7.8 2.1-3 5.9-7.9 8.6-10.8 2.7-2.9 7.9-7.5 11.5-10.1 3.5-2.7 7.9-5.5 9.7-6.4 1.8-0.9 3.7-1.7 4.3-1.7 0.5 0 0.7 0.5 0.5 1-0.4 0.7 0.6 0.7 2.7 0 1.8-0.6 6.1-1 9.5-1 3.5 0 6.3-0.4 6.3-1 0-0.5 1.2-1 2.7-1 1.5 0.1 4.6-0.8 6.8-1.8 2.2-1.1 6.7-2.8 10-3.8 4-1.3 6.8-1.7 8.7-1.1 1.7 0.4 2.9 0.3 3.2-0.3 0.3-0.5 0.1-1-0.5-1-0.5 0-1.4-0.1-1.9-0.2-0.5-0.1-1.3-0.6-1.7-1.1-0.5-0.5 1-0.5 3.2-0.1 2.2 0.4 4.7 1.1 5.7 1.6 1.1 0.5 1.8 0.5 1.8-0.2 0-0.5-0.6-1-1.3-1-0.6 0-0.9-0.4-0.5-1q0.8-1 2.3 0c1 0.8 3.4 0.1 8.7-2.4 4-1.8 7.7-3.4 8.3-3.4zm94.9 33.1c5 0.3 9.5 1.2 12.1 2.4 2.2 1.1 7.3 3.9 11.5 6.2 4.1 2.4 8.6 5.3 10 6.5 1.3 1.3 4 3.4 6 4.8 1.9 1.4 8 7.2 13.6 13 5.6 5.7 12.1 12.4 14.3 14.8 2.2 2.5 4 5.2 4.1 6 0 0.9-0.6 2.2-1.3 2.9-1 1.2-1 1.3 0.2 0.5 1.1-0.6 1.3-0.5 0.8 0.4-0.4 0.7-1.4 1-2.2 0.7-0.9-0.2-1.4 0.1-1.3 0.8 0.2 0.8-0.8 1.2-2.7 1-1.7-0.2-3.5-0.9-4-1.7-0.6-0.7-4.9-2.6-9.5-4.1-7.4-2.4-9.4-3.6-14.9-8.9-3.5-3.3-8.7-9-11.5-12.6-2.8-3.5-6.1-7.4-7.5-8.5-1.3-1.1-4.7-4.8-7.5-8.4-3-3.7-6.7-7.1-8.7-8-2-0.8-5-2.8-6.8-4.3-1.7-1.5-3.1-3-3-3.4 0.1-0.3 3.8-0.4 8.3-0.1zm3.1 22.7c0.4 0 2.7 2.9 9.5 12.5l-4.1-4.5c-2.3-2.4-4.6-5.2-5.1-6.2-0.5-1-0.7-1.8-0.3-1.8zm-180.5 44c0.5 0 0.9 0.4 0.9 0.8 0 0.4-0.7 3-1.5 5.7-0.9 2.8-2.1 6.2-2.9 7.5-0.7 1.4-1.8 4.1-2.5 6-0.6 2-1.3 4-1.4 4.5-0.1 0.6-0.7 1.8-1.2 2.7-0.5 0.9-3.1 3.3-5.7 5.3-2.6 1.9-5.1 3.3-5.5 3.1-0.4-0.3-1.6 0.5-4.7 3.9l2.2-2c1.3-1.1 2.3-1.7 2.3-1.5 0 0.3-1.2 1.7-2.7 3-1.5 1.4-2.4 2-2 1.3q0.6-1.2-1.6-1.2c-1.2 0-3.3 0.2-4.5 0.5-1.2 0.2-2 0.8-1.8 1.2 0.3 0.4-1.2 1.6-3.2 2.5-2.1 1-4.1 1.5-4.5 1-0.4-0.4-0.9-5.3-1.2-10.8-0.3-5.5-0.3-9.2 0-8.2 0.2 1 1.4 1.7 2.5 1.7q2 0 1.5-1.5c-0.4-1.1 0.1-1.4 2-1.2 1.3 0.1 2.5 0.6 2.6 1.1 0.1 0.5 0.8 0.3 1.6-0.4q1.6-1.2 1.4-0.1c-0.1 0.7 0.5 0.9 1.6 0.5 1-0.4 5.1-3.6 9.3-7 4.1-3.5 9-7.8 11-9.7 1.9-1.9 4.3-4.6 5.2-6 1-1.5 2.3-2.7 2.8-2.7zm656.5 35.1c4.9 0 12.8 0.6 17.5 1.5 4.6 0.9 11.6 3.1 15.5 4.8 3.8 1.8 9.7 5.1 13 7.3 3.3 2.2 8.1 6.5 10.8 9.4 2.6 3 6.4 8.4 8.4 11.9 2 3.6 4.7 9.9 6.1 14 1.8 5.6 2.5 10.7 2.9 19.5 0.4 10.3 0.2 13.2-1.7 20-1.2 4.4-3.7 10.9-5.6 14.3-1.9 3.4-6 8.8-9.2 11.9-3.2 3.1-8.9 7.3-12.7 9.5-3.9 2.1-11.3 5.2-16.5 6.9-5.3 1.6-12.2 3.2-15.5 3.6-3.3 0.3-7.3 0.3-8.8 0-1.7-0.4-3.3-1.8-4.2-3.7-1.1-2-3.2-19.8-6.7-54.2-2.8-28.2-5.3-51.5-5.6-51.8-0.2-0.2-3.2 0.1-6.6 0.8-3.4 0.7-9.7 3-14.1 5.2-6.4 3-9.4 5.3-14.3 10.7-4 4.3-7 8.7-8.2 11.8-1 2.8-2.4 8-3.1 11.5-0.8 4.1-1 9.6-0.6 14.5 0.3 4.4 1.5 11.3 2.6 15.3 1.1 4 3.2 9.6 4.7 12.5 1.4 2.9 4.2 7.5 6.1 10.2 2 2.8 4.2 6.5 4.9 8.3 0.8 1.8 1.4 3.9 1.4 4.7 0 0.9-1.4 2.9-3 4.5-2.2 2.3-3.8 3.1-6.7 3.1-3.3 0-4.5-0.6-8.4-4.8-2.5-2.6-6.2-7.5-8.2-10.8-2-3.3-5.1-9.8-6.8-14.5-1.7-4.6-3.8-11.7-4.5-15.7-0.8-4-1.4-12.4-1.4-18.8 0-6.4 0.6-14.5 1.5-18.5 0.8-3.8 2.7-9.8 4.3-13.2 1.5-3.4 4.6-8.7 6.8-11.8 2.2-3 6.2-7.4 8.7-9.7 2.6-2.3 7-5.8 9.9-7.7 2.9-1.9 8.9-4.8 13.3-6.4 4.4-1.6 11.8-3.6 16.5-4.5 4.6-0.8 12.5-1.5 17.5-1.6zm-394.6 20.8c1.4 1 3.4 3.6 4.5 5.7 1 2.2 2.5 4.5 3.2 5.2 0.8 0.7 1.8 1.2 2.4 1.2 0.5 0 1 0.5 1 1 0 0.6-0.7 1-1.5 1-0.9 0-3.9-1.5-6.8-3.4-2.9-1.9-5.8-3.5-6.5-3.5-0.7 0-1-0.8-0.7-1.8 0.3-1 0.9-3 1.2-4.5 0.6-2.7 0.6-2.7 3.2-0.9z"/><path class="h" d="m966 866.1c-10.2 5-20.3 9.7-22.5 10.5-2.2 0.8-11 2.6-19.5 3.9-8.5 1.3-20.7 3.5-27 4.9-6.3 1.3-14.9 3.7-19 5.2-4.1 1.4-10.5 4.2-14.3 6-3.7 1.9-6.7 3.6-6.7 3.9 0 0.3 0.9 0 2-0.5 1.1-0.5 2.5-1 3.1-1 0.7 0 0.9 0.5 0.5 1-0.4 0.7 0.5 0.6 2.7 0 1.7-0.6 6-1.1 9.5-1 3.5 0 6.2-0.4 6.2-1 0-0.5 1.2-1 2.8-1 1.5 0 4.5-0.8 6.7-1.9 2.2-1 6.7-2.7 10-3.8 4.1-1.3 6.9-1.6 8.8-1.1 1.6 0.5 2.9 0.4 3.2-0.2 0.3-0.5 0-1-0.5-1-0.5 0-1.4-0.1-1.9-0.3-0.5-0.1-1.3-0.6-1.8-1-0.4-0.5 1-0.6 3.2-0.2 2.2 0.4 4.8 1.2 5.7 1.6 1.1 0.6 1.8 0.5 1.8-0.1 0-0.5-0.5-1-1-1-0.5 0-0.8-0.5-0.5-1q0.5-1 2 0c1.1 0.7 3.6 0.1 9.3-2.5 4.2-1.9 7.8-3.4 8-3.2 0.1 0.1-3.2 2.5-7.5 5.3-4.3 2.8-14.3 9.1-22.3 13.9-8 4.8-17.4 10.9-21 13.5-3.6 2.6-9.4 7.9-13 11.7-3.6 3.8-8.2 9.8-10.2 13.4-2.1 3.5-4.8 9.7-6 13.7-1.3 4-2.6 7.2-3.1 7.2-0.4 0-0.7-0.7-0.7-1.5 0-0.8-1-2.2-2.3-3-1.2-0.8-3.2-1.5-4.5-1.5-1.2 0-2.2-0.5-2.2-1 0-0.5-0.7-1-1.5-1-0.8 0-1.7-0.7-2-1.5-0.3-0.8-1.1-1.3-1.8-1.1-0.6 0.3-2.6-0.8-4.2-2.4-1.6-1.6-3.3-2.7-3.8-2.5-0.4 0.3-1.9-0.2-3.5-1.1-1.5-0.9-3.4-2.5-4.2-3.6-1.4-1.9-1.6-1.6-4.3 4.4-1.6 3.5-3.8 9.7-4.9 13.8-1.6 6.1-2.1 11.4-2.5 28.5-0.3 14.8-0.1 20.6 0.6 19.5 0.9-1.3 1.1-1.3 1.1 0.2 0 1.1 0.8 1.8 2 1.8q2 0 1.5-1.5c-0.4-1.1 0.2-1.4 2-1.3 1.4 0.2 2.5 0.8 2.5 1.3-0.1 0.5 0.6 0.3 1.5-0.5 1.1-1.1 1.6-1.1 1.5-0.3 0 0.8 0.6 1 1.7 0.6 1-0.4 5.2-3.5 9.3-7 4.1-3.4 9.2-8 11.2-10 2.1-2.1 5-5.2 6.5-6.8 2.5-2.8 2.7-3.9 3.4-14.5 0.5-8.4 1.4-13.5 3.3-19 1.4-4.1 4.2-9.9 6.1-12.8 1.9-2.8 5.4-7.3 7.7-9.8 2.4-2.6 7-6.8 10.3-9.4 3.3-2.6 16.4-10.9 29-18.5 12.6-7.6 28.2-16.7 34.5-20.3 6.3-3.6 18-9.8 26-13.9 8-4 13.8-7.3 13-7.3-0.8 0-9.8 4.1-20 9.1zm44.5 16.2c-1.6 0.7-4.9 3.1-7.3 5.3-3 2.7-3.9 4.1-3 4.6 0.9 0.4 0.6 0.8-1 1.2-1.2 0.3-2.2 1.1-2.2 1.6 0 0.5-0.8 1.9-1.8 3-0.9 1.1-2.2 2-2.7 2-0.5 0-2.5 1.6-4.3 3.5-1.7 1.9-4.7 3.9-6.5 4.3-2.6 0.7-1.1 1 7.8 1.7l11 0.8c6.6-4.5 8.5-6.1 8.5-6.6 0-0.4 1.7-2.2 3.7-4 2-1.7 4-3.1 4.5-3 0.4 0.2 0.6 0 0.4-0.5-0.3-0.4 0.1-2.3 0.7-4.3 0.7-2 2.1-4.6 3.2-5.8q2-2.1 1-3.1c-0.5-0.6-2.8-1.3-5-1.5-2.3-0.3-5.3 0.1-7 0.8zm26 28.2c-4.4 0.7-9.8 1.4-12 1.4-2.2 0-3.6 0.4-3.1 0.8 0.4 0.4 4.8 1.1 9.7 1.5 5.1 0.5 10.5 1.6 12.6 2.6 2.1 1 7.2 3.7 11.3 6.1 4.1 2.3 8.6 5.3 10 6.5 1.4 1.2 4.1 3.4 6 4.8 1.9 1.5 4.8 3.9 6.5 5.5 1.7 1.6 7.3 7.4 12.5 12.9 5.2 5.5 11 11.7 12.7 13.7 1.8 2 4.2 3.7 5.3 3.7 1.1 0 2-0.5 2-1 0-0.5-1.5-4-3.3-7.8-1.8-3.7-5-9.4-7.2-12.7-2.1-3.3-8-10.1-12.9-15.1-5-5-11.6-10.9-14.6-13.1-3-2.2-8.2-5.4-11.5-7.1-3.3-1.6-8.3-3.3-11-3.5-2.8-0.3-8.6 0.1-13 0.8zm108.5 48.3c1.3 0.8 1.2 1.1-0.5 2-1.9 0.9-1.9 1.1 1.1 4.8 1.8 2.2 5.5 6 8.3 8.6 2.8 2.7 5.3 4.6 5.6 4.3 0.3-0.3-1-3.1-2.7-6.3-1.8-3.1-4.2-7.5-5.4-9.7-1.7-3-2.9-4.1-5-4.3-2.1-0.2-2.5 0-1.4 0.6zm-608.7 189.7c0 4.4 0.2 6 0.4 3.5 0.2-2.5 0.2-6.1 0-8-0.2-1.9-0.4 0.1-0.4 4.5z"/><path fill-rule="evenodd" class="i" d="m1017.8 915.1c4.5-0.1 5.7 0.3 11.7 5.9l-9.3-1.5-1.2 4.5c-0.7 2.5-1.6 5.4-2.1 6.5-0.8 1.6-2.7 2.3-10.2 3.3-5 0.8-10.8 1.6-12.7 1.8-2.7 0.3-2.4 0.1 1.5-1 2.8-0.9 5.7-2.2 6.5-3 1-1.1 1.2-1.9 0.5-2.7-0.7-0.8-3.1-0.5-8.5 1.1-4.1 1.2-10.4 3.7-14 5.5-3.6 1.8-8.5 3.8-11 4.4-2.5 0.7-4.6 1-4.8 0.9-0.1-0.2 2.6-1.8 6-3.7 3.5-1.9 10.3-5.9 15.3-8.9 5-3 11.3-6.6 14-8 2.8-1.3 6.8-3 9-3.7 2.2-0.7 6.4-1.3 9.3-1.4zm53.7 47.9c1.7 1.4 6.8 3.9 11.5 5.4 4.7 1.6 9 3.4 9.5 4.1 0.5 0.6 2.1 1.6 3.5 2 1.4 0.4 3 1.1 3.5 1.5 0.5 0.4 3.9 6.3 7.4 13.1 3.5 6.8 8.2 15.8 10.4 19.9 2.2 4.1 5.2 9.3 6.7 11.5 1.5 2.2 3.5 5.5 4.4 7.2 0.9 1.8 2.5 7.1 3.6 11.8 1.2 5.2 2 11.7 1.9 16.7-0.1 4.6-0.4 9.3-0.7 10.6-0.4 1.3-0.7-3-0.7-9.5 0-11-0.2-12.2-2.9-17.8-2.1-4.3-6.2-9.3-14.1-17.5-6.2-6.3-14.7-16.2-19-22-4.3-5.8-9.3-12.3-11.2-14.5-1.8-2.2-3.4-4.4-3.6-4.8-0.1-0.5-3.1-5.2-6.7-10.5-4.9-7.3-5.7-9.1-3.5-7.2zm24.9 46c3.7 3.6 11.3 11.7 16.8 18 5.6 6.3 10.9 12.8 11.9 14.5 1.1 1.7 1.9 4 1.9 5.2 0 1.3-0.5 2.3-1 2.3-0.5 0-1.6-0.6-2.3-1.3-0.8-0.6-2.2-3-3.3-5.1-1-2.1-3.1-4.7-4.6-5.7-2-1.3-3.3-3.6-4.5-7.7-1.5-4.9-3.1-7.1-11.7-16.2-6.1-6.4-7.3-7.9-3.2-4zm-242.1 1.1c0.4-0.1 0.7 0.2 0.7 0.6 0 0.5 1.9 1.7 4.2 2.8 2.6 1.3 4.6 3.1 5.4 5 0.6 1.6 2.4 8 4 14 2 8.3 2.7 13.1 2.6 19.5-0.1 4.7-0.4 9.2-0.7 10-0.2 0.8-2.1 2.1-4.2 2.9-2.1 0.8-5.6 3.1-7.8 5.1-2.2 1.9-6 5.2-8.5 7.1-2.5 2-6.3 6-8.5 9-2.2 3-4.7 6-5.7 6.6-1 0.7-2.2 2.8-2.7 4.5-0.6 1.8-1.1 4.6-1.2 6.3-0.1 1.7 0.1 5 0.6 7.5 0.4 2.5 1.9 7.2 3.3 10.5 1.4 3.3 4.1 8.4 5.9 11.2 1.8 2.9 6.3 8.3 16.8 18.7l5-0.8c2.8-0.5 6.6-1 8.5-1.1 1.9-0.2 6.9-1.8 11-3.5 4.1-1.7 9.3-3.8 11.5-4.6 2.2-0.9 6-2.9 8.5-4.6 2.5-1.7 5.6-3.2 6.9-3.2 1.6-0.1 3.4-1.3 7.6-7.3l9.5 2.9c5.2 1.5 11.1 2.8 13 2.8 3.1 0.1 3.3-0.1 2-1.5-0.8-0.8-4.9-2.1-9-2.7-6.2-1-7.9-1.7-10-4-1.4-1.5-3.1-2.8-3.7-2.8-0.7 0-1.1-0.5-0.8-1 0.3-0.5 1.1-0.7 1.8-0.3 0.6 0.4 2.3 0.9 3.7 1.1 1.4 0.2 3 0.7 3.5 1.2 0.5 0.5 2.8 1.2 5 1.5 2.2 0.4 4.5 1 5 1.3 0.5 0.4 1.5 0.7 2 0.8 0.5 0.1 6.2 2 12.5 4.2 6.3 2.1 18.3 6.8 26.5 10.2 8.3 3.5 15.1 6.7 15.3 7.2 0.1 0.4 0.8 0.5 1.5 0.1 0.6-0.3 0.9-0.2 0.5 0.3-0.4 0.5 0.1 2 1.1 3.4 1 1.4 2.1 3.3 2.4 4.2 0.5 1.1-0.3 3.2-1.8 5.5-1.4 2.1-2.5 3.9-2.3 4 0.2 0.1 3.3 0.8 7.1 1.7 3.7 0.9 8.4 1.7 10.5 1.7 2.7 0.2 3 0.3 1.1 0.6-1.4 0.3-14.9-0.5-30-1.7-15.1-1.1-32.6-3-38.9-4.1-6.3-1.1-16.2-2.3-22-2.5-9.4-0.5-10.8-0.3-13.7 1.5-2 1.3-4.3 4.2-5.8 7.3-1.4 2.9-2.5 6.1-2.5 7 0 1 1.7 4.6 3.8 8 2.2 3.7 4 8.3 4.5 11.3 0.4 2.7 0.9 7.1 1.2 9.7 0.3 2.7 0.4 4.8 0.3 4.8-0.2 0-3-0.9-6.3-1.9-3.3-1.1-9.6-3.3-14-4.9-4.4-1.6-11.7-4.8-16.2-7.1-4.6-2.2-8.3-4.3-8.3-4.6 0-0.3 0.9 0 2 0.5 1.1 0.5 2.2 0.8 2.5 0.5 0.3-0.3 0-1.3-0.6-2.3-0.9-1.3-0.9-3.2 0-7.7 0.6-3.3 1.1-8 1.1-10.5 0-4.3-0.3-4.8-7.2-11-4-3.6-11.2-10.4-16-15.3-4.9-4.8-8.8-8.6-8.8-8.5 0 0.2 0.6 2 1.5 4 1.2 3 1.4 6.2 0.3 27.3l3.7 4.5c3.6 4.4 3.6 4.4-1.2-0.5-2.6-2.8-6.2-7.1-7.9-9.5-1.6-2.5-3.5-5.8-4.1-7.5-0.6-1.7-0.7-3.7-0.3-4.5 0.5-0.8 1.8-4.3 2.9-7.8 2.1-6.2 2.1-6.2 0.2-11.5-1.1-2.8-3.2-8.4-4.6-12.2-1.5-3.8-3.7-11.5-5.1-17-1.3-5.5-3.7-19.2-5.3-30.5-1.7-11.3-3.3-23.4-4.4-33.5l6.4-3.9c3.5-2.1 7.8-5.3 9.6-7 1.8-1.7 3-3.4 2.8-3.9-0.3-0.4 2.4-3.4 5.9-6.7 3.5-3.3 7-5.7 7.8-5.4 0.7 0.2 2.4 0 3.8-0.5 1.4-0.5 2.8-1 3.3-1zm38.1 6.5c1.2 0.3 2.4 0.9 2.7 1.3 0.3 0.3 0.2 4.9-0.2 10.1-0.4 5.2-1.3 13.3-1.9 18-0.7 4.7-1.8 12.4-2.6 17.2-0.8 4.9-1.7 12-2.1 15.9-0.5 3.9-1 7.3-1.3 7.4-0.3 0.2-1.1-2.7-1.8-6.3-0.7-3.7-3.5-16.4-6.3-28.2-2.7-11.8-5.3-23.8-5.7-26.6-0.5-3.5-0.3-5.6 0.5-6.5 0.7-0.9 2.7-1.3 5.2-1.2 2.3 0.2 4.1 0.8 4.1 1.3 0 0.5 0.8 1 1.8 1 0.9 0.1 2.6-0.9 3.6-2 1.3-1.4 2.6-1.8 4-1.4zm233.1 70.8c0 0.2-3 8.2-6.7 17.7-3.6 9.6-11.2 28.2-16.8 41.4-5.5 13.2-11.1 25.1-12.3 26.3-1.2 1.3-3.5 3.1-5.2 3.9-1.7 0.9-4.8 1.6-7 1.7-2.9 0.2-4.7-0.4-6.5-1.9-1.4-1.2-4.6-5.1-7.2-8.6-2.5-3.5-6.6-8.3-9-10.7-2.4-2.4-5.8-4.6-7.8-5.1-3.4-0.8-3.7-0.6-8.2 4.5-2.7 3-5.8 5.9-7 6.5-1.3 0.7-0.1-0.8 2.6-3.2 2.9-2.6 7.4-8.7 11.2-14.9 3.7-6.2 8.7-12.9 18.4-22.5l4.6 2.5c2.5 1.4 5.6 4.1 6.8 6 1.3 1.9 5.4 6.5 9.2 10.3 3.8 3.7 7.5 6.7 8.2 6.7 0.6 0 3.4-2.1 6-4.8 4.4-4.3 5.9-7 15.7-30.4 6-14.1 10.9-25.5 11-25.4z"/><path class="j" d="m984 927.4c-6.3 3.4-14.3 8.1-17.6 10.2-3.4 2.1-7 4.4-8 5.1-1.8 1.2-1.8 1.2 0.1 0.6 1.1-0.3 2.5-1 3-1.4 0.5-0.5 1.4-0.6 1.8-0.1 0.4 0.4 0.7 0.2 0.7-0.3 0-0.5 2.3-2.3 5.2-3.9 2.9-1.6 9.3-5.3 14.3-8.2 5-2.9 9.9-6 11-6.8 1.1-0.8 1.8-1.5 1.5-1.6-0.3 0-5.7 2.9-12 6.4zm8.5 3c-3.9 1.2-9.7 3.7-13 5.4-5.2 2.7-5.6 3.1-3 3 1.6-0.1 3.6-0.5 4.3-1 0.6-0.4 1.9-0.6 2.7-0.3 0.8 0.3 1.7 0.2 1.9-0.2 0.3-0.5 1.9-0.6 3.8-0.4 1.9 0.3 3 0.1 2.6-0.5-0.4-0.5 1-1.2 3-1.6 2-0.4 4.8-1.5 6.1-2.5 1.4-1 2.1-2.3 1.8-3-0.4-0.7-1.3-1.3-1.9-1.3-0.7 0.1-4.4 1.1-8.3 2.4zm109.4 40.4c-0.1 0.4 0 1.2 0.1 1.7 0.1 0.5-0.4 0.7-1.1 0.4-0.9-0.4-1.4 0-1.5 1-0.1 0.9 0.4 2.3 1 3.1 0.7 0.8 3.8 6.7 7.1 13 3.2 6.3 7.6 14.9 9.8 19 2.2 4.1 5.2 9.3 6.7 11.5 1.5 2.2 3.5 5.5 4.4 7.3 0.9 1.7 2.3 5.8 3.1 9l1.5 5.7c-0.8-7.7-1.9-12.7-3-16-1.1-3.3-2.4-6.9-2.9-8-0.5-1.1-4.3-9-8.5-17.5-4.2-8.5-9.2-18.4-11.2-22-2-3.6-4-6.6-4.5-6.7-0.5-0.2-0.7-0.8-0.4-1.3 0.2-0.5 0.2-1 0-1-0.3 0-0.6 0.3-0.6 0.8zm-251.1 23.5c-0.8 1.8-2 4.8-2.7 6.7-0.7 1.9-1.3 4-1.5 4.5-0.1 0.5-0.6 1.8-1.1 2.7-0.6 0.9-3.1 3.3-5.8 5.2-2.6 2-5 3.4-5.5 3.1-0.4-0.2-1.6 0.5-2.7 1.8l-2 2.2 5-4c-3.9 4.3-5.1 5.5-5.3 5.5-0.1 0 0-0.5 0.3-1 0.3-0.5-0.5-1-1.8-1-1.2 0-3.2 0.2-4.5 0.5-1.4 0.3-1.9 0.9-1.5 1.7 0.6 0.9 0.3 1-1 0.5-0.9-0.4-1.5-0.4-1.2 0.1 0.2 0.4-0.7 1.3-2 2-1.4 0.6-3 0.9-3.7 0.5-0.9-0.6-1 0.2-0.5 3.2 0.4 2.2 0.7 5.5 0.7 7.3v3.2c10.5-6.5 15.8-10.6 18.7-13.4 2.9-2.8 5-5.4 4.8-5.8-0.3-0.5 1.5-2.6 4-4.8 2.5-2.2 5.1-3.8 5.7-3.5 0.7 0.3 2.7 0.1 4.3-0.5 1.6-0.6 3.2-0.7 3.5-0.3 0.3 0.4 2.1 1.6 4 2.7 1.9 1 4.1 2.6 4.8 3.5 0.7 0.9 1.2 1.1 1.2 0.6 0-0.5-1.1-4.4-2.5-8.5-1.4-4.1-3.8-9.2-5.3-11.3-1.5-2.1-3-3.8-3.5-3.7-0.4 0-0.5-0.5-0.2-1 0.3-0.5 0.1-1.2-0.4-1.4-0.4-0.3-1.5 1-2.3 2.7zm43.1 3.6c-0.7 1-3.2 2.8-5.4 3.9-2.2 1.1-6 2.9-8.5 4-2.5 1.1-5.4 2.2-6.5 2.4-1.5 0.2-2.1 1.2-2.3 4.3-0.2 2.2 0.1 5.8 0.7 8 0.7 3.3 0.9 3.5 1 1.3 0.1-1.6 0.7-3.1 1.3-3.5 0.7-0.4 2.9-0.6 4.8-0.4 1.9 0.1 3.6 0.7 3.7 1.2 0.2 0.5 1.1 0.9 2 0.9 1 0 2.7-0.9 3.8-2 1.6-1.6 2.5-1.8 4.5-1.1 2.4 0.9 2.5 0.7 3.2-4.3 0.4-2.8 0.8-7.1 0.8-9.6 0-2.5-0.4-5-0.8-5.7-0.6-0.9-1.2-0.7-2.3 0.6zm-22.8 56.9c-0.1 3.1-0.3 6.4-0.6 7.2-0.2 0.8-2.1 2.1-4.2 2.9-2.1 0.8-5.6 3.1-7.8 5.1-2.2 1.9-6 5.2-8.5 7.1-2.5 2-6.3 6-8.5 9-2.2 3-4.7 6-5.7 6.7-1 0.6-2.2 2.7-2.7 4.5-0.6 1.7-1.1 4.5-1.2 6.2-0.1 1.7 0.1 5 0.6 7.5 0.4 2.5 1.9 7.2 3.3 10.5 1.4 3.3 4.1 8.4 5.9 11.3 1.8 2.8 6.3 8.2 10 11.9l6.8 6.7c7.7-1.3 11.6-1.8 13.5-1.9 1.9-0.2 6.9-1.8 11-3.5 4.1-1.7 9.3-3.8 11.5-4.6 2.2-0.9 6-2.9 8.5-4.6 2.5-1.7 5.6-3.2 6.9-3.2 1.6-0.1 3.4-1.3 5-3.7l2.6-3.6c14.7 4.4 20.6 5.7 22.5 5.7 3.1 0.1 3.3-0.1 2-1.5-0.8-0.8-4.9-2.1-9-2.7-6-0.9-8-1.7-10-3.9-1.7-1.8-5-3.4-9.8-4.8-3.9-1.2-7.4-2.6-7.7-3.1-0.3-0.5-1.3-1-2.3-1-0.9 0-3.5-1.4-5.7-3.1l-4-3.1 8.5 8.2c-3 5.8-6.3 9.4-9.2 11.7-2.9 2.3-8 5.4-11.3 6.9-4.9 2.3-7.9 2.9-16.6 3.3l-10.6 0.6c-8-8.1-10.8-10.5-11.3-10.5-0.5 0-2-1.9-3.1-4.2-1.2-2.4-2.4-7-2.7-10.3-0.5-5.3-0.2-6.5 2.2-10.5 1.4-2.5 4.6-6.8 6.9-9.7 2.3-2.8 7.6-8.3 11.7-12.1 4.1-3.8 9-7.7 10.7-8.8 1.8-1 3.5-2.8 3.8-3.9 0.2-1.1 0.5-6.2 0.5-11.2 0-5.1-0.4-9.3-0.9-9.3-0.4 0-0.9 2.6-1 5.8zm-41.1 68.2c0 0.3 0.7 2.6 1.5 5.3 1.4 4.2 1.3 5.2-0.1 9.5-0.9 2.6-2.1 5.2-2.5 5.7-0.5 0.5-0.9 2.3-0.9 4 0 1.7 0.7 4.1 1.5 5.5 1.2 2.2 1.4 2.3 1.3 0.5 0-1.1 1.2-5.2 2.6-9l2.6-7c-2.9-8.5-4.2-11.9-4.8-13-0.6-1.1-1.1-1.8-1.2-1.5zm207.9 34.4c-2.9 3.4-3.8 4.8-2.1 3.1l3.3-3c5.6 3.1 9.2 6.7 11.7 10 2.4 3.3 5.7 8.8 7.3 12.3 1.6 3.4 3.9 7 5.1 8 1.3 1 4.4 2.1 7 2.5 3.8 0.5 5.8 0.3 9.3-1.3 3.1-1.4 5.3-3.3 7.2-6.2 1.4-2.4 3.7-6.8 5-9.8 1.3-3 2.1-5.7 1.8-6-0.3-0.3-0.5 0.1-0.5 0.8 0 0.6-1.2 2.6-2.8 4.3-1.5 1.8-4 3.8-5.7 4.7-1.7 0.8-4.8 1.5-7 1.6-2.9 0.2-4.7-0.4-6.5-1.9-1.4-1.2-4.6-5.1-7.2-8.6-2.5-3.5-6.6-8.3-9-10.7-2.6-2.6-5.7-4.6-8-5.1-3.6-0.8-3.8-0.7-8.9 5.3zm-128.7 4.5c-1.9 1.3-4.2 4.2-5.7 7.4-1.4 2.8-2.5 6-2.5 7 0 0.9 1.7 4.5 3.7 7.9 2.4 3.9 4.1 8.3 4.7 11.8 0.4 3 0.9 6.6 1 8 0.2 1.4 0.4 3.5 0.4 4.8 0.1 1.2 0.8 2.2 1.4 2.2 0.7 0 4.9 1.1 9.3 2.5 4.4 1.4 8.2 2.5 8.5 2.5 0.3 0 0.6-0.8 0.6-1.7 0.1-1-0.7-4.6-1.7-8-1-3.5-1.7-6.8-1.4-7.3 0.3-0.5-0.7-3.4-2.1-6.2-1.5-2.9-3.9-7-5.3-9.1l-2.6-3.7c3.9-3.9 5.8-5.3 6.7-5.5 1-0.3 1.8-1.2 1.8-2 0-0.8-0.9-1.7-2-2-1.1-0.3-2-0.8-2-1.2 0-0.5 2.3-1.1 5.2-1.5 2.9-0.4 15.6-0.8 28.3-0.9l23-0.1c-21.7-2.1-31.6-3.4-36-4.3-4.4-0.8-13-1.8-19-2.1-10-0.5-11.3-0.4-14.3 1.5zm216.3 3.4c-1.1 0.8-3 2.9-4.2 4.8-1.2 1.9-2.3 3.7-2.3 4.2 0 0.4 1.2-0.5 2.6-2l2.5-2.8c-3.5 5.9-3.5 6-1.7 4.5 1-0.8 3.2-3.2 4.7-5.2 2.1-2.7 2.4-3.6 1.1-3.1-1.2 0.5-1.5 0.4-1-0.5 0.4-0.6 0.6-1.2 0.5-1.2-0.1 0-1.1 0.6-2.2 1.3z"/><path class="k" d="m533.5 646.3l-7 7.2c11.3-10.8 14.5-14.1 14.5-14.2 0-0.2-0.1-0.3-0.3-0.3-0.1 0-3.4 3.3-7.2 7.3zm475 203.1c-3.3 0.7-9.3 2.3-13.3 3.4-3.9 1.2-7 2.7-6.7 3.2 0.3 0.6-0.4 0.8-1.7 0.5-1.3-0.3-1.6-0.3-0.8 0.1 0.9 0.3-4.6 3.6-14.5 8.5-8.8 4.4-16.5 8.5-17 9.1-0.5 0.6 0.4 0.3 2-0.5 1.6-0.8 5-2.1 7.5-2.8 2.5-0.7 5-1.1 5.5-0.9 0.5 0.1 1.5 0.2 2 0.2 0.5 0 2.1-0.2 3.5-0.5 1.5-0.3 2.6 0 2.7 0.7 0.1 0.6 0.4 2.2 0.7 3.6 0.3 1.4 1.2 4.2 2.1 6.3 0.8 2 1.3 4.9 1.1 6.5-0.2 1.5-1 4.1-1.6 5.7-0.6 1.7-1.4 3.9-1.6 5-0.3 1.1-1.7 3.5-3.2 5.4-1.5 1.8-3.5 4.4-4.4 5.7-1.7 2.3-1.7 2.4 0 2.4 0.9 0 4.6-1 8.1-2.3 4.1-1.4 7.6-3.4 9.5-5.5 1.7-1.8 3.6-3.2 4.1-3.2 0.5 0 1.8-0.9 2.8-2 0.9-1.1 1.7-2.4 1.7-3 0-0.5 1-1.3 2.3-1.6 1.5-0.4 1.8-0.8 0.9-1.2-1-0.5 0.1-2 3.5-5 2.6-2.3 6.4-4.8 8.3-5.4 1.9-0.5 5-0.7 6.8-0.4 1.7 0.3 3.4 1.1 3.7 1.6 0.3 0.6-0.3 2-1.2 3.1-1 1.2-2.3 3.8-3 5.8-0.6 2-1 3.9-0.7 4.4 0.2 0.4 0 0.6-0.4 0.5-0.5-0.2-2.5 1.2-4.5 3-2 1.7-3.7 3.5-3.7 4 0 0.4-1.7 1.8-3.7 3.2l-3.7 2.5c4.2 0.4 7.6-0.8 10.7-2.5 3.2-1.8 6.7-3 9-3 2 0 3.7 0.3 3.7 0.8 0.1 0.4-2.2 1.7-5 3-2.7 1.2-4.8 2.7-4.5 3.2 0.3 0.6 3 1 6 1 3 0 10.1-0.7 15.8-1.5 5.6-0.9 11.8-1.2 13.7-0.9 1.9 0.4 6.2 2 9.5 3.7 3.3 1.6 8.5 4.8 11.5 7 3 2.2 9.6 8.1 14.6 13.1 4.9 5 10.8 11.8 12.9 15.1 2.2 3.3 5.6 9.4 7.5 13.6 1.9 4.2 3.9 8 4.3 8.5 0.5 0.5 1.2 0.9 1.5 1 0.4 0 1.6 0.4 2.7 0.8 1.1 0.5 2.6 1 3.3 1.2 0.8 0.3 1-0.4 0.7-2.1-0.3-1.4-1.6-5-3-8-1.4-3-2.5-5.7-2.5-6 0-0.3-1.5-2.4-3.3-4.7-1.8-2.4-4.4-6.1-5.8-8.3-1.4-2.2-7.3-8.4-13-13.7-5.7-5.4-13.6-12.1-17.4-14.9-3.8-2.8-10.3-6.8-14.3-8.8-4-2-7.1-4-6.9-4.6 0.3-0.5 2.2-0.9 4.3-0.8l3.9 0.2c-8.2-7.3-10.5-10.1-10.5-10.9 0-0.8 1.1-2.6 2.5-4 1.4-1.4 2.5-3.4 2.5-4.5-0.1-1.1-1.2-5.1-2.5-9-1.4-3.8-2.9-7.2-3.4-7.5-0.5-0.3-1-1.4-1.2-2.5-0.3-1.2-1.3-2.1-2.7-2.2-1.2-0.2-2.5-1.2-2.9-2.3-0.5-1.1-2-2.2-3.5-2.5-1.6-0.3-2.8-1.1-2.8-2 0-0.9 0.9-1.5 2.3-1.5 1.2 0 3.4-0.5 4.9-1.2 1.6-0.7 2.8-1.6 2.8-2 0-0.5-1.1-0.6-2.5-0.3-1.4 0.3-2.5 0.2-2.5-0.2 0-0.5-6.2-0.9-13.8-1-7.8-0.1-16.3 0.4-19.7 1.1zm117.4 69.7c0.3 1.2 0.9 2.3 1.3 2.5 0.5 0.2 0.8 0.9 0.8 1.4 0 0.6-1.1 0.7-2.8 0.3-1.5-0.3-3-1.1-3.4-1.7-0.4-0.7-0.9-0.5-1.2 0.7-0.4 0.9-1.4 1.7-2.4 1.7-1.4 0-1.8 1.2-2.5 6.5-0.7 6.4-0.6 6.6 2.5 10.1 1.8 2 5.5 6 8.3 8.9 2.7 2.8 10.4 10.1 17 16.1 10.9 10 11.4 10.3 5.7 3.9-3.4-3.8-6.3-7.3-6.2-7.7 0-0.5 0.8-1 1.7-1.4 1.6-0.4 1.6-0.6 0.3-1.4-1.2-0.8-0.9-1 1.2-1 2.1 0 3.2 0.7 4.3 3 0.8 1.7 1.7 2.9 2 2.8 0.2-0.2-0.5-2.1-1.6-4.3-1.1-2.2-2.4-3.9-2.9-3.7-0.6 0.1-0.7-0.4-0.4-1 0.4-0.7-0.6-3.5-2.1-6.3-1.5-2.7-5.1-8.8-7.8-13.5-2.8-4.7-5.7-8.8-6.4-9.2-0.7-0.5-2.2-2.6-3.3-4.8-1.1-2.2-2.2-4-2.4-4-0.2 0-0.1 1 0.3 2.1z"/><path class="l" d="m983.9 911.4c-2.5 0.6-7.2 2.9-10.4 5.1-3.2 2.2-7.9 6-10.3 8.5-2.5 2.5-5.8 6.8-7.3 9.5-1.6 2.8-2.9 5.2-2.9 5.5 0 0.3 1.5 0.4 3.3 0.3 2.7-0.1 2.9 0 1.5 1-1 0.7-1.7 1.8-1.8 2.5 0 0.8 0.5 0.7 1.8-0.4 0.9-0.9 6-4.2 11.2-7.4 5.2-3.1 12.9-7.6 17-9.9 4.9-2.7 6.5-3.9 4.5-3.5l-3 0.6c6.5-6 8.5-8.2 8.5-8.7 0.1-0.5-0.7-1.7-1.6-2.5-1-0.8-2.7-1.6-3.8-1.6-1.2-0.1-4.2 0.4-6.7 1zm119.2 58.4c0 0.9 1.8 4.9 4 8.7 2.1 3.9 7.3 14 11.5 22.5 4.2 8.5 8 16.4 8.5 17.5 0.5 1.1 1.8 4.5 2.8 7.5l2 5.5c0.1-5.8-1.3-11.2-3-15.7-1.7-4.6-4.9-11.9-7.1-16.3-2.3-4.4-7-13.3-10.5-19.7-3.4-6.5-6.8-11.8-7.3-11.8-0.5 0-1 0.8-0.9 1.8zm-249 15.5c-0.6 1.5-1 4.1-0.8 5.7 0.1 1.7 0.5 3 1 3 0.4 0 2.1 2.1 3.7 4.8 1.7 2.6 3 4.4 3 4 0-0.5-0.5-2-1.1-3.5-0.6-1.6-1.9-5.9-2.9-9.8-1.7-6.7-1.9-6.9-2.9-4.2zm40.7 9.9c-0.3 0.7-2.3 1.4-4.5 1.6-2.1 0.2-5.9 1.5-8.4 2.9-2.4 1.4-5.8 2.8-7.6 3.2-2.7 0.5-3.2 1.1-3.7 4.1-0.3 1.9-0.5 4.4-0.5 5.5 0.1 1.2 0.4 0.8 0.8-1 0.4-1.9 1.3-3.1 2.6-3.3 1.1-0.2 4-1.3 6.5-2.4 2.5-1.1 6.5-2.9 8.9-4.1 2.5-1.2 5.2-3.2 6-4.5 0.9-1.2 1.4-2.5 1.1-2.8-0.3-0.3-0.8 0.1-1.2 0.8zm-21.6 65.3c-0.1 3.8-0.5 7.9-0.7 9-0.3 1.1-2 2.9-3.8 3.9-1.7 1.1-6.6 5-10.7 8.8-4.1 3.8-9.4 9.3-11.7 12.1-2.3 2.9-5.5 7.2-6.9 9.7-2.4 4-2.7 5.2-2.2 10.5 0.3 3.3 1.5 7.9 2.7 10.3 1.1 2.3 2.6 4.2 3.1 4.2 0.5 0 3.3 2.4 6.1 5.3l5.2 5.2c19.3-1 22.3-1.6 27.2-3.9 3.3-1.5 8.4-4.6 11.3-6.9 3-2.4 6.2-5.9 7.2-8.2 1.9-3.9 1.9-4 0-5.2-1.1-0.7-1.8-1.6-1.6-2 0.2-0.5-0.2-0.8-0.9-0.8-0.8 0-1 0.5-0.5 1.5 0.4 0.8 0.5 3 0.1 4.9-0.4 2.2-1.8 4.3-4.1 6.2-1.9 1.5-5.5 3.7-8 4.8-2.5 1.1-7.4 2.4-11 2.7-4.6 0.5-8.1 0.2-12-0.9-3-0.9-6.8-2.6-8.4-3.9-1.6-1.3-3.8-4.1-4.8-6.3-0.9-2.2-1.8-5.6-1.8-7.5 0-1.9 0.8-6 1.7-8.9 1.4-4.2 3.7-7.5 9.6-14 4.3-4.8 8.4-8.8 9-9 0.7-0.3 1.7-0.8 2.2-1.3 0.5-0.5 1.8-1.4 2.8-2.1 1.6-1.1 1.7-2.6 1.4-13.2-0.1-7-0.4-9.1-0.5-5zm-43 67c0.1 1.7-0.9 5.9-2 9.5-1.7 4.9-2 7.2-1.3 9.5 0.9 2.8 0.9 2.8 1 0.5 0-1.4 0.5-3 1-3.5 0.4-0.5 1.6-3.1 2.5-5.7 1.4-4.3 1.4-5.3 0.2-9-1.3-3.9-1.4-4-1.4-1.3zm298.3 22.4c-5.5 2.1-11.8 4.6-14 5.6-2.2 1-5.5 2.9-7.3 4.4-2.2 1.7-5.4 6.7-9.3 14.1-3.2 6.3-8.4 14.8-11.4 18.8-3 3.9-5.3 7.4-5 7.7 0.3 0.3 0 1.4-0.5 2.5-0.5 1.1-1.2 3.7-1.5 5.8-0.4 2.9-0.2 3.4 0.7 2.5 0.7-0.7 1.8-1.3 2.5-1.3 0.7 0 3-1.3 5.1-3 2-1.6 3.9-2.8 4.2-2.5 0.3 0.2 3.9-2.6 8.1-6.3 4.2-3.7 11-10.5 15-15.1 4.1-4.6 7.3-8.8 7.2-9.2-0.2-0.5 0.2-1.7 0.8-2.6 0.6-1 0-0.6-1.5 1-1.4 1.5-2.6 2.4-2.6 2 0-0.5 1.1-2.5 2.5-4.5 1.4-2.1 3.4-4.3 4.5-4.8q2-1 1.5 0c-0.3 0.5 0.1 1 0.8 1 0.9-0.1 0.8 0.4-0.3 1.7-1.4 1.6-1.4 1.7 0.3 0.6 0.9-0.7 1.5-1.8 1.2-2.3-0.3-0.5-0.2-1 0.3-1 0.4 0.1 2.6-2.2 5-5 2.3-2.7 4.2-6 4.2-7.2 0-1.3-0.1-3.3-0.1-4.5-0.1-1.3-0.2-2.3-0.2-2.3-0.1 0.1-4.7 1.8-10.2 3.9zm-92.6 10.5c-2.3 2.4-2.3 2.5-0.4 3 1.1 0.3 3.9 2.5 6.3 5 2.3 2.6 5.2 6.5 6.3 8.9 1.2 2.3 3 7 4 10.5 1.4 4.5 2.8 6.9 5.2 8.9 1.7 1.4 4.5 3.2 6.2 3.8 1.7 0.7 4.6 1 6.5 0.8 1.9-0.3 4.6-1.3 6-2.3 1.4-0.9 4.3-4.6 6.6-8.1 2.2-3.5 4.6-7.4 5.2-8.6 0.7-1.3 1-2.3 0.7-2.3-0.3 0-1.4 1.6-2.5 3.5-1.3 2.3-3.6 4.2-6.5 5.5-3.5 1.6-5.5 1.8-9.2 1.3-2.7-0.4-5.8-1.5-7-2.5-1.3-1-3.5-4.4-4.9-7.5-1.5-3.2-4.8-8.7-7.3-12.2-2.5-3.5-5.9-7.2-7.6-8.2-1.7-1-3.5-1.9-4.1-1.9-0.6 0-2.2 1.1-3.5 2.4zm-110.2 7.3c-2 0.2-3.7 0.8-3.7 1.3 0 0.5 0.9 1.2 2 1.5 1.1 0.3 2 1.2 2 2 0 0.8-0.8 1.7-1.7 2-1 0.2-2.9 1.6-4.3 2.9l-2.5 2.6c4 5.8 6.4 9.9 7.9 12.8 1.4 2.8 2.4 5.7 2.1 6.2-0.3 0.5 0.4 3.9 1.5 7.5 1.1 3.6 1.8 7 1.5 7.5-0.3 0.5 0.1 1.4 0.8 2 0.6 0.5 4.6 1.6 8.7 2.5 4.1 0.9 7.9 1.2 8.4 0.8 0.4-0.5-0.2-3.5-1.4-6.8-1.2-3.3-4.3-10-6.8-15-2.5-5-5.4-10.2-6.4-11.7-1-1.6-1.8-3.5-1.8-4.3 0-0.8 1.6-2.3 3.5-3.2 2.9-1.5 3.4-2.2 2.8-4.3-0.3-1.4-1-3.1-1.4-3.7-0.6-0.9-0.2-1.5 1.4-1.8 1.2-0.3 4.5-0.6 7.2-0.8 2.8-0.2 0.3-0.3-5.5-0.4-5.8 0-12.2 0.2-14.2 0.4zm53.7 0c1.6 0.2 4.8 0.2 7 0 2.2-0.2 0.9-0.4-3-0.4-3.9 0-5.6 0.2-4 0.4z"/><path class="m" d="m974.5 910.4c-1.6 0.7-5.5 3.8-8.5 6.7-3 3-8.5 8.8-12.2 12.9-3.8 4.4-6.4 8-6 8.7 0.4 0.7 1.8 1.1 3.1 1 1.5-0.1 2.9-1.3 4.1-3.7 1-1.9 3.3-5.4 5.2-7.7 1.8-2.3 6-6.3 9.3-8.9 3.3-2.6 7.8-5.5 10-6.5 2.2-1 5.5-1.9 7.3-2.1 1.7-0.2 3.2-0.6 3.2-1 0-0.5-2.8-0.8-6.3-0.8-3.4 0.1-7.6 0.7-9.2 1.4zm19.2 1.1c1.3 0.8 2.3 2.1 2.3 2.8 0.1 0.6-0.9 1.9-2.2 2.8-1.3 0.9-2.1 1.9-1.8 2.2 0.3 0.3 3-1.7 6-4.4l5.5-4.8c-11.7-0.1-11.9 0-9.8 1.4zm116.2 65.8c2.3 3.9 7 12.8 10.5 19.7 3.4 6.9 7.5 15.9 8.9 20 1.4 4.1 2.9 10.7 3.2 14.5 0.3 3.8 0.9 6.6 1.3 6.2 0.4-0.5 0.5-4.5 0.4-9-0.3-4.9-1.4-11.4-2.8-16.2-1.4-4.4-4-10.8-5.9-14.2-1.9-3.5-3.3-6.3-3-6.3 0.3 0-1.1-3-3-6.7-1.9-3.8-3.5-7.4-3.5-8 0-0.7-1.1-2.6-2.5-4.3-1.6-1.9-3.4-3-5.1-3h-2.7zm-254.9 2c0 1 0.8 5 1.6 9 0.9 4 1.8 7 2 6.8 0.2-0.3-0.3-4.1-1.1-8.5-0.9-4.4-1.8-8.3-2-8.5-0.3-0.3-0.5 0.2-0.5 1.2zm24.1 18.8c-2 1-4.8 2.1-6.3 2.4-2.4 0.5-2.7 1-2.6 4.3 0.1 2.8 0.2 3.1 0.5 1 0.3-2.1 0.9-2.7 2.6-2.7 1.2 0 4.3-1.1 6.8-2.5 2.4-1.3 4.5-2.9 4.5-3.5 0-0.6-0.5-1-1-1-0.6 0-2.6 0.9-4.5 2zm-4.8 69.2c-0.2 10.4-0.3 10.8-2.8 12-1.4 0.7-2.5 1.6-2.5 2 0 0.4-0.6 0.9-1.4 1-0.8 0.1-4.9 4.1-9.2 8.8-6 6.5-8.3 9.9-9.6 14-1 3-1.8 7-1.7 9 0 1.9 0.8 5.2 1.8 7.5 1 2.2 3.1 5 4.7 6.3 1.6 1.2 5.4 3 8.5 3.8 3.9 1.2 7.3 1.4 12 1 3.5-0.4 8.5-1.6 11-2.8 2.4-1.1 6.1-3.3 8.2-4.9 2.1-1.6 3.7-3.5 3.7-4.2-0.1-1-0.2-1-0.5 0-0.3 0.7-4.2 3.1-8.7 5.3-5.9 2.8-9.5 4-12.7 4-2.5 0-6.9-0.7-9.8-1.5-3.3-1-6.8-3-9.3-5.3-3.1-3-4.2-4.9-5.2-9.2-0.8-4.2-0.8-6.5 0-9.5 0.7-2.6 3.7-6.9 8.3-12 3.9-4.5 8.3-8.8 9.8-9.7 1.4-1 3-1.5 3.4-1.3 0.4 0.3 1.2-0.8 1.8-2.3 0.6-1.5 0.9-7.2 0.7-12.7l-0.3-10zm253.2 77c-3.2 1.1-6.8 2.4-7.9 2.8-1.1 0.4-3.6 1.3-5.5 2-1.9 0.8-5.1 3.6-7.4 6.4-2.1 2.8-6.8 10.8-10.4 18-3.6 7.2-7.9 15-9.6 17.5-1.7 2.5-2.6 4.1-1.9 3.7 0.7-0.4 3-3.3 5.1-6.4 2.1-3.2 6.1-10.3 8.9-15.8 3.2-6.3 6.3-11 8.4-12.6 1.9-1.5 5.2-3.4 7.4-4.4 2.2-1 8.3-3.4 13.5-5.4l9.6-3.6-4.2-4.2zm-98 20.7c-2.2 1.1-3.7 2-3.5 2 0.3 0.1 1.4 0.3 2.5 0.5 1.1 0.2 3.3 1.9 4.8 3.7 1.5 1.8 3.9 5.1 5.3 7.3 1.7 2.8 2.9 6.9 3.8 13.5 0.8 5.2 2.2 11.5 3.1 14 0.9 2.5 2.1 5 2.6 5.7 0.5 0.7 1.5 1 2.2 0.6 0.7-0.3 2 0.4 2.9 1.8 1.5 2.1 2 2.3 4.5 1.3 1.9-0.8 3.5-0.8 4.8-0.2 1.4 0.7 3.3 0.7 6-0.1 2.2-0.7 5.7-2 7.8-2.9 2-1 3.5-1.9 3.2-2.2-0.2-0.3 0.1-2.1 0.7-4 0.6-1.9 1.1-4.2 1.2-5.1 0.1-0.9 0.8-2.5 1.6-3.5 0.8-1.1-0.5-0.1-2.9 2.1-2.4 2.2-4 3.3-3.5 2.5 0.4-0.8 2.4-4 4.5-7 2-3 4.2-6.5 4.8-7.8 0.6-1.2 1-2.2 0.9-2.3-0.1 0-1.9 2.7-4 6-2.1 3.4-5 6.9-6.5 7.9-1.5 1.1-4.3 2.1-6.3 2.4-1.9 0.3-4.8 0-6.5-0.7-1.6-0.7-4.4-2.4-6.2-3.9-2.4-1.9-3.8-4.4-5.3-9.4-1.2-3.7-3.3-8.9-4.8-11.6-1.4-2.7-4.6-6.6-6.9-8.7-2.3-2.2-4.8-3.9-5.5-3.8-0.7 0-3.1 0.9-5.3 1.9zm-84 2.7c-2.7 0.2-6 0.5-7.2 0.8-1.6 0.3-2 0.9-1.4 1.7 0.5 0.7 1.1 2.4 1.5 3.8 0.5 2.1 0.1 2.7-2.9 4.2-1.9 1-3.5 2.5-3.5 3.3 0 0.8 0.9 2.7 1.9 4.2 1 1.5 3.9 6.8 6.4 11.8 2.5 4.9 5.6 11.8 6.9 15.2l2.3 6.3c10.5 0 11.4-0.3 11-1.5-0.3-0.9 0.2-1.5 1-1.5 1.2 0 1.3-0.5 0.5-2-0.5-1.1-1-2.2-1-2.5 0-0.3 0.7-0.5 1.5-0.5 0.9 0 1.5-0.2 1.5-0.5 0-0.3-0.5-1.5-1.1-2.8-0.6-1.2-1.9-3.1-2.9-4.2-1-1.1-4.1-6.1-6.9-11-2.8-5-5.1-9.4-5.1-9.8 0-0.4 1.2-1.3 2.6-2 1.6-0.8 2.5-2.1 2.6-3.7 0.1-1.4 0.1-3.5 0-4.8-0.1-1.7 0.5-2.4 2.6-2.8 1.5-0.3 3.6-0.9 4.7-1.3 1.3-0.5-0.1-0.8-4-0.7-3.3 0-8.2 0.2-11 0.3zm21 0c1.7 0.2 4.8 0.2 7 0 2.2-0.2 0.9-0.4-3-0.4-3.8 0-5.6 0.2-4 0.4zm24 1c1.7 0.2 4.8 0.2 7 0 2.2-0.2 0.9-0.4-3-0.4-3.8 0-5.6 0.2-4 0.4z"/><path class="n" d="m1006 909.7c-1.4 0.3-5.1 2.8-8.3 5.7-3.2 2.8-5.6 5.2-5.5 5.4 0.2 0.1 4.8-1.6 10.3-3.8 5.5-2.2 10.8-4 11.8-4 0.9 0 1.7-0.5 1.7-1 0-0.6-0.8-1.2-1.8-1.5-0.9-0.3-2.6-0.2-3.7 0.2-1.4 0.5-1.8 0.4-1.4-0.5 0.4-0.6 0.4-1.1 0-1.1-0.3 0.1-1.7 0.4-3.1 0.6zm-44.8 4.6c-4.3 1.9-10.8 6.1-16 10.2-4.7 3.8-10.2 8.1-12.2 9.4-2.8 1.8-3.2 2.5-2 3.1 0.9 0.5 1.2 1.4 0.7 2.4-0.4 0.9-0.4 1.4 0 1.2 0.5-0.3 2-0.7 3.5-1 1.6-0.3 2.8-0.3 2.8 0.1 0 0.5 1.5 0.7 3.3 0.5 1.7-0.1 4.1-0.5 5.2-0.8 1.1-0.3 1.7-0.8 1.3-1.2-0.4-0.4 2.3-4.1 6-8.2 3.7-4.1 9.4-10.1 12.7-13.3 4.5-4.3 5.5-5.7 4-5.6-1.1 0-5.3 1.5-9.3 3.2zm151.9 57.4c0.2 0.4 1.1 2.1 1.8 3.8 0.8 1.6 2.9 6 4.7 9.7 1.9 3.8 3.2 6.8 2.9 6.8-0.3 0 1.1 2.8 3 6.2 1.9 3.5 4.6 10.1 6 14.8 2.1 7 2.5 10.7 2.6 20.5 0 6.6 0.4 13.8 0.8 16l0.7 4c2-9.3 3.3-14 4.1-16.5 0.8-2.5 2.4-7.9 3.4-12 1.1-4.1 2.5-8.4 3.2-9.5 0.8-1.1 1.3-3.4 1.2-5-0.1-1.7-1.8-5.7-3.7-9-1.9-3.3-5-8.5-6.9-11.5-1.9-3-4.3-6.3-5.4-7.3-1.1-1-3-2.7-4.3-3.8-1.2-1-4.1-2.9-6.5-4.1-2.3-1.2-5.1-2.5-6.1-3-1.1-0.5-1.8-0.6-1.5-0.1zm-254 21.8c0 0.5 1.6 6.4 3.5 13 1.9 6.6 3.1 10 2.8 7.5-0.3-2.5-1.9-8.3-3.4-13-1.5-4.7-2.8-8.1-2.9-7.5zm8.4 4.8c-0.4 3.3-0.1 6.9 0.9 9.7l1.4 4.5c0.2-9.9 0.6-11.6 1.7-12 0.8-0.3 2.3-0.5 3.2-0.5 1 0 3.2-1 4.8-2.1 1.7-1.2 2.2-1.8 1-1.4-1.1 0.4-2.8 0.9-3.8 1.1-0.9 0.2-3.3-0.7-5.2-2l-3.5-2.5zm240.6 135.5c-2.9 7.5-8.4 21.4-12.1 30.7-3.7 9.4-8.2 19.5-10 22.5-1.7 3-4.4 7.3-5.9 9.5-1.5 2.2-3.1 4.7-3.5 5.5-0.5 0.8 0.6 0.2 2.4-1.5 1.8-1.6 5-5.5 7-8.5 2.1-3 6.7-11.3 10.3-18.5 3.6-7.1 8.3-15.2 10.4-18 2.3-2.8 5.4-5.6 7.4-6.3 1.9-0.8 4.3-1.7 5.4-2.1 1.1-0.5 4.6-1.6 7.8-2.7 3.2-1 5.8-2.2 5.8-2.6 0-0.4-1.1-0.8-2.3-0.9-1.2-0.1-2.7 0-3.3 0.1-0.5 0.1-2.5 0.4-4.5 0.6-1.9 0.3-4.6 0.2-6 0-1.3-0.3-2.8-1.5-3.2-2.6-0.4-1.2-1.4-1.8-2.3-1.5-0.8 0.3-1.7 1.5-2 2.8-0.3 1.2-0.8 2-1 1.7-0.3-0.3 0-1.8 0.6-3.5 0.6-1.6 1.9-6.3 2.9-10.4 1-4.1 1.7-7.6 1.6-7.8-0.1-0.2-2.5 5.9-5.5 13.5zm-214.6-11.8c-0.5 0.5-4.9 2.3-9.7 4-6.9 2.4-9.9 2.9-14 2.5-3.8-0.3-4.6-0.2-2.8 0.4 1.4 0.5 4.8 1 7.5 1 4 0.1 6.8-0.7 13.3-3.9 4.5-2.2 8.2-4.2 8.2-4.5 0-0.3-0.3-0.5-0.8-0.5-0.4 0-1.2 0.5-1.7 1zm126.5 46.1c-1.9 0.5-16.5 0.8-32.5 0.7-15.9-0.2-30.2 0.1-31.7 0.5-2 0.5-2.7 1.3-2.6 3 0.1 1.2 0.1 3.3 0 4.7 0 1.6-1 3-2.6 3.8-1.4 0.7-2.6 1.6-2.6 2 0 0.4 2.3 4.8 5.1 9.7 2.8 5 5.9 9.9 6.9 11 1 1.1 2.3 3 2.9 4.3 0.6 1.2 1.1 2.4 1.1 2.7 0 0.3-0.6 0.5-1.5 0.5-0.8 0-1.5 0.2-1.5 0.5 0 0.3 0.5 1.4 1 2.5 0.8 1.6 0.7 2-0.5 2-0.8 0-1.2 0.6-1 1.5 0.4 1.1 2.5 1.7 6.8 2.1 3.4 0.3 11.6 1.5 18.2 2.5 7.6 1.2 17.1 1.9 25.5 1.9 9.8 0 17.6-0.7 28-2.4 8-1.4 16.3-3 18.5-3.7 2.2-0.6 4.5-1.3 5-1.6 0.6-0.3 0.4-0.9-0.5-1.3-0.8-0.4-2.7-0.2-4.3 0.4-2.5 1-3 0.9-4.5-1.3-0.9-1.3-2.2-2.1-2.9-1.7-0.7 0.3-1.7 0.1-2.2-0.6-0.5-0.7-1.6-3.3-2.6-5.8-0.9-2.5-2.3-8.8-3.1-14-0.9-6.6-2.1-10.7-3.8-13.5-1.4-2.2-3.7-5.5-5.3-7.3-1.9-2.3-3.8-3.4-6.3-3.7-1.9-0.2-5 0.1-7 0.6z"/><path class="o" d="m519 660.5c-4.1 4.1-7.3 7.5-7 7.5 0.3 0 3.9-3.4 8-7.5 4.1-4.1 7.2-7.5 6.9-7.5-0.2 0-3.8 3.4-7.9 7.5zm-0.5 30.8l-7 7.2c11.3-10.9 14.5-14.1 14.5-14.3 0-0.1-0.1-0.2-0.3-0.2-0.1 0-3.4 3.3-7.2 7.3zm-41.5 30.9c0 0.2 3.5 3.7 7.7 7.8l7.8 7.5c-11.2-12-14.6-15.5-15-15.5-0.3 0-0.5 0.1-0.5 0.3zm65 30c5.8 5.9 10.6 10.7 10.8 10.7 0.1 0 0.2-0.1 0.2-0.2 0-0.2-4.8-5-10.7-10.8l-10.8-10.5zm781-1.5l-6.5 6.7c10.5-10 13.5-13.1 13.5-13.2 0-0.1-0.1-0.3-0.3-0.3-0.1 0-3.2 3.1-6.7 6.8zm-672 54l-6.5 6.7c10.5-10 13.5-13.1 13.5-13.2 0-0.1-0.1-0.3-0.3-0.3-0.1 0-3.2 3.1-6.7 6.8zm-88.5 2.2c3.9 3.9 7.2 7.1 7.5 7.1 0.3 0-2.5-3.2-6.2-7-3.7-3.9-7.1-7.1-7.5-7.1-0.4 0 2.3 3.2 6.2 7zm50 15c5.5 5.6 10.2 10.1 10.5 10.1 0.3 0-3.9-4.5-9.2-10-5.4-5.6-10.1-10.1-10.5-10.1-0.4 0 3.7 4.5 9.2 10zm31.5 19.8l-6.5 6.7c10.5-10 13.5-13.1 13.5-13.2 0-0.1-0.1-0.3-0.3-0.3-0.1 0-3.2 3.1-6.7 6.8zm380 5.6c0.3 0.2 3.9 0.6 8 0.9 5.6 0.5 6.5 0.4 3.5-0.3-2.2-0.4-5.8-0.9-8-0.9-2.2-0.1-3.8 0.1-3.5 0.3zm23.1 2.1c-0.1 0.6-1.3 1.6-2.9 2.3-1.5 0.7-3.7 1.3-5 1.3-1.3-0.1-2.2 0.6-2.2 1.4 0 0.9 1.2 1.8 2.7 2 1.6 0.3 3.1 1.4 3.5 2.5 0.5 1.1 1.8 2.2 3 2.3 1.4 0.1 2.4 1.1 2.7 2.2 0.2 1.1 0.7 2.3 1.2 2.5 0.5 0.3 2 3.7 3.4 7.5 1.3 3.9 2.4 7.9 2.5 9 0 1.1-1.1 3.2-2.5 4.5-1.4 1.4-2.5 3.2-2.5 4 0 0.9 2.3 3.7 5.2 6.3l5.3 4.7c-6-0.4-7.9 0-8.2 0.5-0.2 0.6 2.9 2.7 6.9 4.7 4 2 10.5 5.9 14.3 8.8 3.8 2.8 11.7 9.5 17.4 14.8 5.7 5.4 11.6 11.5 13 13.7 1.4 2.2 4 6 5.8 8.3 1.8 2.3 3.3 4.5 3.3 4.7 0 0.3 1.1 3 2.5 6 1.4 3.1 2.8 6.7 3.2 8.2 0.5 1.5 1.9 3.4 3.3 4.3 1.4 0.8 3.6 2.5 5 3.8 1.4 1.2 3.1 2.2 3.7 2.2 0.7 0 1.5-1.1 1.8-2.5 0.3-1.3 1.2-3.1 2-4q1.5-1.5 1-5.2c-0.2-2.1-0.2-4.1 0-4.5 0.3-0.4 2 0.3 3.7 1.5 1.8 1.3 5.3 3.5 7.8 4.9 2.5 1.5 7.6 5.5 11.4 9 3.7 3.5 6.5 5.7 6.1 4.8-0.4-0.8-6.5-6.6-13.6-13-7.2-6.3-16.9-15.3-21.7-20-4.8-4.7-10.2-10.2-12-12.2-3.1-3.7-3.2-3.9-2.5-10.3 0.7-5.2 1.1-6.5 2.5-6.5 1 0 2-0.7 2.4-1.7 0.3-1.1 0.8-1.4 1.2-0.7 0.4 0.6 1.9 1.4 3.4 1.8 1.7 0.4 2.8 0.2 2.8-0.4 0-0.5-0.3-1.1-0.8-1.3-0.4-0.2-1-1.5-1.4-2.8-0.6-2-0.5-2.1 0.5-0.7 0.7 0.9 2 3.2 3 5 1 1.8 2 3 2.2 2.6 0.3-0.4-3-6.5-7.3-13.5-4.2-7-9.7-15.4-12.1-18.7-2.4-3.4-6.7-8.7-9.5-12-2.8-3.2-8.7-8.7-13.1-12.2-4.4-3.5-11.8-8.4-16.5-10.8-4.7-2.4-11.6-5.4-15.4-6.7-5.2-1.7-7.1-2-7.3-1.1-0.2 0.7-0.8 1.2-1.3 1.2-0.5 0-1.2-0.7-1.4-1.7-0.2-1-0.4-1.3-0.5-0.8zm-356.1 10.3l-6.5 6.7c10.5-10 13.5-13.1 13.5-13.2 0-0.1-0.1-0.3-0.3-0.3-0.1 0-3.2 3.1-6.7 6.8zm271.4 11.7c-3.2 1.2-9 3.8-12.9 5.8-3.8 1.9-12 6.6-18 10.3-6 3.7-14.1 8.5-18 10.7-3.8 2.2-12.2 7.4-18.5 11.5-7.2 4.7-14.5 10.5-19.6 15.6-6.3 6.3-8.9 10-12.2 16.6-2.3 4.7-4.4 9.9-4.7 11.5-0.3 1.8 0.3 0.9 1.3-2 1.1-2.7 2.9-6.9 4.1-9.2 1.1-2.3 4.1-6.7 6.6-9.8 2.5-3 6.4-7.1 8.7-9.2 2.3-2.1 6.4-5.4 9.2-7.4 2.8-2 10.7-6.8 17.6-10.6 10.5-5.8 13.5-7.1 18.8-7.6 5.4-0.6 6.7-0.4 10.5 1.8 2.3 1.3 4.9 3.1 5.7 4 0.8 0.9 1.8 1.6 2.3 1.6 0.4 0 1.6 0.8 2.7 1.9 1.1 1.1 2 2.4 2 2.8-0.1 0.4 0.8 1.6 1.9 2.7 1.2 1.1 2 2.3 2 2.5-0.1 0.3-0.1 1.3 0 2.3 0.1 1.5 0.4 1.6 2.4 0.4 1.2-0.8 4.8-2.5 8-3.8 4.1-1.6 7-3.7 9.6-6.9 2.1-2.4 4.5-5.7 5.4-7.2 0.9-1.5 1.5-2.8 1.2-2.8-0.3 0 0.2-1.6 1.1-3.7 0.9-2.1 1.8-5 2-6.5 0.2-1.5-0.3-4.4-1.1-6.5-0.9-2.1-1.8-4.9-2.1-6.3-0.3-1.3-0.6-3-0.7-3.6-0.1-0.6-1.3-0.9-2.7-0.7-1.4 0.3-2.7 0.7-3 0.9-0.3 0.2-1.2 0-2.1-0.4-0.9-0.5-3.8 0-7.5 1.3zm51.4 34.8c-3 1.8-3.4 2.3-1.8 2.5 1.1 0.1 2 0.6 2 1 0 0.4 2.5-0.4 5.5-1.8 3.1-1.3 5.5-2.8 5.5-3.2 0-0.4-1.7-0.7-3.7-0.7-2.1 0-5.5 1-7.5 2.2z"/><path class="p" d="m924.9 940.3c-2.6 1.8-6.8 4.8-9.4 6.7-2.5 1.9-7.2 5.5-10.3 8-3.1 2.5-6.7 6-7.9 7.8-1.3 1.8-2.8 5.8-3.3 9-0.6 3.1-1.6 6.3-2.3 7.1-0.6 0.7-4.6 3-8.7 4.9-4.1 2-8.6 3.8-10 4-1.4 0.2-3.3 0.8-4.2 1.3-1.2 0.6-2 2.6-2.4 6.2-0.4 2.8-0.4 5.9-0.2 6.7 0.3 0.8 0.8-0.9 1.2-3.7l0.6-5.3c5.9 4.2 7.7 4.8 9.3 4.4 1.2-0.4 5.5-0.7 9.5-0.8 5.3-0.1 7.5-0.5 8.2-1.6 0.7-1.1 1.1-0.3 1.7 3 0.7 4 0.8 3.3 1.4-6 0.3-5.8 1.1-12.2 1.7-14.2 0.9-2.7 2.6-4.8 6-7.2 2.6-1.9 9.3-5.6 14.9-8.3 5.6-2.6 10-5 9.8-5.3-0.2-0.3 1.4-1.5 3.5-2.7 2.2-1.3 4.6-2.3 5.3-2.3 0.6 0.1-0.8 1.2-3.3 2.5-2.5 1.3-4 2.4-3.5 2.4 0.5 0 3.9-1.5 7.5-3.4 3.6-1.9 6-3.4 5.5-3.4-0.5-0.1-0.1-0.7 1-1.6 1.1-0.8 2.5-1.5 3-1.5 0.5 0 0.1 0.7-1 1.5-1.9 1.4-1.8 1.4 0.7 0.3 1.5-0.7 2.6-1.7 2.5-2.1-0.1-0.5 0.7-1.4 1.7-2 1.1-0.7 2.9-2 4-2.9 2.1-1.7 2-1.7-1.2-1.5-1.9 0.1-3.5 0-3.7-0.3-0.2-0.3-2.3-0.4-4.7-0.3-2.3 0.2-5.5 0.4-7 0.5-1.5 0.2-2.8 0-2.8-0.4 0-0.5-1.2-0.5-2.7-0.2-1.6 0.3-3.1 0.7-3.5 1-0.5 0.2-0.7-0.5-0.5-1.6 0.2-1.1-0.1-2-0.7-2-0.6 0.1-3.2 1.5-5.7 3.3zm222.3 71.8c0.1 0.8-0.6 3-1.5 4.9-0.8 1.9-2.1 5.8-2.7 8.5-0.7 2.8-2 7.5-3 10.5-1 3-2.6 8.7-3.5 12.5-0.9 3.8-1.5 8.1-1.2 9.5l0.4 2.5c0.2-3.9 0.9-6.7 1.8-8.7 0.8-2.1 3.4-6.2 5.8-9 2.4-2.9 5-6.4 5.9-7.8 0.9-1.4 1.9-5 2.2-8 0.4-3.3 0.1-7.5-0.6-10.4-0.7-2.7-1.8-5.1-2.5-5.4-0.6-0.2-1.1 0.2-1.1 0.9zm-279.1 14.2c-0.1 0.4 1.7 8.7 4 18.5 3.5 15.2 4 18.7 3.5 25-0.3 3.9-1.1 8.3-1.6 9.7-0.5 1.4-1.3 2.3-1.7 2.1-0.5-0.3-2 0.3-3.5 1.2-1.5 0.9-5.9 5.3-9.8 9.7-4.5 5.1-7.5 9.4-8.3 12-0.8 3-0.8 5.3 0.1 9.5 0.8 3.4 2.3 6.6 4 8.3 1.5 1.6 3.9 3.5 5.5 4.3 1.5 0.8 6 1.5 10 1.7 5.8 0.2 8.6-0.3 14.7-2.6 4.1-1.5 8.5-3.6 9.8-4.5 1.3-0.9 2.4-2.8 2.4-4.2 0.1-1.4-0.3-3.4-0.8-4.5-0.7-1.6-0.6-1.8 0.6-1.2 0.8 0.5 0.2-0.4-1.5-1.9-1.6-1.5-3-3.2-3.1-3.8-0.1-0.6-0.2-1.7-0.2-2.3-0.1-0.8-0.7-1-1.4-0.5q-1.3 0.7-0.5-0.5c0.4-0.7 0-2.6-0.8-4.3-0.8-1.7-1.2-3.5-0.7-4.1 0.4-0.6 0.2-1.4-0.4-1.8-0.6-0.3-2.6-7.1-4.4-15.1-1.9-8-4.8-20.8-6.7-28.5-1.8-7.7-3-11.7-2.7-9 0.3 2.8 0.8 5.9 1.1 7 0.4 1.1 0.3 1.7-0.3 1.4-0.5-0.4-2-4.4-3.3-9-1.3-4.6-2.7-9.5-3.1-10.9-0.5-1.4-0.9-2.2-0.9-1.7zm311.3 65.2c-3.2 6.4-4.8 8.5-8 10.2-2.1 1.2-7.3 2.7-11.4 3.2-4.1 0.6-9.5 1.3-12 1.6-2.5 0.2-6.5 1-9 1.6-2.5 0.6-5.5 1-6.7 1-1.3-0.1-2.3 0.5-2.3 1.2q0 1.2-1-0.3-1-1.5-1-0.2 0 1.2-2.1 0.5c-1.5-0.6-2.4-0.3-3 1-0.5 0.9-1.6 1.7-2.4 1.7-0.8 0-1.6-1-1.7-2.2-0.2-1.5-1.3 0.4-2.9 5.2-1.5 4.1-3.6 10.9-4.7 15-1.2 4.1-2.4 8.4-2.7 9.5-0.4 1.6-0.3 1.6 0.7-0.3 0.7-1.2 1.9-2.5 2.6-2.7 0.6-0.3 1.5 0.4 2 1.5 0.4 1.1 1.8 2.3 3.2 2.5 1.4 0.3 4.3 0.3 6.5-0.1 2.2-0.3 5.1-0.5 6.5-0.5 1.4 0 3.5 1.2 4.8 2.6 1.2 1.4 2.7 2.5 3.2 2.5 0.5 0 1 1 1 2.3 0 1.2 0 3.3 0 4.7-0.1 2 1.2 0.9 7-6.5 3.9-4.9 11.6-15.7 17.2-24 5.6-8.2 12.6-20.1 15.5-26.2 2.9-6.2 5.2-11.6 5.1-12-0.2-0.5-2.1 2.8-4.4 7.2zm-354.4 20.3c0 1.3-1.2 3.1-2.7 4.3-2.8 2-2.8 2.2-2 9.2 0.4 4 1.9 10.7 3.2 15 1.4 4.2 2.7 7.7 3 7.7 0.3 0 0.4-1.5 0.3-3.2 0-1.8 0.6-6.6 1.5-10.5 1.6-7 1.6-7.6-0.4-15.5-1.1-4.6-2.3-8.5-2.5-8.8-0.3-0.3-0.4 0.5-0.4 1.8zm273.5 87.7c-3.3 3-6.2 5.3-6.5 5-0.3-0.2-2.2 0.9-4.2 2.5-2.1 1.7-4.4 3-5.1 3-0.7 0-1.8 0.6-2.5 1.3-0.7 0.6-1.2 0.9-1.2 0.5 0-0.5-1-0.3-2.2 0.4-1.3 0.6-7 2.4-12.8 4-5.8 1.6-17 4-25 5.3-10.5 1.8-18.2 2.5-28 2.5-8.9 0-17.6-0.7-25.5-2-6.6-1.1-17.4-2.3-24-2.7-6.7-0.3-12.8-0.2-13.7 0.3-1.3 0.6 4.1 2.2 19.5 5.6 11.6 2.6 24.6 5.2 28.7 5.9 4.4 0.7 12.9 0.9 20.5 0.6 9-0.3 16.4-1.2 24-3 6-1.5 14.2-3.6 18-4.8 3.8-1.1 10.6-3.8 15-5.9 4.4-2.1 11.6-6.5 16-9.8 4.4-3.3 9.8-7.8 11.9-10.1 2.2-2.2 3.8-4.1 3.5-4.1-0.2 0.1-3.1 2.5-6.4 5.5z"/><path class="q" d="m922.5 898c-3.5 0.4-8.6 2.7-17 7.4-6.6 3.8-14.3 8.5-17.1 10.5-2.8 2-6.9 5.3-9.2 7.3-2.3 2.1-6.2 6.3-8.7 9.3-2.5 3-5.6 7.6-6.9 10.3-1.3 2.6-3.3 7.6-4.4 11.2-1 3.6-2.3 9-2.6 12-0.4 3-0.2 9.3 0.4 14 0.7 4.7 3 14.1 5.1 21 2.2 6.9 4.2 12.7 4.4 13 0.3 0.3 0.4-4.7 0.2-11.1-0.1-7.3 0.2-12.1 0.9-13 0.6-0.8 1.7-3.6 2.5-6.3 0.8-2.6 3-6.6 4.9-8.9 1.9-2.2 6.6-5.8 10.3-8.1 3.8-2.3 8.5-5.1 10.5-6.3 2-1.2 5.3-3.1 7.2-4.2 1.9-1.2 4.8-3.1 6.4-4.4 1.7-1.2 6.2-4.6 10-7.4 3.9-2.9 9.1-6.7 11.4-8.5 2.4-1.8 8.2-6.3 12.8-10.1 7-5.6 8.4-7.1 8.1-9.3-0.1-1.4-1-3.3-2-4.2-1-0.9-1.8-2-1.7-2.5 0-0.4-0.9-1.6-2-2.7-1.1-1.1-2.3-2-2.8-2-0.4 0.1-1.4-0.6-2.2-1.5-0.8-0.9-3.5-2.8-6-4.1-2.5-1.4-5.2-2.4-6-2.3-0.8 0.1-3.8 0.5-6.5 0.9zm214.2 67.7c-0.3 0.4-0.4 2.5-0.2 4.5 0.3 2.4 0 4.3-0.8 5-0.8 0.7-1.8 2.7-2.4 4.3-0.8 2.6-0.5 3.7 2 8 1.6 2.7 3.7 6.1 4.7 7.5 1 1.4 3.6 6.1 5.9 10.5 2.3 4.4 4.1 8.6 4.1 9.2 0 0.7 0.7 1.3 1.5 1.3 0.8 0 1.5 0.6 1.5 1.2 0 1 0.9 1.1 3.5 0.5 2.8-0.5 3.5-0.4 3.5 0.8 0 1.1 1.1 1.5 4 1.5 2.3 0 4.2-0.5 4.5-1.3 0.2-0.6 0.1 0.2-0.2 1.8-0.5 2.2-0.4 2.8 0.5 2.2 0.7-0.4 1.2-1.6 1.2-2.7 0-1.6 0.5-1.9 2.5-1.5 1.6 0.3 2.5 0.1 2.5-0.8 0-0.6 1-1.3 2.2-1.5 1.3-0.2 2.9-0.4 3.6-0.5 0.6-0.1 1.2-0.5 1.2-1 0-0.4 0.2-1.3 0.3-2 0.2-0.6-1.2-4.1-3.1-7.7-1.9-3.6-5.4-9.3-7.8-12.8-2.4-3.4-4.6-6.2-4.9-6.2-0.3 0-0.2 0.6 0.2 1.2 0.4 0.7-2.7-1.8-6.8-5.6-4-3.7-9.4-8-11.9-9.4-2.5-1.4-5.9-3.6-7.6-4.9-1.7-1.3-3.4-2-3.7-1.6z"/><path class="r" d="m899.9 957.8c-1.3 1.1-3.6 2.5-5.1 3.3-1.5 0.8-5.9 3.3-9.8 5.7-3.8 2.3-8.4 5.9-10.1 8-1.7 2-3.7 5.5-4.5 7.7-0.7 2.2-1.4 4.6-1.4 5.3 0 0.9 0.7 1 3 0.2 1.6-0.5 3.3-1 3.8-1.1 0.4 0 3.9-1.5 7.7-3.4 3.9-1.8 7.6-3.9 8.2-4.6 0.7-0.8 1.7-4.1 2.3-7.4 0.6-3.3 1.6-6.7 2.2-7.5 0.7-0.8 2.5-3 4.2-4.7 1.6-1.8 2.7-3.3 2.4-3.3-0.3 0-1.6 0.8-2.9 1.8zm-33.1 54.5c-0.5 3.2 0.1 7.2 2.7 17.2 1.9 7.2 3.9 14.3 4.5 16 0.5 1.7 1.2 2.8 1.4 2.5 0.2-0.3-0.2-3.9-0.9-8-0.7-4.1-2.5-12.9-4-19.5-1.5-6.6-2.8-12.1-2.8-12.2-0.1-0.1-0.5 1.7-0.9 4zm315.2 0.2c0.2 0.5 0.2 1.5 0.1 2 0 0.5-1.1 1.1-2.3 1.3-1.3 0.2-2.9 0.4-3.5 0.5-0.7 0.1-1.3 0.8-1.3 1.5 0 0.7-0.9 1-2.5 0.7-2-0.4-2.5-0.1-2.5 1.5 0 1.1-0.5 2.3-1.2 2.8-0.9 0.5-1-0.1-0.5-2.3 0.3-1.6 0.4-2.4 0.2-1.7-0.3 0.7-2.2 1.2-4.5 1.2-2.9 0-4-0.4-4-1.5 0-1.2-0.7-1.3-3.5-0.7-2.6 0.5-3.5 0.4-3.5-0.5 0-0.7-0.3-1.3-0.7-1.3-0.5 0-0.8 3.5-0.8 7.7-0.1 5.9-0.5 8.5-2 10.8-1 1.7-3.8 5.4-6.2 8.3-2.4 2.8-4.9 6.7-5.6 8.5-0.8 1.7-1.9 6.8-2.7 11.2-0.7 4.4-2.3 10.9-3.5 14.5-1.3 3.6-4.6 12.2-7.4 19.3-2.8 7-5.1 13.6-5.1 14.7 0 1.1 0.7 2 1.5 2 0.8 0 1.9-0.8 2.4-1.7 0.6-1.3 1.5-1.6 3-1q2.1 0.7 2.1-0.5 0-1.3 1 0.2 1 1.5 1 0.3c0-0.7 1-1.3 2.3-1.2 1.2 0 4.5-0.5 7.2-1.1 2.8-0.7 5.9-1.4 7-1.5 1.1-0.1 5.5-0.6 9.9-1.1 4.3-0.5 8.1-1.3 8.5-1.8 0.3-0.4-0.1-1.2-0.9-1.6-0.8-0.4-1.2-1.3-0.7-1.9 0.5-0.8-1.1-0.9-5.5-0.5-4.1 0.4-6.8 1.2-7.8 2.4-0.8 1-3.6 2.2-6.2 2.9-2.7 0.6-5.9 0.9-7.3 0.6q-2.5-0.5-2-2c0.3-0.8-0.2-2.2-1-3-1.2-1.2-1.3-2-0.4-3.7 0.8-1.8 0.8-2.5-0.3-3-1-0.5-1-1 0.4-2.5 1.2-1.2 1.4-2.3 0.8-3.3-0.6-1-0.3-2.1 1-3.5 1-1.1 1.9-2.3 1.9-2.7 0.1-0.5 0.1-1.3 0.1-1.8 0-0.5 3.3-4.3 7.3-8.4 7.1-7.3 7.2-7.4 10-6 2.4 1.3 2.8 1.2 3.6-0.3 0.7-1.5 1.2-1.6 2.3-0.6 1.1 1.1 2.1-0.4 5.9-8 2.6-5 5-10 5.3-10.9 0.3-1 1.1-1.6 1.6-1.3 0.5 0.3 1 1.3 1 2.3-0.1 0.9 1.4-0.5 3.3-3.3 1.8-2.7 4.1-7.2 5-10 1-2.7 1.8-5.9 1.8-7 0-1.2 0.7-0.3 1.7 2.3 0.9 2.3 2 4.2 2.5 4.2 0.4 0 0.4-1.5 0.1-3.2-0.3-1.8-1.5-6.2-2.7-9.8-1.1-3.6-2.4-6.9-2.9-7.5q-0.9-1-0.8 0zm-360.3 86.8c0.1 1.8-0.3 6.4-0.8 10.2-0.6 3.8-0.7 7.2-0.4 7.5 0.3 0.3 1.5-0.4 2.6-1.5 1.9-1.9 2-2.4 0.8-10-0.6-4.4-1.4-8.3-1.8-8.7-0.3-0.4-0.5 0.8-0.4 2.5z"/><path class="s" d="m1182 1034.3c-0.7 2.3-2.8 6.5-4.7 9.2-1.9 2.8-3.4 4.2-3.3 3.3 0-1-0.5-2-1-2.3-0.5-0.3-1.3 0.3-1.6 1.3-0.3 0.9-2.6 5.9-5 11l-4.4 9.2c5 4.6 7.3 6 8.3 6 0.9 0 2.6-1 3.7-2.2 1.1-1.3 2-2.6 2-3 0-0.5 0.7-1.5 1.5-2.3 0.8-0.8 2.4-4.8 3.6-8.7 1.1-4 2.3-11.5 2.6-16.5 0.3-5.1 0.3-9.3 0-9.3-0.2 0-1 1.9-1.7 4.3zm-173.5 198.4c1.6 0.2 4.8 0.2 7 0 2.2-0.2 0.9-0.4-3-0.4-3.9 0-5.6 0.2-4 0.4z"/><path class="t" d="m538.5 671.3l-10 10.2c15.9-15.5 20.5-20.1 20.5-20.2 0-0.2-0.1-0.3-0.3-0.3-0.1 0-4.7 4.6-10.2 10.3zm-40.5 10.5l-11.5 11.7c18.2-17.8 23.5-23.1 23.5-23.2 0-0.2-0.1-0.3-0.3-0.3-0.1 0-5.4 5.3-11.7 11.8zm17 43.7c8.5 8.5 15.7 15.5 16 15.5 0.3 0-6.4-7-14.7-15.5-8.4-8.5-15.6-15.5-16-15.5-0.5 0 6.2 7 14.7 15.5zm798 0c-4.1 4.1-7.3 7.5-7 7.5 0.3 0 3.9-3.4 8-7.5 4.1-4.1 7.2-7.5 6.9-7.5-0.2 0-3.8 3.4-7.9 7.5zm-810 22.8c5.8 5.9 10.6 10.7 10.7 10.7 0.2 0 0.3-0.1 0.3-0.2 0-0.2-4.8-5-10.7-10.8l-10.8-10.5zm58 6.5l-8.5 8.7c13.6-13.1 17.5-17.1 17.5-17.2 0-0.1-0.1-0.3-0.3-0.3-0.1 0-4.1 4-8.7 8.8zm25 5l-10.5 10.7c16.7-16.2 21.5-21.1 21.5-21.2 0-0.1-0.1-0.3-0.3-0.3-0.1 0-5 4.9-10.7 10.8zm719.5 8.5l-9 9.2c14.3-13.9 18.5-18.1 18.5-18.2 0-0.1-0.1-0.3-0.3-0.3-0.1 0-4.3 4.2-9.2 9.3zm-715.5 31.2c6.3 6.4 11.7 11.6 12 11.6 0.3 0-4.5-5.2-10.7-11.6-6.2-6.3-11.6-11.5-12-11.5-0.4 0 4.4 5.2 10.7 11.5zm104 14.3l-11.5 11.7c18.2-17.8 23.5-23.1 23.5-23.2 0-0.1-0.1-0.3-0.3-0.3-0.1 0-5.4 5.3-11.7 11.8zm707.5 5.5l-9 9.2c14.3-13.9 18.5-18.1 18.5-18.2 0-0.1-0.1-0.3-0.3-0.3-0.1 0-4.3 4.2-9.2 9.3zm-738 3l-10 10.2c15.9-15.5 20.5-20.1 20.5-20.2 0-0.1-0.1-0.3-0.3-0.3-0.1 0-4.7 4.7-10.2 10.3zm-82 3.7c6 6.1 11.2 11.1 11.5 11.1 0.3 0-4.3-5-10.2-11.1-5.9-6-11.1-11-11.5-11-0.4 0 4.2 5 10.2 11zm50.5-2.2l-8.5 8.7c13.6-13.1 17.5-17.1 17.5-17.2 0-0.1-0.1-0.3-0.3-0.3-0.1 0-4.1 4-8.7 8.8zm81 14l-11.5 11.7c18.2-17.8 23.5-23.1 23.5-23.2 0-0.1-0.1-0.3-0.3-0.3-0.1 0-5.4 5.3-11.7 11.8zm635-1.2c-4.1 4.1-7.3 7.5-7 7.5 0.3 0 3.9-3.4 8-7.5 4.1-4.2 7.2-7.6 6.9-7.6-0.2 0-3.8 3.4-7.9 7.6zm-726.5 50.4l-8 8.1 9 8.4-8-8.5c12.4-12.4 15.7-16 15.5-16-0.3 0-4.1 3.6-8.5 8zm20.5 22.8l-6.5 6.7c10.5-10 13.5-13.1 13.5-13.2 0-0.1-0.1-0.3-0.3-0.3-0.1 0-3.2 3.1-6.7 6.8zm167.3 79.2c0 4.7 0.2 6.5 0.4 4 0.2-2.4 0.2-6.3 0-8.5-0.2-2.2-0.4-0.1-0.4 4.5zm374.4 47.5c-0.4 7.9-1.3 14.6-2.7 19.5-1.2 4.2-2.5 7.8-2.9 8-0.4 0.3-1.6 2-2.7 3.8-1 1.9-2.9 3.5-4.1 3.8-1.6 0.3-3.8-0.8-7.4-3.8-4.5-3.8-5.2-4.1-6-2.5-0.8 1.6-1.2 1.6-3.6 0.3-2.8-1.3-2.9-1.2-10 6-4 4.1-7.3 7.9-7.3 8.4 0 0.6 0.1 1.2 0.3 1.5 0.1 0.2-0.8 1.4-2 2.7-1.5 1.6-1.9 2.8-1.3 3.8 0.6 1.1 0.4 2.1-0.8 3.4-1.4 1.4-1.4 1.9-0.4 2.5 1.1 0.5 1.1 1.2 0.3 2.9-0.9 1.8-0.8 2.6 0.4 3.7 0.8 0.9 1.3 2.2 1 3q-0.5 1.5 2 2c1.4 0.3 4.6 0 7.3-0.6 2.6-0.6 5.4-1.9 6.2-2.9 1-1.1 3.7-1.9 7.8-2.3 4-0.4 6-0.3 5.7 0.3-0.3 0.6 0.2 1.8 1.1 2.8 1.6 1.7 1.9 1.6 6.2-0.8 3.9-2.1 5.3-3.7 8.9-10.7 2.4-4.5 4.3-7.7 4.4-7 0 0.7 0.4 0.2 1-1 0.5-1.2 0.7-2.7 0.4-3.3-0.3-0.5-0.2-1 0.3-0.9 0.4 0 1.5-3.3 2.5-7.3 1.1-4 2.1-12 2.4-17.8 0.3-5.7 0.3-12.1-0.1-14.2-0.3-2.1-1.1-3.5-1.6-3.3q-1 0.5 0-1.5c0.5-1.1 1-2.3 1-2.7 0.1-0.4-0.6-0.1-1.5 0.7-1.4 1.4-1.6 1.4-1.5 0 0-0.8-0.6-3-1.4-5-1.3-3.3-1.4-3-1.9 8.5zm-365.1 59.5c-0.5 8.6-0.5 18.9 0 23l0.8 7.5c1.2-13.9 1.7-20.9 1.9-24.5 0.2-3.5-0.2-9.8-0.8-14l-1.1-7.5z"/><path class="a" d="m990.5 937c-12.1 2.1-23.8 4.4-26 5.1-2.2 0.7-9.4 4-16 7.2-6.6 3.3-18.3 9-26 12.7-7.7 3.7-15.5 8-17.4 9.6-1.9 1.6-4 4.3-4.7 5.9-0.6 1.6-1.5 7-1.8 12-0.4 5-1.3 16.9-2.2 26.5-0.8 9.6-1.9 21.5-2.5 26.5-0.6 5-2.2 16.9-3.6 26.5-2.2 15.2-2.4 18.3-1.4 24 0.7 3.6 2.5 8.9 4.1 11.8 1.7 2.8 4.2 6.1 5.7 7.1 1.6 1 8.9 3.6 16.3 5.6 7.4 2.1 18.9 5.5 25.5 7.7 6.6 2.2 16 5.6 21 7.5 5 1.9 14.4 5.8 21 8.5 6.6 2.8 18.3 8 26 11.6 7.7 3.6 15.6 6.7 17.5 7 1.9 0.2 4.5 0 5.7-0.7 1.3-0.6 4.3-4.4 6.6-8.3 2.4-4 8.5-14.3 13.4-22.8 5-8.5 12.3-20.5 16.3-26.5 4-6 12.4-17.7 18.6-26 6.3-8.2 14.1-18.3 17.4-22.2 3.8-4.6 6.4-8.9 7.1-11.5 0.6-2.4 0.8-6.1 0.4-8.3-0.3-2.2-1.5-6-2.7-8.5-1.3-3-7.3-9.9-17.6-20.5-8.7-8.8-21.6-22.8-28.7-31-7.2-8.3-16.4-19.3-20.7-24.5-4.2-5.2-9-10.9-10.8-12.5-2.9-2.7-3.8-3-10.8-3.2-5.3-0.1-14.7 1-29.7 3.7z"/><path class="j" d="m982.5 915.5c-2.8 1.4-7.1 4.4-9.7 6.7-2.7 2.5-4.4 4.8-4 5.5 0.5 0.9 1.9 0.9 4.9 0.2 2.4-0.5 6.1-2.1 8.3-3.7 2.3-1.5 3.9-3.2 3.7-3.7-0.2-0.5 0.2-2.5 0.9-4.3 0.7-1.7 1.1-3.2 1.1-3.2-0.1 0-2.5 1.1-5.2 2.5z"/><path class="a" d="m1186 666.2c-1.9 0.5-4.8 2.2-6.3 3.6-1.6 1.5-4.1 4.9-5.5 7.7-2.2 4.1-2.6 6.3-2.7 12.5 0 5.8 0.5 8.5 2.3 11.7 1.2 2.4 4.1 6.1 6.5 8.4 2.3 2.2 6.9 5.3 10.2 7 3.3 1.6 8.5 3.4 11.5 4 4 0.8 7.2 0.8 12 0 3.6-0.6 9.2-2.4 12.5-4 3.3-1.6 8.2-5.1 10.9-7.8 2.6-2.6 6.8-8.2 9.2-12.3 2.4-4.1 4.4-8 4.4-8.5 0-0.5-6.1-4-13.7-7.7-7.6-3.7-17.8-8.3-22.8-10.2-5-1.9-11.9-3.9-15.5-4.5-3.6-0.6-7.2-1-8-1-0.8 0-3.1 0.5-5 1.1zm271.5 197.9c-4.4 1.1-12 4.1-17 6.7-5.9 3.1-11.4 6.9-15.8 11.2-5.1 4.8-7.8 8.4-10.5 14-3.1 6.3-3.7 8.8-4.1 15.5-0.2 5.6 0.2 9.8 1.4 14 0.9 3.3 2.7 8 4 10.5 1.2 2.5 4.7 7.1 7.6 10.3 3.5 3.8 7.5 6.9 11.4 8.8 3.3 1.6 9 3.3 12.8 3.9 4.7 0.7 9 0.7 14.5-0.1 4.2-0.6 11.1-2.4 15.2-4 4.1-1.6 10.4-4.6 13.9-6.6 3.5-2.1 8.9-6.3 12-9.3 3.1-3.1 6.8-7.8 8.3-10.5 1.5-2.8 3.4-7.9 4.4-11.5 1.1-4.4 1.4-8.3 1-12-0.4-3-1.5-8.2-2.6-11.5-1.1-3.3-3.8-8.8-6-12.3-2.2-3.4-6.1-7.9-8.8-10-2.6-2.1-7.4-4.8-10.7-6.1-3.9-1.5-8.9-2.4-14.5-2.7-6.4-0.3-10.5 0.1-16.5 1.7zm-1020.5 2.7c-3 1-8.4 3.4-11.9 5.3-4 2.1-8.9 6.1-13.2 10.6-3.8 4-8.8 10.6-11.2 14.6-2.3 4-8.3 17.3-13.2 29.5-4.9 12.2-8.8 22.3-8.5 22.5 0.3 0.3 30.9 12.7 68 27.7 37.1 15 68.4 27.5 69.5 27.7 1.8 0.4 3-2.1 10.4-20.9 4.6-11.7 9.5-25.6 10.8-30.8 2.1-8.1 2.4-11.2 2-21-0.3-8.5-1-13.1-2.6-17.5-1.2-3.3-3.8-8.5-5.8-11.5-2-3-6.2-8-9.4-11-3.2-3-8.8-7.3-12.6-9.6-3.7-2.2-10.4-5.7-14.8-7.7-4.4-2-12.1-4.8-17-6.3-7.2-2.1-11.6-2.7-22-3-10.7-0.3-14-0.1-18.5 1.4zm1078.2 174.8c-0.1 1 1.9 21 4.3 44.4 2.4 23.4 4.6 42.6 4.7 42.8 0.2 0.1 3.5-0.4 7.3-1.3 3.8-0.8 9.7-2.8 13-4.4 3.3-1.6 8.2-4.9 10.9-7.3 3-2.7 6-6.7 8-10.8 2.8-5.9 3.1-7.3 3.1-16.5 0-5.6-0.6-12.2-1.4-15-0.8-2.8-2.5-7.1-3.8-9.8-1.2-2.6-4-6.5-6.1-8.8-2-2.2-5.7-5.4-8.2-6.9-2.5-1.6-7.2-3.9-10.5-5-3.3-1.1-9.4-2.4-13.6-2.7-7-0.5-7.6-0.4-7.7 1.3z"/></svg>