<svg version="1.2" xmlns="http://www.w3.org/2000/svg" viewBox="0 0 2000 2000" width="2000" height="2000"><style>.a{fill:#fff}.b{fill:#100000}.c{fill:#00c1a4}.d{fill:#00c4ab}.e{fill:#00d6bf}.f{fill:#00d6ca}.g{fill:#66e2a3}.h{fill:#8cd296}.i{fill:#65dcd8}.j{fill:#6eddd8}.k{fill:#98d69a}.l{fill:#7adddb}.m{fill:#83dddb}.n{fill:#a7da9e}.o{fill:#8cdddc}.p{fill:#92e6e3}.q{fill:#c0e6c7}.r{fill:#bef2dd}.s{fill:#c2f4e2}.t{fill:#bef6ea}</style><path class="a" d="m0 1000v1000h2000v-2000h-2000z"/><path class="b" d="m444.5 825.1c-3.9 0.5-11.1 2.3-16 4-4.9 1.7-12.5 5.1-16.8 7.7-4.3 2.6-11.3 7.9-15.5 11.8-4.2 3.9-10.3 10.7-13.4 15-3.1 4.3-8.2 12.6-11.2 18.4-3 5.8-11.4 25.1-18.7 43-11.8 28.9-13.3 33.2-13.3 38.6-0.1 4.9 0.4 6.7 2.4 9.7 1.4 2 4.5 4.7 7 6.1 2.5 1.3 41.4 17.3 86.5 35.4 45.1 18.1 83.8 33.3 86 33.7 3 0.5 5.2 0.2 8.5-1.3 2.5-1 5.5-3 6.7-4.3 1.3-1.3 7.3-14.6 13.3-29.4 6.1-14.9 13.1-32.4 15.5-39 2.4-6.6 5.4-16.7 6.7-22.5 1.9-8.7 2.3-13.2 2.2-26-0.1-12.7-0.5-17-2.3-23.5-1.2-4.4-3.4-10.7-4.8-14-1.5-3.3-4.7-9.1-7.3-13-2.5-3.8-7.6-10.1-11.5-14-3.9-3.9-10.8-9.5-15.5-12.6-4.7-3.1-11.9-7.4-16-9.4-4.1-2.1-12.9-5.5-19.5-7.7-6.6-2.2-15.1-4.6-19-5.3-3.9-0.8-11.5-1.6-17-1.9-5.5-0.2-13.1 0-17 0.5zm-115 248.8c-2.2 1-4.8 2.7-5.7 3.7-0.9 1-2.4 3.6-3.2 5.6-0.9 2.1-1.6 6.2-1.6 9 0 3.5 0.8 6.8 2.3 9.7 1.2 2.4 3.6 5.2 5.2 6.1 1.6 1 4.6 2.1 6.5 2.5 1.9 0.3 36.4 2.3 76.5 4.5 58.1 3.1 73.9 4.2 77.5 5.5 2.5 0.9 6.1 2.9 8 4.4 1.9 1.5 4.6 5 5.9 7.7 1.9 3.9 2.5 7.3 3.1 16.4 0.4 6.3 1.4 12.8 2.1 14.3 0.8 1.6 3 3.9 4.9 5 2.5 1.5 5.2 2.2 9.2 2.2 4.2 0 6.4-0.5 8.5-2.1 1.5-1.1 3.8-3.6 5.1-5.5 2.1-3.1 2.3-4.5 2.2-16.7 0-7.9-0.6-16.3-1.6-21-0.8-4.2-3.3-11.3-5.4-15.7-2.9-6.1-5.3-9.5-10.4-14.3-3.6-3.4-8.7-7.3-11.3-8.6-2.7-1.3-7.3-3.1-10.3-4-3-0.9-9.1-2.1-13.5-2.6-4.4-0.6-39.1-2.6-77-4.5-37.9-1.9-69.9-3.5-71-3.5-1.1 0-3.8 0.9-6 1.9z"/><path class="c" d="m1100.5 1059.4c-1.9 2-3.3 4.2-3 4.8 0.3 0.7 3.2 2.6 6.6 4.3 4.3 2.1 7.7 3 11 3 2.9 0 5.5-0.6 6.5-1.5 0.9-0.8 1.3-2.1 1-2.8-0.3-0.6-1.1-1-1.6-0.7-0.5 0.3-1.9-0.4-3-1.5-1.1-1.1-2-2.5-2-3 0-0.6-1.7-1.8-3.7-2.9-2.1-1-4.8-2.2-6-2.6-1.8-0.5-3 0.1-5.8 2.9z"/><path class="d" d="m1107.2 1050.5c-3.2 4.1-4.5 6.3-3.5 6 1-0.2 4.2 0.7 7 2 2.9 1.4 5.3 3 5.3 3.5 0 0.5 0.9 1.9 2 3 1.1 1.1 2.5 1.8 3 1.5 0.5-0.3 1.3 0.1 1.6 0.8 0.3 0.6-0.1 1.9-1 2.7-1 0.9-3.6 1.4-6.9 1.4-3.7 0-6.8-0.8-10.7-2.8-3-1.6-5.8-3.4-6.2-4-0.4-0.6-0.4-1.6 0-2.1 0.4-0.6-0.1-0.2-1 1-1 1.1-2.1 2.5-2.6 3-0.4 0.5-2.1 2.8-3.8 5-1.7 2.2-3.7 5.1-4.4 6.5-1.2 2.3-1 2.7 2.7 6 2.1 1.9 5.1 5.2 6.6 7.3 2 2.7 3.9 4 7.4 5 2.9 0.9 6.8 1.2 9.8 0.8 4.2-0.5 5.3-1.1 7.3-4.1 1.2-1.9 3.6-6.7 5.2-10.5 1.6-3.8 3.6-9.7 4.4-13 0.9-3.3 1.6-8.5 1.5-11.5 0-3-0.4-6.4-0.8-7.5-0.8-1.9-0.8-1.9-1.5 0.2-0.3 1.3-1.2 2.3-1.9 2.3-0.6 0.1-3.9-2-7.2-4.5-3.3-2.5-6.3-4.5-6.6-4.5-0.3 0-2.9 2.9-5.7 6.5z"/><path class="e" d="m1026 922.5c0 0.8 0.5 1.8 1.1 2.3 0.8 0.4 1 2.1 0.5 4.5-0.6 3.5-0.4 3.8 2.9 5.2 2.4 1 5.7 4.5 10.8 11.1 3.9 5.3 9.9 12.8 13.2 16.8 3.3 4 9.4 11.2 13.5 15.9 4.1 4.7 7.6 8.1 7.8 7.6 0.1-0.5 1.1-0.9 2.2-0.9 1.5 0 2 0.7 2 2.5 0 1.4 0.1 2.5 0.3 2.5 0.1 0 1.7-0.4 3.5-1l3.2-1c-3.8-5-5-6.8-5-7.3 0-0.4-1.6-3.1-3.5-6-1.9-2.8-4.9-7.3-6.7-9.8-1.8-2.6-6.9-8.9-11.3-14-4.4-5.1-9.8-11.1-12.1-13.3-2.2-2.3-5.8-6.3-8-9-2.1-2.7-5.1-5.5-6.6-6.2-1.6-0.8-3.9-1.4-5.3-1.4-1.6 0-2.5 0.6-2.5 1.5zm85.2 101.2c-0.1 0.4 2.9 4.4 6.7 8.8 3.7 4.4 7.3 9 8 10.2 0.6 1.3 1.1 3.6 1.1 5.3 0 2.2-0.5 3-1.8 3-0.9 0-2.2-0.3-2.7-0.7-0.6-0.5-0.1 0 1 1 1.1 1 2.6 1.8 3.2 1.7 0.7 0 1.6-1 1.9-2.3 0.3-1.2 0.8-1.8 1.2-1.4 0.4 0.5 1 3.9 1.3 7.5l0.6 6.7c0.2-9.3-0.5-14.7-1.5-17.9-1-3.7-3.1-7.5-5.3-10-2-2.3-5.8-6.1-8.6-8.4-2.7-2.4-5-4-5.1-3.5zm-31.6 62c-4.2 6-5.2 8.2-4.5 9.5 0.5 1 1.4 1.8 1.9 1.8 0.5 0 4.6 3.4 9 7.5 4.4 4.1 9 7.7 10.2 7.9 1.3 0.3 4.3 0.7 6.8 1 4 0.5 4.9 0.2 8.1-2.7 2.4-2.1 5-6.3 7.8-12.5 2.2-5 4-9.4 3.8-9.7-0.1-0.3-0.8 0.7-1.4 2.2-0.7 1.6-2 3.5-3 4.4-1 0.9-3.8 1.9-6.3 2.1-2.5 0.3-6.6-0.1-9.3-0.9-3.6-1-5.4-2.2-7.8-5.6-1.7-2.3-4.6-5.5-6.5-7.2-2-1.7-3.3-3.6-3.1-4.3 0.2-0.6 0.3-1.2 0.1-1.2-0.2 0-2.8 3.5-5.8 7.7z"/><path class="f" d="m1018.9 924.3c-0.6 2.3-1.5 5-2 6-0.8 1.5-0.3 1.7 4.4 2 2.8 0.1 5.5-0.2 5.9-0.8 0.4-0.5 0.7-2.2 0.6-3.7 0-1.5-0.5-3-1.1-3.3-0.5-0.3-0.9-1.5-0.8-2.6 0.1-1.5-0.5-1.9-2.9-1.9-2.6 0-3.1 0.5-4.1 4.3zm57.1 61.7c0 0.5 1.5 2.7 3.3 4.7 1.7 2.1 9.5 10.3 17.2 18.2 7.7 8 14.3 14.4 14.8 14.3 0.4-0.1 4.5 3.5 9 8.1 7.5 7.3 8.6 8.9 10 14.2 0.9 3.3 1.7 8.3 1.7 11 0 2.8-0.7 7.7-1.6 11-0.8 3.3-3.3 10.5-5.4 16-2.1 5.5-5.3 13.2-7.1 17-1.8 4-4.8 8.4-6.8 10.2-3.2 2.9-4.1 3.2-8.1 2.7-2.5-0.3-5.5-0.7-6.7-1-1.3-0.2-5.6-3.4-9.7-7.1-4-3.8-8.5-7.8-10-9-2.4-2.2-2.7-2.2-4-0.5-0.7 0.9-3.8 5.5-6.8 10.2-3 4.7-8.8 14.3-13 21.5-4.2 7.2-9.5 16.4-11.9 20.5-2.3 4.1-5.5 8.7-7 10.3-1.9 1.9-3.8 2.7-6.1 2.7-1.8 0-8.1-2.3-14.3-5.2-6-2.8-12.9-5.9-15.2-6.9l-4.3-1.9c3.6 5 5 7.3 5.4 8.3 0.4 1-0.3 3-1.9 5.2-1.4 1.9-2.5 3.7-2.5 4 0 0.3 3.5 1.2 7.8 2.1 4.4 1 10 1.4 13.2 1.2 3-0.3 7.5-1.4 10-2.5 2.5-1 6.5-3.7 8.9-5.9 2.4-2.1 7.2-8.6 10.6-14.4 3.8-6.2 8.9-13 12.5-16.5l6-6c7.1 3.9 10.2 6.6 11.5 8.5 1.3 1.9 3.6 4.9 5.2 6.5 1.5 1.7 4.8 4.7 7.3 6.7 2.5 2.1 4.8 3.8 5.3 3.8 0.4 0 2.9-2.1 5.5-4.7 4.4-4.4 5.9-7.2 15.7-30.3 6-14 12.4-29.8 14.4-35 3.2-8.8 3.5-10.4 3.5-21 0.1-10.7-0.1-11.9-2.8-17.5-2.1-4.3-6.3-9.5-14.5-18-6.4-6.6-15.2-16.9-19.6-22.8-6.4-8.7-8.4-10.7-10-10.3-1.1 0.3-2.8 0.7-3.7 1-1.4 0.5-1.8 0-1.8-1.9 0-1.8-0.5-2.5-2-2.5-1.1 0-2 0.5-2 1zm-236.9 151.2c-0.1 0.2 0.5 2 1.4 4.1 1.2 3 1.4 5.9 0.8 15l-0.7 11.2c4.6 6.2 7.2 9.4 8.9 11.1 1.6 1.7 5.3 4.8 8 6.9 2.8 2.1 6.7 4.6 8.8 5.6 2 1.1 3.9 1.7 4.2 1.4 0.3-0.3 0-1.3-0.6-2.2-0.9-1.4-0.9-3.3 0-7.8 0.6-3.3 1.1-8 1.1-10.5 0-4.3-0.3-4.8-7.2-11-4-3.6-11.2-10.5-15.9-15.3-4.8-4.9-8.7-8.7-8.8-8.5z"/><path fill-rule="evenodd" class="g" d="m1028.1 468.2c3.9 0.2 6.3 0.9 7.8 2.3 1.2 1.1 2.7 3.6 3.2 5.5 0.8 2.8-0.2 12-4.8 44.2-3.2 22.4-5.7 40.8-5.5 40.8 0.1 0 2.6-2.3 5.5-5.1 2.8-2.8 7.9-6.4 11.2-8 3.3-1.6 9.4-3.7 13.5-4.6 5.5-1.1 10.2-1.4 17.5-1 6.6 0.3 12.7 1.4 18 3 4.4 1.4 10.7 4.4 14 6.5 3.3 2.2 7.2 5.5 8.6 7.3 1.5 1.9 3.8 5.7 5.2 8.4 1.4 2.8 3 7.7 3.7 11 0.7 3.3 1.2 10 1.2 15-0.1 5.5-2.5 25.9-6.1 52-3.4 23.6-6.6 44.7-7.1 46.8-0.6 2.1-2.2 4.6-3.7 5.7-1.8 1.4-4.3 2.1-7 2-2.4 0-5.6-0.7-7.3-1.5-1.7-0.8-3.4-2.4-4-3.5-0.5-1.1-1-4.1-1-6.7 0-2.7 2.7-23.9 6.1-47.3 5-34.7 6-44 5.5-50.5-0.4-5.7-1.3-9.5-3.1-13.2-1.6-3.5-4.1-6.5-7.2-8.8-2.7-2-7-4.3-9.8-5.3-3.6-1.2-8.2-1.7-16.5-1.7-9.6 0-12.4 0.4-17 2.2-3 1.2-8 4.4-11 7.1-3.1 2.8-6.9 7.4-8.7 10.8-1.8 3.2-3.9 8.2-4.7 10.9-0.8 2.8-4 22.8-7.1 44.5-3.5 24.5-6.3 40.8-7.3 43-1.3 2.8-2.7 3.8-6.2 4.9-3.9 1.1-5 1.1-8.7-0.3q-4.3-1.6-5.8-4.6c-0.8-1.6-1.5-4.2-1.5-5.7 0-1.6 6.3-46.9 14-100.8 7.7-53.9 14.2-98.8 14.5-99.8 0.3-0.9 1.7-2.6 3.3-3.8 2.2-1.7 3.8-2 8.3-1.7zm-113.6 71.9c7.8-0.1 14.1 0.5 18 1.5 3.3 0.9 8.3 2.6 11 3.9 2.8 1.3 6.1 3.6 7.5 5 1.8 1.9 2.5 3.8 2.5 6.5 0 2.7-0.7 4.6-2.5 6.4-1.8 1.9-3.5 2.6-6 2.6-1.9 0-4.6-0.6-6-1.3-1.4-0.7-4.7-2.1-7.5-3.1-2.7-0.9-8.4-1.9-12.5-2.3-5.2-0.4-9.8-0.1-15 1-4.1 0.9-10.2 3-13.5 4.6-3.6 1.8-8.1 5.2-11.2 8.5-2.9 3.1-6.6 8.4-8.3 11.8-1.9 4.1-3.4 9.3-4.1 14.8-0.8 6.4-0.8 10.7 0 17.5 0.7 5 1.9 11.7 2.7 15 0.8 3.3 3.2 9.6 5.3 14 2.6 5.4 5.8 10 9.7 14 3.4 3.5 8.2 7.2 11.4 8.7 3.3 1.6 8.8 3.1 13.8 3.7 6.6 0.9 9.7 0.8 16-0.4 4.2-0.9 10.4-2.9 13.7-4.4 3.3-1.6 8.7-5.4 12-8.3 3.3-3 7.1-5.8 8.5-6.2 1.6-0.5 3.6-0.3 5.4 0.6 1.6 0.7 3.5 2.5 4.2 4 0.8 1.6 1.4 4.3 1.4 6 0 2.8-1.2 4.4-7 10-5.2 5-9.3 7.9-15.7 11-4.9 2.3-11.9 5-15.8 6-3.8 1-10.4 2-14.5 2.4-4.1 0.3-11.1 0.1-15.5-0.5-4.4-0.7-10.7-2.3-14-3.6-3.3-1.4-8.4-4-11.4-5.8-2.9-1.7-8-5.8-11.2-9-3.3-3.1-7.5-8.3-9.5-11.5-2.1-3.1-5-8.8-6.7-12.7-1.6-3.9-3.8-10.4-4.8-14.5-1-4.1-2.2-11.5-2.7-16.5-0.5-5-0.6-12.8-0.2-17.5 0.4-4.7 1.5-11.2 2.5-14.5 0.9-3.3 3.3-9.1 5.3-13 2.4-4.5 6.2-9.5 10.7-14 4.9-4.9 9.6-8.3 15.5-11.4 4.7-2.4 12.6-5.4 17.5-6.7 6.9-1.8 11.8-2.3 21-2.3zm-145 32.9c0.6 0 2.4 0.4 4 0.9 1.9 0.7 3.7 2.4 7 8.5l-8.5 37.8c-4.7 20.8-8.3 37.9-8 38.2 0.3 0.2 15.1 7.2 33 15.4 17.9 8.2 34.9 16.1 37.8 17.6 3.8 1.9 5.6 3.5 6.7 6.1 1.4 3.2 1.3 3.8-0.2 7.2q-1.8 3.7-5.3 5.1c-2.2 0.9-5.4 1.2-8.5 0.9-3.7-0.3-13-4.2-36.2-15.1-17.2-8-31.6-14.6-32-14.6-0.5 0-4.1 15.6-8.2 34.8-4 19.1-7.9 35.8-8.6 37.2-0.7 1.4-2.4 3.5-3.7 4.8-1.2 1.2-3.9 2.6-5.8 3.1-1.9 0.4-4.6 0.4-6 0-1.5-0.5-3.3-2.4-6.2-8.4l8.6-40.5c4.7-22.3 8.2-40.8 7.8-41.1-0.4-0.3-15.1-7.3-32.7-15.4-17.6-8.1-33.5-15.8-35.2-17.1-1.8-1.3-3.7-3.5-4.3-4.9-0.8-1.9-0.6-3.4 0.8-6.1 0.9-2 3.1-4.4 4.7-5.2 1.7-0.8 4.8-1.5 7-1.6 3.2-0.1 10.4 2.9 34.3 14.2 16.6 7.8 30.7 14.2 31.2 14.2 0.6 0 1-0.3 1-0.7 0-0.5 2.9-14.8 6.5-31.8 3.6-17 7.4-32.8 8.5-35 1.2-2.3 3.5-4.9 5.7-6.2 2.1-1.3 4.3-2.3 4.8-2.3zm432.6 15.7l13.2 0.6c9.7 0.4 15.6 1.2 22.2 3.1 5 1.4 10.8 3.2 13 4.1 2.2 0.9 7.2 3.3 11 5.2 3.8 1.9 10.1 6.1 13.9 9.2 3.7 3.1 8.3 7.9 10.1 10.6 1.8 2.8 4.1 7.3 5 10 1.1 3.1 1.8 8 1.8 13 0 4.4-0.7 10.9-1.6 14.5-1.1 4-9.9 23.1-23.4 50.4-15.9 32-22.7 44.6-25 46.7-2.1 1.8-4.4 2.9-6.3 2.9-1.7 0-4.3-0.7-6-1.5-1.7-0.8-3.7-2.5-4.5-3.7-0.8-1.3-1.5-3.9-1.5-5.8 0-2.1 1.6-6.9 8-20l-3.7 2.5c-2.1 1.4-6.3 3.4-9.3 4.6-3 1.1-8.9 2.3-13 2.6-4.1 0.3-10.2 0-13.5-0.6-3.3-0.6-9.6-2.9-14-5-5.4-2.6-10.4-6.1-15.4-10.7-5.8-5.5-8.1-8.6-11.2-14.9-2.4-5-4.2-10.4-4.8-14.5-0.5-3.9-0.5-8.9 0.1-12.5 0.5-3.3 2.3-8.9 4.1-12.5 1.8-3.5 5.5-8.7 8.2-11.6 3.5-3.5 6.8-5.8 11-7.3 5.2-2 7.3-2.2 15.5-1.8 6.8 0.4 12.3 1.4 19.5 3.7 5.5 1.8 14.3 5 19.5 7.2 5.2 2.2 14.8 6.7 21.3 9.9 6.4 3.3 12 5.9 12.5 5.9 0.4 0.1 2.4-3.5 4.5-8 2-4.4 4.4-10.8 5.3-14.2 1-3.9 1.3-8 1-10.8-0.4-2.5-1.9-6.5-3.6-9-1.6-2.5-4.4-5.7-6.2-7.1-1.8-1.5-6.5-4.2-10.3-6.2-3.8-1.9-10.2-4.4-14-5.5-3.8-1.1-8.6-2.3-10.5-2.7-1.9-0.4-8.4-1-14.3-1.3-10-0.6-11-0.9-12.8-3.2-1.3-1.6-1.9-3.9-1.8-6.1 0.1-2.5 1.1-4.7 3.1-6.9zm-637.3 30.2c3 0 5 0.8 7.2 2.5 1.7 1.5 3.2 3.9 3.6 5.8 0.3 1.8 0 4.3-0.6 5.7-0.7 1.4-18 19.3-75.5 77l53.6 53.5 35.2-35.7c22-22.3 36.3-36.1 38.2-36.8 2.4-0.8 3.6-0.6 6.5 0.9 1.9 1 4.2 3.1 5.2 4.7 1.3 2.2 1.5 3.9 1 6.4-0.6 2.7-7.6 10.4-71.1 74.5l27.2 27.3c14.9 15 27.7 27.2 28.4 27.2 0.7 0 17.8-16.9 38-37.5 21.9-22.4 37.8-37.8 39.3-38.2 1.3-0.4 3.4-0.5 4.5-0.3 1.1 0.1 3 1 4.3 1.9 1.3 0.9 3 2.9 3.8 4.4 0.7 1.5 1.1 4.1 0.9 5.7-0.4 2.4-10.3 12.8-43.8 46.6-39 39.4-43.6 43.7-47.2 44.4-3 0.6-4.9 0.3-7.2-0.8-1.7-0.9-34.1-32.3-72-69.7-37.9-37.5-69.5-69.4-70.2-71-0.9-1.9-1.1-4.3-0.6-7 0.6-3.6 4.3-7.6 37.2-41 20.1-20.3 39.6-40 43.3-43.7 6.1-6.2 7.1-6.8 10.8-6.8zm805.5 56c3.9 0 5.2 0.6 7.9 3.3 1.9 1.8 3.6 4.6 4 6.2 0.4 2.1 0 4.4-1.6 7.5-1.2 2.4-4.5 6.5-7.4 9-3 2.5-5.3 4.9-5.3 5.3 0 0.4 1.5 0.3 3.3-0.3 1.8-0.5 6.9-1 11.3-1 4.4 0 10.4 0.7 13.5 1.6 3 0.9 7.7 2.8 10.5 4.2 2.7 1.4 7.7 4.7 11 7.3 3.3 2.7 7.6 6.8 9.6 9.2 1.9 2.3 5 6.5 6.7 9.2 1.8 2.8 4.2 8.2 5.3 12 1.7 5.4 2 8.6 1.6 13.5-0.3 3.6-1.6 9.2-2.9 12.5-1.2 3.3-4.3 9.2-6.9 13-3.2 4.7-16.2 18.4-39.3 41.3-30.5 30.2-35.1 34.3-38.4 34.8-2.3 0.4-4.9 0.1-6.7-0.7-1.6-0.7-3.9-2.7-5.2-4.4-1.6-2-2.3-4.4-2.4-12l32.9-32.5c18.1-17.8 34.5-34.5 36.5-37 1.9-2.4 4.5-6.7 5.8-9.5 1.5-3.3 2.2-6.9 2.2-11 0-3.8-0.7-7.5-2-10.5-1.1-2.4-4.1-6.9-6.5-10-2.5-3-7.4-7.4-10.9-9.8-3.6-2.3-8.7-4.9-11.4-5.8-2.8-0.8-8.2-1.4-12-1.5-4.6 0-9.1 0.7-13 2.1-3.3 1.1-8.4 3.6-11.3 5.6-2.9 1.9-18.4 16.4-34.5 32.3-16.1 15.9-30.3 29.4-31.5 30-1.2 0.6-3.5 1.1-5 1.1-1.5 0-4-0.8-5.5-1.7-1.5-1-3.6-3.1-4.7-4.8-1.1-1.6-2-4.3-2-6 0-1.6 0.6-3.9 1.2-5.1 0.7-1.2 19.3-19.9 41.3-41.5 22-21.7 43.9-43.1 48.6-47.6 8.3-7.9 8.8-8.3 13.2-8.3zm98.9 162.1c3.2 0 9.2 0.7 13.5 1.5 4.3 0.9 10.5 2.9 13.8 4.4 3.3 1.5 8.7 4.8 12 7.2 3.3 2.4 8.2 7.4 10.9 10.9 2.6 3.5 6.3 9.6 8.1 13.4 1.8 3.9 4.1 10.2 5 14 1.2 5 1.5 9.7 1.2 16-0.3 5-1.2 11.3-2.1 14-0.8 2.8-3.1 7.4-5.1 10.3-1.9 2.9-3.4 5.3-3.3 5.3 0.1 0 4.2-1.8 9-4 4.9-2.3 10.3-4.1 12.3-4.1 2.6 0 4.2 0.8 6.5 3.3 1.7 1.8 3.5 4.9 4 7 0.6 2.4 0.6 4.6 0 6.2-0.6 1.4-2.3 3.5-3.8 4.6-1.5 1.1-7.9 4.4-14.2 7.3-6.4 2.9-29.8 13.8-52 24.1-22.3 10.4-45.3 20.9-51 23.5-5.8 2.6-13.9 5.7-18 6.9-4.2 1.3-11.6 2.5-16.5 2.8-6.8 0.4-10.7 0.1-15.5-1.1-3.6-1-9-3-12-4.5-3.1-1.6-8-5-10.9-7.7-3-2.7-7.3-7.6-9.7-10.9-2.3-3.3-6.1-9.7-8.3-14.2-2.3-4.5-5.3-11.5-6.6-15.5-1.3-4-3.2-10.6-4.1-14.8-1-4.5-1.8-12.3-1.8-19.5-0.1-7.2 0.3-13.4 1.1-15.7 0.7-2.1 2.3-4.4 3.5-5.3 1.2-0.8 3.9-1.5 6-1.5 2.5 0 4.6 0.8 9.3 4.9v15.3c0 13.7 0.3 16.3 2.8 24.8 1.5 5.3 4.5 13.3 6.7 17.8 2.5 5.3 5.8 10.2 9.2 13.7 2.9 2.9 7.3 6.3 9.8 7.4 2.4 1.1 6.9 2.6 10 3.1 3.9 0.8 7.4 0.8 12.5 0 3.8-0.6 10.1-2.4 14-3.9 3.8-1.6 11.5-5 27-12.4l-6-0.7c-3.3-0.5-8.5-1.7-11.5-2.8-3.1-1.1-8.4-4.1-11.8-6.6-3.4-2.5-7.9-6.7-10-9.3-2.1-2.6-5.2-7.2-6.9-10.3-1.8-3-4.4-9.1-5.9-13.5-1.5-4.7-2.8-11.2-3.1-16-0.4-5.3 0-10.4 1.1-15.5 0.8-4.1 3-10.4 4.7-14 1.7-3.5 5-8.9 7.3-12 2.4-3 6.7-7.5 9.7-10.1 2.9-2.5 8.7-6.7 12.9-9.3 4.1-2.5 11.1-6 15.5-7.7 4.4-1.7 11.8-3.9 16.5-4.9 4.6-1 11-1.8 14.2-1.9zm-437.2 77c4.6 0.4 9.1 1.6 12 3 2.4 1.2 7.4 4 11 6.2 3.5 2.2 9.9 6.6 14.2 9.9 4.3 3.2 13.8 11.8 21.2 19.1 7.3 7.3 14.1 14.6 14.9 16.2 1.4 2.6 1.4 3.3 0.2 4.5-0.8 0.9-2.9 1.5-4.7 1.5-1.9-0.1-6.5-1.1-10.3-2.4-3.9-1.3-7.7-2.8-8.4-3.4-0.8-0.7-3.5-2.1-6.1-3.2-3.1-1.3-6.8-4.3-11-9-3.5-3.8-8-9-10-11.5-1.9-2.4-6-7.1-9-10.3-3.1-3.3-7-7.3-8.8-9-1.7-1.7-5.2-5-7.7-7.2-2.6-2.2-4.7-4.2-4.8-4.5-0.1-0.3 3.2-0.2 7.3 0.1zm3.2 24.5c0.7 0.3 2.9 2.8 5 5.5 2.1 2.7 3.4 4.9 3 4.9-0.4 0-2.7-2.5-5-5.5-2.3-3-3.7-5.2-3-4.9zm-182.3 43.5c0.3 0 1.1 0.4 1.8 0.8 0.8 0.6 1.1 2.2 0.7 4.8-0.3 2.1-1.6 5.9-2.9 8.3-1.4 2.5-3.6 6.9-5 9.8-1.4 2.9-3.6 5.8-4.8 6.5-1.2 0.6-2.7 1-3.2 0.9-0.6-0.2-0.7-0.1-0.3 0.3 0.4 0.3-1.6 2.4-4.5 4.8-3.7 2.9-6.1 4.1-8 4-1.5-0.2-2.5 0.1-2.3 0.5 0.3 0.4-0.7 1.3-2.2 2-2.6 1.2-2.6 1.2-0.7-0.3 1.1-0.8 1.6-1.5 1.2-1.5-0.4 0-2.6 1.1-4.8 2.3-2.2 1.2-4.2 2-4.5 1.7-0.2-0.2-0.7-4.7-1-10-0.2-5.2-0.2-8.9 0-8.2 0.4 0.9 1.6 0.5 4.3-1.3 2.1-1.3 4.5-2.5 5.5-2.5 1 0 2.7-0.5 3.9-1.2 1.1-0.7 3.3-2.4 4.9-3.8 1.5-1.3 3.3-2.9 4.1-3.5 0.7-0.5 3-2.2 5.1-3.7 2.1-1.5 4-2.8 4.3-2.8 0.2 0 2.1-1.8 4.2-4 2.1-2.2 4-3.9 4.2-3.9zm657.6 34c4.9 0 12.8 0.6 17.5 1.5 4.6 0.9 11.6 3.1 15.5 4.8 3.8 1.8 9.7 5.1 13 7.3 3.3 2.2 8.1 6.5 10.8 9.4 2.6 3 6.4 8.4 8.4 11.9 2 3.6 4.7 9.9 6.1 14 1.6 5.2 2.5 10.9 2.9 18.5 0.4 7.1 0.1 13.4-0.7 17.5-0.7 3.6-3.1 10.4-5.4 15-3 6-5.9 10.2-10.2 14.5-3.8 3.7-9.1 7.6-14 10.2-4.4 2.3-11.8 5.3-16.4 6.7-4.7 1.5-11.2 2.9-14.5 3.3-3.3 0.3-7.3 0.3-8.8 0-1.7-0.4-3.3-1.8-4.2-3.7-1.1-2-3.2-19.8-6.7-54.2-2.8-28.2-5.3-51.5-5.6-51.8-0.2-0.2-3.2 0.1-6.6 0.8-3.4 0.7-9.7 3-14.1 5.2-6.1 2.9-9.5 5.4-14 10.2-3.2 3.5-6.7 8.4-7.8 10.8-1 2.5-2.6 7.5-3.4 11-1.1 4.6-1.4 9.2-1 15.5 0.3 5 1.5 12.3 2.6 16.3 1.1 4 3.2 9.6 4.7 12.5 1.4 2.9 4.2 7.5 6.1 10.2 2 2.8 4.2 6.5 4.9 8.3 0.8 1.8 1.4 3.9 1.4 4.7 0 0.9-1.4 2.9-3 4.5-2.2 2.3-3.8 3.1-6.7 3.1-3.3 0-4.5-0.6-8.4-4.8-2.5-2.6-6.2-7.5-8.2-10.8-2-3.3-5.1-9.8-6.8-14.5-1.7-4.6-3.8-11.7-4.5-15.7-0.8-4-1.4-12.4-1.4-18.8 0-6.5 0.6-14.6 1.5-18.7 0.8-4 3.4-11.1 5.6-15.8 3.3-6.7 5.8-10.1 12.3-16.5 4.4-4.4 10.5-9.4 13.6-11.2 3-1.7 8.8-4.2 13-5.7 4.1-1.4 11.1-3.2 15.5-4 4.4-0.7 12-1.4 17-1.5zm-397.1 19.9l3 2.5c1.7 1.4 4.4 3.6 6 4.8 1.7 1.2 2.7 1.7 2.3 1-0.4-0.7-0.3-1.5 0.3-1.8 0.5-0.2 1.2 0.2 1.5 1 0.2 0.9 0.5 2.9 0.5 4.5q0 3-1.5 3c-0.9 0-3.9-1.5-6.8-3.4-2.9-1.9-5.8-3.5-6.5-3.5-0.7 0-1-0.8-0.7-1.8 0.3-1 0.9-2.8 1.2-4z"/><path class="h" d="m966 866.1c-10.2 5-20.3 9.7-22.5 10.5-2.2 0.8-11.2 2.6-20 4-8.8 1.4-21 3.6-27 4.9-6 1.3-14.4 3.6-18.5 5.1-4.1 1.4-10.2 4-13.5 5.7-3.3 1.6-8.5 4.6-11.5 6.5-3 1.9-8.6 6.5-12.3 10.1-3.8 3.6-9 9.5-11.7 13.1-2.6 3.6-6.1 9.2-7.8 12.5-1.6 3.3-4.2 9.6-5.6 14-1.4 4.4-3.1 12-3.7 17-0.6 5-0.9 15.3-0.7 23 0.3 7.7 0.8 14.8 1.1 15.7 0.6 1.6 1 1.6 4.4-0.7 2.1-1.4 4.6-2.5 5.5-2.5 1 0 2.8-0.6 3.9-1.3 1.2-0.6 3.4-2.3 4.9-3.7 1.5-1.4 3.4-3 4.1-3.5 0.8-0.5 3.1-2.2 5.2-3.8 2-1.5 3.9-2.7 4.2-2.7 0.3 0 2.2-1.8 4.2-4.1 2.2-2.3 4.3-3.8 5-3.5 0.7 0.3 1.5-0.1 1.8-0.9 0.3-0.8 0.5-5.3 0.5-10 0-4.7 0.7-11.8 1.6-15.8 0.8-3.9 2.8-9.9 4.4-13.2 1.6-3.3 5.3-8.9 8.2-12.5 2.9-3.5 8.8-9.2 13-12.5 4.2-3.3 13.6-9.6 21-13.9 7.3-4.4 17.1-10.3 21.8-13.2 4.7-2.9 13.9-8.3 20.5-12 6.6-3.7 18.5-10 26.5-14.1 8-4 13.8-7.3 13-7.3-0.8 0-9.8 4.1-20 9.1zm44.5 16.3c-1.6 0.7-4.5 2.5-6.3 3.9-1.9 1.6-3 3.3-2.7 4.2 0.3 0.8-0.2 1.7-1 2-0.8 0.3-1.5 1.2-1.5 2 0 0.8-0.9 1.7-2 2-1.1 0.3-1.8 1-1.5 1.5 0.3 0.5-0.6 1.2-2 1.5-1.5 0.3-2.3 1-2 1.7 0.3 0.7-0.9 2.4-2.7 3.8-1.8 1.4-4.4 3-5.8 3.7-2.1 1-1 1.2 7.2 1.2 5.7 0.1 10.7-0.4 12-1.1 1.3-0.6 5-3.8 8.3-6.9 3.3-3.2 6.2-5.7 6.5-5.5 0.3 0.2 0.5-1 0.4-2.8-0.1-2.1 0.8-4 2.8-6.1 1.5-1.7 2.8-3.3 2.8-3.8 0-0.4-1.1-1.2-2.5-1.7-1.4-0.5-3.5-1-4.8-1-1.2 0.1-3.6 0.7-5.2 1.4zm33 27.1c-0.5 0.2-4.9 0.8-9.8 1.4-5.1 0.7-8.5 1.5-8.2 2.1 0.3 0.5 2.6 1 5.2 1 2.7 0 6.4 0.4 8.3 1 1.9 0.5 7.8 3.5 13 6.6 5.2 3.1 13 8.2 17.2 11.5 4.3 3.2 14 12.1 21.5 19.7 7.6 7.6 14.6 14.8 15.5 16 1 1.2 2.3 2.2 2.8 2.2 0.5 0-0.1-2.6-1.4-5.8-1.4-3.1-3.6-8-5.1-10.7-1.4-2.8-5.3-8.6-8.8-12.9-3.4-4.3-8.7-10.1-11.7-12.9-3-2.8-7.8-6.7-10.5-8.7-2.8-2-7.7-5.1-11-6.8-3.3-1.6-8.3-3.3-11-3.6-2.8-0.3-5.5-0.4-6-0.1zm101.9 46.3c-1 0.2-1.8 1-1.6 1.8 0.1 0.8-0.3 1.4-0.8 1.4-0.5 0-1 0.7-1 1.5 0 0.8 3.8 5.3 8.5 10 4.7 4.7 8.8 8.3 9.2 8 0.5-0.2-0.4-2.4-1.9-4.7-1.4-2.4-4.3-7.4-6.3-11.3-2-3.9-3.8-7-3.9-7-0.2-0.1-1.2 0.1-2.2 0.3zm-609.1 192.7c0 4.4 0.2 6 0.4 3.5 0.2-2.5 0.2-6.1 0-8-0.2-1.9-0.4 0.1-0.4 4.5z"/><path fill-rule="evenodd" class="i" d="m1019.5 915c5.4 0 6.3 0.3 12 6.2l-11-1.4-1.3 3.3c-0.7 1.9-1.2 4.1-1.2 4.9 0.1 0.8-0.7 2.2-1.6 3-0.9 0.8-5.1 2-9.3 2.7-4.2 0.6-9.2 1.4-14.6 2.3l4-1.5c2.2-0.9 4.6-2.1 5.4-2.8 0.7-0.7 1-1.8 0.7-2.5-0.4-0.8-2-1-5.3-0.6-2.7 0.3-9.6 2.9-15.8 5.9-6 2.9-12.6 5.6-18 6.6l3.5-2.1c1.9-1.2 8.5-4.8 14.5-8.1 6-3.3 12.6-7.1 14.5-8.5 1.9-1.3 6.6-3.5 10.5-4.9 4.4-1.5 9.2-2.5 13-2.5zm53 49c0.3 0 2.2 0.8 4.3 1.7 2 1 4.4 2.2 5.2 2.9 0.8 0.6 4.4 2.1 8 3.2 3.6 1.2 7 2.7 7.7 3.4 0.6 0.7 4 6.7 7.4 13.3 3.4 6.6 7.6 14.6 9.3 17.8 1.7 3.2 3.6 6.6 4.1 7.6 0.5 0.9 2.4 3.5 4.1 5.6 1.7 2.2 4 5.8 5.1 8 1.2 2.2 3 7.7 4.2 12.2 1.4 5.6 2.1 11 1.8 24.8l-0.7-9.5c-0.5-7.4-1.3-10.8-3.5-15.5-2-4.4-5.9-9.1-14-17.5-6.2-6.3-14.7-16.2-19-22-4.3-5.8-8.8-11.6-10-13-1.3-1.4-3.5-4.8-5-7.5-1.5-2.8-4.3-7-6.1-9.5-1.9-2.5-3.4-4.8-3.4-5.3 0-0.4 0.2-0.7 0.5-0.7zm23.9 45c3.7 3.6 10.9 11.2 15.9 17 5 5.8 9.8 11.3 10.6 12.4 0.9 1 1.7 2.9 2.1 6.6l-2.7-2c-1.6-1.1-4.2-3.2-5.9-4.7-2.1-1.9-3.8-4.8-5-8.8-1.6-5.2-3.1-7.3-11.8-16.5-5.9-6.1-7.2-7.8-3.2-4zm-242.7 6.1c1.8-0.1 3.9 0.5 4.5 1.2 0.7 0.8 2.3 1.7 3.5 2 1.3 0.4 2.8 1.6 3.3 2.7 0.5 1.1 2.1 6.6 3.5 12.3 1.4 5.6 2.5 12.7 2.5 15.7 0 3-0.2 6.8-0.5 8.5-0.4 2.2-1.3 3.2-3.3 3.7-1.5 0.4-6.1 3.5-10.1 7-4.1 3.5-9.3 8.1-11.5 10.4-2.3 2.2-6.4 6.7-14.1 15.8l0.1 9.1c0.1 8 0.5 9.9 3.6 17 1.9 4.4 4.8 10.1 6.4 12.6 1.6 2.6 5.6 7.6 8.9 11.3 3.8 4.3 7.5 7.2 10 8.2 2.7 1 5.2 1.3 7.5 0.8 1.9-0.4 4.4-0.6 5.5-0.5 1.1 0.1 4.2-0.3 7-0.9 2.7-0.7 7.2-2.5 10-4.1 2.7-1.5 8.6-3.8 13-4.9 6.9-1.9 9.7-2.1 20.5-1.6 10.9 0.6 13.5 0.4 20-1.5 4.1-1.1 8.5-2.7 9.7-3.5 1.6-0.9 2.1-2.1 1.8-3.4-0.3-1.1-0.2-2 0.2-2 0.5 0 1.7 0.7 2.8 1.5 1.1 0.8 2.3 1.2 2.7 1 0.5-0.3 0.8-0.2 0.8 0.2 0 0.5 1 0.9 2.2 1 1.3 0.1 8.4 2.8 15.8 6 7.4 3.2 13.6 6.1 13.7 6.5 0.2 0.5 0.9 0.5 1.5 0.1 0.7-0.3 1-0.2 0.6 0.3-0.4 0.5 0.1 2 1.1 3.4 1 1.4 2.1 3.3 2.4 4.2 0.5 1.1-0.2 3.1-1.8 5.3-1.4 1.9-2.5 3.7-2.5 4 0 0.3 3.3 1.2 7.2 2 4 0.8 8.7 1.6 10.3 1.8 2.9 0.4 2.8 0.4-0.5 0.6-1.9 0-14.8-0.8-28.5-1.9-13.8-1.1-25.7-2.3-26.5-2.6-0.8-0.2-6.5-1.3-12.5-2.4-7.3-1.2-12.3-2.6-14.7-4.2-2-1.2-3.7-2.6-3.8-3.1 0-0.4 0.7-0.7 1.5-0.7 0.9 0 1.2 0.5 0.8 1.2-0.5 1-0.4 1 0.8 0 0.8-0.6 2.2-1 3.1-0.7 1 0.3 2.6 0.1 3.5-0.4 1.5-0.8 1-1.1-2.2-1.7-2.2-0.3-6.5-0.4-9.5 0-3 0.4-9.3 0.9-14 1-4.7 0.2-9.3 0.7-10.3 1-1.2 0.4-1.7 1.7-1.7 4.1 0 1.9-0.5 4.4-1 5.5-0.7 1.4-0.6 4.1 0.4 8.8 0.8 4 2.6 8.7 4.5 11.7 2.1 3.4 3.5 7.1 4.1 11.5 0.6 3.6 1.2 8 1.5 9.8 0.3 1.7 0.4 3.2 0.2 3.2-0.1 0-2.2-0.6-4.7-1.4-2.5-0.8-8.1-2.7-12.5-4.4-4.4-1.6-11.7-4.8-16.3-7.1-4.5-2.2-8.2-4.3-8.2-4.6 0-0.3 0.9 0 2 0.5 1.1 0.5 2.2 0.8 2.5 0.5 0.3-0.3 0-1.3-0.6-2.3-0.9-1.3-0.9-3.2 0-7.7 0.6-3.3 1.1-8 1.1-10.5 0-4.3-0.3-4.8-7.2-11-4-3.6-11.2-10.4-16-15.3-4.9-4.8-8.8-8.6-8.8-8.5 0 0.2 0.6 2 1.5 4 1.2 3.1 1.4 6 0 26.6l6.8 8.7-3.2-3c-1.8-1.7-4.9-5.5-6.9-8.5-2-3-4-5.7-4.3-6-0.3-0.3-0.9-1.6-1.2-3-0.4-1.5 0.1-4.9 1.4-8.5 1.1-3.3 2.3-7.1 2.6-8.5 0.3-1.6-1.3-6.9-4.1-14-2.5-6.3-5.6-16.2-7-22-1.5-5.8-4-20-5.7-31.5-1.6-11.5-2.9-23-2.7-25.5 0.3-4.4 0.4-4.5 6.7-8 4.4-2.4 8.7-6.1 14-11.9 4.2-4.6 9-9 10.6-9.7 1.6-0.6 4.5-1.3 6.2-1.3zm21 5.9c0.5 0 1.9 0.3 3.3 0.6 1.3 0.4 2.3 1.3 2.2 2-0.1 1 0.9 1.4 3.3 1.4 1.9 0 3.7-0.3 3.9-0.8 0.2-0.4 2-0.8 4-1 3.3-0.2 3.6 0 3.6 2.5 0 1.6-0.4 6.4-1 10.8-0.5 4.4-1.6 13-2.4 19-0.9 6-2.1 15.1-2.8 20.2-0.7 5-1.6 9.5-2 10-0.3 0.4-1.2-2.4-1.8-6.2-0.7-3.8-3.4-16.5-6.1-28-2.7-11.5-4.9-23.1-4.9-25.8 0-2.6 0.3-4.7 0.7-4.7zm248.8 71.3c0 0.2-3.4 9.1-7.6 19.8-4.2 10.7-11 27.5-15.2 37.4-6.3 15-8.3 18.6-11.6 21.8-2.3 2-5.3 4-6.9 4.3-1.5 0.3-3.6 0.4-4.7 0-1.1-0.3-3.5-1.5-5.3-2.6-1.7-1.1-4.9-4.4-7-7.2-2.1-2.9-6.1-7.2-8.8-9.6-2.7-2.3-6.5-4.8-8.4-5.3-3.5-1.1-3.5-1.1-9 5.1-3 3.5-6.4 6.7-7.5 7.3-1.1 0.5 0.2-1 2.9-3.4 2.9-2.6 7.4-8.7 11.2-14.9 3.7-6.2 8.7-12.9 18.4-22.5l4.6 2.5c2.5 1.4 5.6 4.1 6.9 6 1.3 1.9 3.6 4.9 5.2 6.5 1.5 1.7 4.8 4.7 7.3 6.7 2.5 2.1 4.8 3.8 5.2 3.8 0.5 0 3-2.1 5.6-4.7 4.4-4.3 5.9-7.2 14.7-28 5.5-12.8 9.9-23.1 10-23z"/><path class="j" d="m986 927.1c-5.8 3.4-11 6.6-11.5 7.2q-1 1 0 0.5c0.5-0.3 5.7-3.2 11.4-6.4 5.7-3.2 10.5-6.2 10.7-6.7 0.2-0.4 0.2-0.7 0.1-0.7-0.1 0-4.9 2.7-10.7 6.1zm9.5 1.6c-1.6 0.3-6.1 1.9-10 3.7-3.9 1.7-8.1 4-9.5 5l-2.5 1.7c4.6-0.7 7.6-1.2 9.5-1.6 1.9-0.3 4.6-0.9 6-1.2 2.5-0.6 2.5-0.6-0.4-1.2l-3-0.6c7.3-3.5 10.3-4.5 11.4-4.5 1.1 0 1.9 0.6 1.7 1.2-0.2 0.7-1.8 1.8-3.5 2.3-1.8 0.5-3.2 1.3-3.2 1.7 0 0.5 1.9 0.1 4.2-0.7 2.4-0.8 4.9-2.1 5.5-3 0.7-0.8 1.1-2 0.8-2.5-0.3-0.5-1.3-0.9-2.3-0.9-0.9 0.1-3.1 0.4-4.7 0.6zm104.5 50.8c1.8 2.7 5.3 9 7.8 14 2.5 5 5.6 11 6.9 13.5 1.4 2.5 3 5.4 3.6 6.5 0.7 1.2 2.6 3.9 4.3 6 1.7 2.2 4.1 5.9 5.3 8.2 1.1 2.4 2.5 6 3.1 8l1 3.8c-0.8-7.5-4.2-15.7-11-29.5-5.6-11.3-11.9-23.9-14-28-3.6-6.9-4.1-7.5-7.1-7.5l-3.2-0.1zm-249.3 20.3c-0.8 1-2.5 3.9-3.6 6.5-1.2 2.6-3.1 5.3-4.3 6-1.3 0.6-2.7 1.1-3.3 0.9-0.5-0.2-0.7 0.1-0.3 0.5 0.4 0.5-0.9 2.1-3 3.5-2 1.5-4 2.5-4.4 2.3-0.5-0.2-1.4 0.4-2 1.3-1.2 1.6-1.1 1.6 0.7 0.3 1.8-1.4 1.9-1.4 0.8 0-0.8 1-2.3 1.3-4.5 1-1.9-0.2-3 0-2.6 0.5 0.4 0.5-0.5 1.5-2 2.2-2.5 1.2-2.6 1.2-0.7-0.2 1.1-0.9 1.7-1.6 1.3-1.6-0.5 0.1-2.6 1-4.8 2.1-3.4 1.7-4 2.4-4 5.2 0 1.8 0.3 6.4 0.7 10.3 0.5 5.1 0.9 6.2 1.3 4 0.4-2.4 1.7-3.7 6.9-6.5 4.3-2.4 8.9-6.3 14.5-12.3 4.9-5.4 9.3-9.2 11.1-9.7 1.7-0.5 4.6-0.8 6.5-0.6 1.9 0.1 3.6 0.8 3.8 1.4 0.1 0.6 0.9 1.2 1.7 1.2 0.8 0 2.4 0.9 3.5 2 1.1 1.1 2 1.7 2 1.5 0-0.3-0.9-3.3-2.1-6.8-1.2-3.7-3.7-8.1-6-10.7-2.2-2.5-3.9-4.9-3.9-5.3 0-0.4-0.4-0.7-0.8-0.7-0.5 0-1.6 0.8-2.5 1.7zm36.8 12.2c-0.2 0.3-2.6 0.4-5.3 0.2-2.8-0.2-6.2 0.2-7.6 0.8-2.2 0.9-2.6 1.6-2.5 5.3 0.1 2.4 0.5 5.6 0.9 7.3 0.8 3 0.8 2.9 0.9-0.8 0.1-2 0.4-3.7 0.9-3.7 0.4 0 1.7 0.2 3 0.5 1.2 0.2 2.2 1.1 2.2 2 0 1 1.1 1.5 3.5 1.5 1.9 0 3.7-0.4 3.9-0.8 0.2-0.4 1.9-0.9 3.8-1 1.8-0.2 3.5-0.6 3.8-0.9 0.3-0.3 0.7-2.8 0.9-5.7l0.3-5.1c-6.5-0.2-8.5 0-8.7 0.4zm-16.5 37.8c0 2.6-0.2 6.1-0.5 7.8-0.4 2.2-1.3 3.1-3.3 3.6-1.5 0.4-6 3.6-10.1 7-4.1 3.5-9.3 8.2-11.5 10.4-2.3 2.3-6.3 6.8-9.1 10l-5 5.9c0.1 14 0.5 18.8 1 19.7 0.7 1.2 1-0.5 1-6.1v-7.7c7.8-9.1 11.8-13.6 14-15.8 2.2-2.2 6.5-6.2 9.5-8.9 3-2.6 7.4-5.8 9.7-7 3.3-1.7 4.3-2.8 4.6-5.1 0.2-1.7 0.5-6.5 0.6-10.8 0.1-4.2 0-7.7-0.3-7.7-0.3 0-0.6 2.1-0.6 4.7zm33.8 67c1.5 1.1 2.3 2.8 2.3 4.5-0.1 1.5-0.5 2.8-1.1 2.8-0.5 0-3.2 1.9-5.9 4.2-2.6 2.4-8.5 6.2-13 8.5-4.4 2.4-11.7 5.2-16.1 6.3-4.4 1.1-9.5 2-11.2 2-1.8 0-4.6-0.9-6.3-1.9-1.6-1-5.2-4.1-8-6.7-3.9-3.8-4.6-4.2-3-1.8 1.1 1.7 4.7 6.1 8 9.8 3.8 4.2 7.5 7.2 10 8.2 2.7 1 5.2 1.3 7.5 0.8 1.9-0.4 4.4-0.7 5.5-0.5 1.1 0.1 4.3-0.3 7-1 2.8-0.6 7.3-2.5 10-4 2.8-1.6 8.6-3.8 13-5 6.9-1.8 9.7-2 20.5-1.5 10.9 0.5 13.5 0.3 20-1.5 4.1-1.2 8.5-2.8 9.8-3.5 1.3-0.9 2-2.1 1.8-3.2-0.2-0.9-0.5-2.1-0.5-2.5-0.1-0.4-0.8-0.5-1.6-0.2-0.8 0.2-1.5 0-1.5-0.5 0-0.6-0.9-0.7-2.2-0.4-1.4 0.5-2 0.4-1.6-0.2 0.3-0.5-0.5-1-1.8-1.1-1.4-0.1-2.7-0.6-2.9-1.2-0.3-0.6-0.9-0.9-1.5-0.6-0.5 0.2-2.1 0.2-3.5 0-1.4-0.3-2.3-1-2-1.5 0.3-0.7-0.4-0.8-1.7-0.3-1.7 0.5-2.1 0.4-1.5-0.5 0.4-0.8 0.2-1-0.5-0.7-0.7 0.3-6-0.8-11.8-2.4-5.8-1.6-12.3-3.6-14.5-4.5-3.8-1.5-3.9-1.5-1.7 0.1zm-71.4 17.3c-0.1 2.4-1 7.4-2.1 11-1.3 3.8-1.8 7.1-1.3 8 0.6 1 1.4-0.5 3-5 1.2-3.6 2.4-7.7 2.7-9 0.3-1.4-0.1-4.1-0.9-6l-1.4-3.5zm205.7 22.2c-3.8 4.4-4.2 5.1-1.5 2.5 3.4-3.3 4.3-3.7 6.9-3 1.7 0.4 5 3.2 8 6.7 2.8 3.3 7.3 9.3 10.1 13.4 3.4 5.3 5.7 7.7 7.5 8 1.3 0.3 4.3 0.6 6.6 0.6 3.2 0.1 5.1-0.7 8-3 2.3-1.8 5.1-5.6 7.1-9.5 1.7-3.5 3.2-6.9 3.2-7.4 0-0.6-0.5-0.1-1.1 1-0.6 1.1-2.3 3.2-3.7 4.8-1.5 1.6-3.9 3.5-5.4 4.3-1.5 0.7-3.6 1.4-4.7 1.4-1.1 0-3.8-0.9-6-2-2.2-1.1-5.3-3.7-6.8-5.7-1.5-2-5-6.1-7.7-9.1-2.8-2.9-6.8-6.2-9-7.3-2.2-1-4.5-1.9-5.1-1.9-0.6 0-3.4 2.8-6.4 6.2zm-116.2-3.7c-0.2 0.2-5.1 0.6-10.9 0.9-5.7 0.2-11.2 0.6-12.2 1-1.2 0.4-1.7 1.6-1.7 4.1 0 1.9-0.5 4.4-1 5.5-0.7 1.3-0.6 4 0.3 8.7 0.8 4 2.7 8.8 4.6 11.8 2.2 3.5 3.4 7.1 4.2 12 0.6 3.8 1.3 8.4 1.7 10.2 0.5 2.6 1.3 3.3 4.2 3.9 1.9 0.4 4 0.7 4.7 0.6 0.7-0.1 1.3 0.1 1.3 0.5 0 0.4 1 0.9 2.2 1 1.8 0.2 2 0 1-1-0.7-0.7-1.3-1.6-1.3-2 0.1-0.4 0.4-0.6 0.8-0.4 0.4 0.2 0.2-1.5-0.6-3.7-0.7-2.3-1.5-5.9-1.7-8.1-0.2-2.2-1.4-5.8-2.5-8-1.2-2.2-3-5.2-4.1-6.5-1-1.4-1.9-3.3-1.9-4.3 0-0.9 2.2-3.9 4.8-6.6 4.6-4.7 5-4.9 14.8-6.6 7.6-1.4 12.1-1.7 19-1.1 4.9 0.4 8.7 0.5 8.5 0.2-0.3-0.3-5.7-1.4-12-2.5q-11.5-2-15.2-4.3c-2.1-1.3-3.8-2.7-3.8-3.1 0-0.4 0.6-0.7 1.5-0.7 0.9 0 1.2 0.5 0.8 1.2-0.6 1-0.4 1 1 0 0.9-0.7 2.1-1 2.7-0.7 0.5 0.2 2 0.2 3.2-0.2 2.2-0.6 2.2-0.7 0.3-1.4-1.1-0.4-4.3-0.8-7.1-0.9-2.8 0-5.3 0.2-5.6 0.5z"/><path class="k" d="m1009 849.5c-3.6 0.7-9.8 2.2-13.8 3.4-3.9 1.1-7 2.6-6.7 3.1 0.3 0.6-0.4 0.8-1.7 0.5-1.3-0.3-1.6-0.3-0.8 0.1 0.9 0.3-4.6 3.6-14.5 8.5-8.8 4.4-16.5 8.5-17 9-0.5 0.6 1.5-0.1 4.5-1.5 3-1.4 6.4-2.6 7.5-2.6 1.1 0 3.5 0.3 5.4 0.7 2.4 0.6 4.2 1.9 5.8 4.3 1.3 1.9 2.9 5.3 3.7 7.5 1.2 3.4 1.2 4.4 0 6.8-0.8 1.5-1.6 4.1-1.9 5.7-0.3 1.6-1.3 4.2-2.2 5.8-0.9 1.5-3.1 4.5-4.8 6.6l-3 4c7.8-1.1 11.6-2 13.5-2.9 1.9-0.8 4.9-2.6 6.5-3.9 1.7-1.4 2.7-2.9 2.3-3.5-0.5-0.7 0.1-1.3 1.7-1.6 1.4-0.3 2.3-1 2-1.5-0.3-0.5 0.4-1.2 1.5-1.5 1.1-0.3 2-1.2 2-2 0-0.8 0.7-1.7 1.5-2 0.8-0.3 1.3-1.2 1-2-0.3-0.9 1-2.7 3.3-4.5 2-1.7 5.3-3.6 7.2-4.2q3.5-1.1 7-0.2c1.9 0.6 3.5 1.5 3.5 2.1 0 0.6-1.2 2.4-2.6 4-1.7 1.8-2.5 3.9-2.5 5.9 0.1 1.8-0.1 3-0.4 2.9-0.3-0.2-3 1.9-6 4.8-3 2.8-6 5-6.5 4.8-0.5-0.1-0.6 0.1-0.2 0.6 0.4 0.4-0.3 1.3-1.5 2l-2.3 1.2c3.9 0.1 7.7-1.2 11-2.7 3.3-1.6 7.7-3.2 9.8-3.5 2.6-0.5 3.7-0.3 3.7 0.6 0 0.6-1 1.7-2.2 2.3-1.3 0.6-2.4 2.1-2.6 3.3-0.1 1.3 0.4 2.2 1.6 2.4 0.9 0.2 5.3-0.2 9.7-1 4.4-0.8 11.2-1.5 15-1.6 6.1-0.1 7.9 0.4 13.5 3.3 3.6 1.8 8.8 5 11.5 7 2.8 2 7.4 5.9 10.4 8.6 3 2.7 8.3 8.5 11.8 12.9 3.5 4.4 7.7 10.7 9.3 14 1.6 3.3 3.8 8.1 4.9 10.8 1.5 3.2 3 5 4.8 5.7 1.6 0.6 3.3 1 3.9 0.8 0.8-0.2 0.5-2.2-0.8-6.3-1-3.3-2.1-6.5-2.4-7-0.2-0.5-1.7-3.1-3.2-5.7-1.5-2.6-4.5-7.3-6.7-10.4-2.2-3.2-8.2-9.6-13.4-14.3-5.1-4.7-12.3-10.8-16-13.5-3.6-2.6-9.9-6.5-13.9-8.5-4-2-7.1-4.1-6.9-4.6 0.3-0.5 2.2-0.9 4.3-0.7l3.9 0.2c-8.5-5.6-11.6-8-12.3-8.9-0.7-0.9-1.2-1.9-1.2-2.3 0-0.5 1.7-2.4 3.8-4.3l3.7-3.4c-4.9-12.1-6.6-17.6-7-20.1-0.4-2.5-0.8-5.7-0.9-7.2 0-1.6 0.6-3.2 1.7-4 1.6-1.2 1.3-1.4-3.5-2.5-2.9-0.6-10.9-1.2-17.8-1.2-6.9 0-15.4 0.6-19 1.4zm112.5 69c-1.7 0.7-3.5 2.5-4.2 4.1-0.6 1.6-1.4 5.3-1.7 8.2-0.4 3.2-0.2 5.2 0.4 5.2 0.5 0 1.2 1 1.5 2.3 0.2 1.2 7.1 8.7 15.2 16.7 8.1 8 18.5 17.8 23.1 21.8 4.5 3.9 8.2 6.9 8.2 6.5 0.1-0.5-0.6-1.5-1.5-2.3-0.9-0.8-1.6-2.1-1.5-2.7 0-0.7-0.5-1.5-1-1.8-0.6-0.3-0.7 0.2-0.3 1.3 0.4 0.9-1.7-0.4-4.7-2.9-3-2.6-7.2-6.7-9.2-9.3-2.1-2.5-3.8-5.1-3.8-5.6 0-0.5 0.5-1 1-1 0.5 0 1-0.7 1-1.5 0-0.8 0.8-1.6 1.8-1.8 0.9-0.1 2.3 0.4 2.9 1.3 1 1.2 1 0.8 0-1.5-0.7-1.6-2.3-5-3.6-7.5-1.3-2.5-4.6-8.3-7.4-13-2.8-4.7-5.6-9-6.2-9.6-0.5-0.6-1.9-2.7-3-4.7-1.1-2.1-2.5-3.7-3-3.6-0.5 0-2.3 0.6-4 1.4z"/><path class="l" d="m983.4 911.9c-2.7 0.9-7.8 3.7-11.4 6.3-3.9 2.7-7.9 6.7-10.1 9.9-2 3-4 6.5-4.4 7.8-0.4 1.3-0.4 2.1 0.1 1.8 0.5-0.3 1.6-0.1 2.4 0.4 1.3 0.8 1 1.4-1.5 3.4-1.6 1.4-3.5 2.5-4 2.5-0.5-0.1-1.7 0.6-2.5 1.5-1.4 1.5-1.3 1.6 0.5 0.9 1.1-0.4 10.5-5.8 21-11.9 10.5-6.2 20.4-11.9 22-12.8 1.7-0.9 2.7-1.6 2.3-1.7-0.5 0-2 0.6-3.5 1.4-1.6 0.7-3.9 1.7-5.3 2.1-2.2 0.6-2 0.1 1.9-3.9 2.3-2.5 3.8-4.6 3.2-4.6-0.6 0-0.9-0.7-0.6-1.5q0.5-1.5-2.4-2.4c-2-0.5-4.4-0.3-7.7 0.8zm32.1 2.1l-4 0.7c7 0.1 10.1-0.3 11.5-0.7 2.4-0.8 2.4-0.8-0.5-0.8-1.6 0.1-4.8 0.4-7 0.8zm-25.5 18.3c-4 2-4.2 2.2-2 2.5 1.4 0.2 4.3-0.3 6.4-1 2.2-0.7 4.1-1.9 4.3-2.5 0.2-0.8-0.6-1.3-1.9-1.3-1.3 0.1-4.3 1.1-6.8 2.3zm-50 19.4c-0.8 0.2-3.4 1.4-5.7 2.6-2.4 1.2-4.2 2.3-4 2.5 0.1 0.1 2.8-0.9 6-2.3 3.1-1.4 5.7-2.7 5.7-3 0-0.3-0.1-0.5-0.2-0.4-0.2 0-1 0.3-1.8 0.6zm164.2 20.7c-1 1.3-0.5 3 2.7 9.4 2.2 4.2 8.6 17.2 14.2 28.7 6.4 13.2 10.5 22.9 11 26 0.8 4.9 0.8 4.9 0.4-1-0.2-3.3-0.7-7.3-1-9-0.3-1.7-1.7-6.4-3.2-10.5-1.4-4.1-6.6-15.4-11.5-25-4.9-9.6-9.5-18.1-10.1-18.8-1-1.1-1.5-1-2.5 0.2zm-250.3 20.4c-1.3 4.2-1.3 4.9 0.1 6.6 0.8 1 2.9 3.5 4.5 5.4 1.7 1.9 3.6 4.7 4.3 6.1 0.7 1.4 1.1 1.9 0.9 1.1-0.2-0.8-1.8-6.6-3.6-12.7-1.7-6.2-3.5-11.3-3.9-11.3-0.4 0-1.4 2.1-2.3 4.8zm40.7 2.6c-0.3 0.9-2.4 1.9-4.6 2.4-2.2 0.4-4 1.2-4 1.7 0 0.5-0.3 0.7-0.7 0.3-0.4-0.4-2.8 0.4-5.3 1.7-2.5 1.4-5.5 2.5-6.7 2.5-2.2 0-2.3 0.3-2.1 8.3 0 4.5 0.3 6.7 0.5 5 0.2-2.5 1-3.6 3.1-4.4 1.5-0.6 4.9-0.9 7.5-0.7 2.7 0.1 5 0.1 5.2-0.2 0.2-0.3 1.8-0.6 3.7-0.7 1.8 0 3.8-0.1 4.3-0.2 0.5-0.1 1.1-3.7 1.3-8 0.2-4.6-0.1-8.3-0.7-8.6-0.5-0.3-1.2 0.1-1.5 0.9zm-22.5 58.4c0 3.4-0.3 6.7-0.6 7.2-0.3 0.5-0.5 2-0.5 3.3 0 1.7-1.4 2.9-5.5 5.2-3.1 1.7-5.6 3.3-5.5 3.8 0 0.4-2.6 2.7-5.7 5.1-3.2 2.5-8.9 8.1-12.8 12.6-6 7-7.1 8.9-7.8 13.3-0.4 3.1-0.3 7.2 0.3 10.2 0.6 2.8 2.5 7.9 4.3 11.5 1.7 3.6 5.1 8.5 7.6 10.9 2.6 2.4 6 5.2 7.6 6.2 1.7 1.1 4.5 1.9 6.3 1.9 1.7 0 6.8-0.9 11.2-2 4.4-1.1 11.7-3.9 16.1-6.2 4.5-2.4 10.3-6.2 13-8.5 2.7-2.4 5.4-4.3 5.9-4.3 0.5 0 1-1.2 1-2.7 0.1-2.2-0.9-3.4-4.2-5.7-2.4-1.6-5.4-3.8-6.7-5l-2.4-2.1c2.6 5 3.8 6.7 4.3 7q1 0.5 0 3.8c-0.6 1.7-2.3 4.3-3.8 5.6-1.5 1.3-4.3 3.4-6.2 4.7-1.9 1.3-6.2 3-9.5 3.9-3.3 0.8-8 1.5-10.5 1.5-2.5 0-6.9-0.7-9.7-1.5-4.5-1.3-6-2.4-9.9-7.2-2.5-3.2-4.7-6.6-5-7.5-0.2-1-0.9-1.6-1.4-1.3-0.5 0.3-1-0.2-1-1 0-0.8 0.3-1.7 0.8-1.9 0.4-0.2 1.1-1.6 1.5-3.2 0.5-1.6 2.2-5.7 3.8-9.1 2-4.3 5.2-8.6 10.2-13.5 4-4 8.8-8.4 10.7-9.7 1.9-1.3 4.1-3.1 4.8-4 0.8-1 1.2-4.7 1.2-10.6-0.1-5-0.5-10.8-0.9-13-0.8-3.8-0.9-3.7-1 2.3zm-42.3 69.7c0.4 1.7 0.6 4.6 0.6 6.5-0.1 1.9-1 6.2-2 9.5-1 3.6-1.5 7.1-1.1 8.8 0.4 1.5 1 2.7 1.5 2.7 0.4 0 1.6-2.8 2.6-6.2 1-3.5 1.9-8.3 1.9-10.8-0.1-2.5-1-6.5-2.2-9-1.4-3.2-1.8-3.6-1.3-1.5zm309.5 27c-0.7 0.8-2 1.3-2.8 1-0.8-0.3-4.5 0.8-8.2 2.4-3.8 1.6-9.7 4.6-13.3 6.7-3.6 2.1-6.7 4.2-7 4.5-0.3 0.4-1.3 0.7-2.4 0.6-1.4-0.2-3.2 2.3-7.2 9.8-3 5.5-6.3 12-7.4 14.5-1.3 2.8-1.7 4.7-1 5 0.5 0.3 0.9 1.4 0.7 2.5-0.1 1.1-0.6 2.6-1 3.3-0.4 0.6-0.4 1.2 0.1 1.2 0.4 0-0.4 1.1-1.8 2.5-1.4 1.4-2.2 2.8-1.8 3.2 0.4 0.5 1.9 0 3.3-0.9 1.4-1 3.3-2.6 4.3-3.5 1-1 5.4-5 9.7-8.8 4.3-3.8 13.7-13.7 20.8-22 7.1-8.2 13.4-16.1 14-17.5 0.6-1.4 1.7-3.3 2.5-4.2 0.8-1 1-1.8 0.6-1.8-0.5 0.1-1.5 0.7-2.1 1.5zm-101.3 8c-2.1 2.2-2.8 3.4-1.7 3.1 1.2-0.4 3.3 1 7 4.7 3.3 3.2 6.5 7.8 8.6 12.2 1.8 3.8 4 8.5 4.9 10.4 1 2 3.5 4.4 6.2 5.9 3.9 2.2 5.2 2.4 10 1.8 4.8-0.6 5.8-1.2 8.2-4.4 1.6-2 4.2-6.4 6-9.7l3.2-6c-6.9 5.8-10.2 7.8-11.9 8.1-1.7 0.3-4.3 0.2-6-0.2-1.7-0.4-3.5-0.8-4-0.8-0.5-0.1-3.2-3.5-6-7.7-2.7-4.2-7.5-10.3-10.5-13.7-3-3.4-6.6-6.4-8-6.7-2-0.5-3.3 0.2-6 3zm-110.7 7.3c-7.5 1.6-8.5 2.1-12.7 6.5-2.5 2.6-4.6 5.5-4.6 6.5-0.1 0.9 0.8 2.8 1.8 4.2 1.1 1.4 2.9 4.3 4.1 6.5 1.2 2.2 2.3 5.8 2.5 8 0.3 2.2 1.1 5.9 1.8 8.1 0.7 2.3 1 4 0.6 3.8-0.5-0.2-0.8 0.1-0.8 0.6 0 0.5 0.5 1.2 1 1.5 0.5 0.3 0.8 0.8 0.6 1.3-0.3 0.4 3.2 1.7 7.7 2.9 4.5 1.3 9.9 2.5 12 2.8 2.8 0.4 3.7 0.2 3.7-1 0-0.8-0.9-2.4-2-3.5-1.1-1.1-2.8-4.4-3.9-7.2-1-2.9-3.6-8.7-5.8-12.8-2.1-4.1-4.8-8.7-5.9-10.3-1.9-2.7-1.9-2.8 0.1-4.8 1.1-1.1 2.8-2.2 3.8-2.4 1.2-0.4 1.5-1.1 1.1-2.7-0.3-1.3-0.6-3-0.7-3.8-0.2-1.1 1.2-1.7 5.3-2.2 3-0.3 13.6-0.7 23.5-0.9 16.7-0.2 17.3-0.3 8.5-0.9-5.2-0.4-14.9-1-21.5-1.4-9.3-0.4-13.8-0.2-20.2 1.2z"/><path class="m" d="m974.1 910.7c-1.5 0.3-7 5.2-13.7 12.1-6.3 6.4-11.6 12.6-11.9 13.7-0.5 1.9-0.4 1.9 1.7 0.4 1.3-0.9 2.9-1.4 3.5-1.2 0.7 0.1 1 0.8 0.5 1.5q-0.7 1.2 0.8 0.7c0.8-0.3 2-1.4 2.5-2.5 0.5-1.1 2.6-4.4 4.5-7.3 2.2-3.3 6-7.1 10-10 3.6-2.5 8.7-5.3 11.5-6.3l5-1.7c-9.3 0.1-13.1 0.4-14.4 0.6zm18.9 0.3q-1.5 1-0.3 1c0.7 0 1.1 0.7 0.8 1.5-0.3 0.8 0 1.5 0.6 1.5 0.7 0-0.8 2.1-3.2 4.6-3.8 4-4.1 4.5-1.9 3.9 1.4-0.4 3.6-1.4 5-2.2l2.5-1.4c-4.5 1.1-3.7 0 1-4.4l6-5.5c-7 0-9.7 0.5-10.5 1zm-88.3 56.6c-1.5 0.8-3.2 2.1-3.7 2.9-0.6 0.8-0.7 1.7-0.3 1.9 0.5 0.2 2.7-1.2 5-3 2.4-1.9 3.7-3.4 3-3.3-0.6 0.1-2.5 0.7-4 1.5zm211.3 21.6c5.4 10.6 10.9 22.7 12.3 26.8 1.5 4.1 2.9 8.8 3.2 10.5 0.4 1.7 1 6.4 1.4 10.5 0.6 5.3 0.9 6.3 1 3.5 0.1-2.2 0.2-7.4 0.1-11.5 0-4.1-1-10.9-2.1-15-1.1-4.1-3.8-10.8-6-14.8-2.1-3.9-3.7-7.2-3.4-7.2 0.3 0-1-3-2.9-6.8-1.9-3.7-3.7-7.7-4-9-0.3-1.2-1.6-2.8-2.9-3.6-1.2-0.8-3.1-1.7-4.3-2.1-1.7-0.5-0.2 3 7.6 18.7zm-260.3-5c0.3 1.8 1.2 5.1 1.9 7.3q1.4 4 0.8 1c-0.3-1.7-0.7-4.9-1-7.3-0.2-2.3-0.8-4.2-1.4-4.2-0.5 0-0.7 1.4-0.3 3.2zm23.8 15.8c-1.1 0.5-3.7 0.9-5.8 0.9l-3.7 0.1c0.4 13.7 0.4 13.9 0.7 9 0.3-5.3 0.5-5.5 3.6-6.1 1.7-0.4 4.8-1.6 6.7-2.8 1.9-1.1 2.8-2.1 2-2-0.8 0-2.4 0.4-3.5 0.9zm-5.7 73.7c-0.4 1-2.4 3-4.5 4.4-2.1 1.4-7.3 6-11.6 10.2-5.4 5.4-8.6 9.6-10.6 13.9-1.6 3.5-3.3 7.6-3.8 9.2-0.4 1.6-1.1 3-1.6 3.2-0.4 0.2-0.7 1.1-0.7 1.9 0 0.8 0.5 1.3 1 1 0.5-0.3 1.2 0.3 1.4 1.2 0.3 1 2.5 4.4 5 7.5 3.9 4.9 5.4 6 9.8 7.3 2.9 0.8 7.3 1.5 9.8 1.5 2.5 0 7.2-0.7 10.5-1.5 3.3-0.9 7.7-2.7 9.7-4 2.1-1.4 5.1-3.8 6.8-5.5 1.6-1.7 3-3.6 3-4.3 0-0.6-0.6-0.3-1.3 0.8-0.8 1.1-3.6 3.3-6.3 4.9-2.7 1.6-6.9 3.5-9.4 4.2-2.5 0.8-7.4 1.4-11 1.4-4.4 0-8-0.7-11-2.1-2.5-1.1-5.5-3-6.8-4.2-1.2-1.2-2.9-4.6-3.7-7.5-0.9-3.2-1.3-6.8-0.9-9.5 0.4-2.3 1.4-5.5 2.2-7.2 0.8-1.7 5.1-6.8 9.5-11.5 4.4-4.7 9.4-9 11.1-9.6 2.2-0.8 3.3-1.9 3.7-4 0.3-1.5 0.5-3 0.5-3.2-0.1-0.2-0.5 0.5-0.8 1.5zm246.5 74.2c-4.4 0.9-8.7 2.3-9.7 3.1-1 0.8-3.7 4.4-6.1 8-2.3 3.6-6.4 11-9.1 16.5-2.8 5.5-6.8 12.7-9.1 16-2.2 3.3-5.5 7.3-7.3 9-2.3 2.1-3 2.4-2.2 1 0.5-1.1 2.7-4.5 4.7-7.5 2-3 5-8.1 6.6-11.3 1.6-3.1 2.8-5.9 2.6-6.1-0.1-0.3-1.7 2.3-3.4 5.7-1.8 3.4-4.6 7.9-6.2 9.9-2.5 3.1-3.7 3.8-8.2 4.4-4.7 0.6-6 0.4-9.9-1.8-2.6-1.5-5.2-4-6.2-5.9-1-1.9-2.7-5.7-3.8-8.4-1.2-2.8-3.6-7-5.4-9.5-1.9-2.5-5-5.7-7-7.3l-3.6-2.7c-10.9 5.7-11.2 6-8.5 5.9 2.3 0 3.8 1 6.6 4.3 1.9 2.4 4.5 5.9 5.6 7.8 1.3 2.1 2.6 6.9 3.3 12 0.9 6.2 2.2 10.4 4.9 15.5 3.4 6.6 3.8 7 7.1 7.1 1.9 0.1 5.6-0.5 8.2-1.2 2.7-0.8 4.8-1.2 4.8-0.9 0 0.3 1 0 2.2-0.6 1.7-0.8 1.5-0.4-0.7 1.5-1.7 1.4-3.3 2.5-3.8 2.6-0.4 0-0.7 0.4-0.7 1 0 0.5 0.5 0.8 1 0.5 0.5-0.3 1-0.1 1 0.5 0 0.6 1.6 0.5 4.2-0.3 2.4-0.7 6.6-2.9 9.5-4.8 2.8-1.9 5-3.7 4.7-4.2-0.2-0.4 0.5-1.7 1.5-3 1.1-1.2 2-2.5 2-3 0.1-0.4 0.1-0.8 0.2-1 0-0.1 0.2-1.3 0.5-2.7 0.2-1.4-0.1-2.7-0.6-3-0.7-0.3-0.3-2.2 1-5 1.1-2.5 4.4-9 7.4-14.5 4-7.5 5.8-10 7.2-9.8 1.1 0.1 2.1-0.2 2.4-0.6 0.3-0.3 3.7-2.5 7.5-4.7 3.8-2.2 10-5.4 13.8-7 5.5-2.3 6.5-3.1 5.5-4.2-0.7-0.7-2-1.4-2.8-1.5-0.8-0.1-2-0.5-2.6-0.8-0.6-0.4-4.7 0.1-9.1 1zm-183.8 20c-3.6 0.4-5 1-4.8 2.1 0.1 0.8 0.4 2.5 0.7 3.7 0.4 1.7 0.1 2.4-1.2 2.8-0.9 0.2-2.6 1.3-3.7 2.4-2 2-2 2.1-0.1 4.8 1.1 1.6 3.8 6.2 5.9 10.3 2.2 4.1 4.8 9.9 5.8 12.7 1.1 2.9 2.8 6.2 3.9 7.3 1.1 1.1 1.9 2.8 1.7 3.7-0.2 1.4 0.2 1.7 1.7 1.3 1.2-0.2 1.8 0 1.5 0.5-0.4 0.6 1.2 1.1 4 1.2 2.5 0.1 5 0.8 5.4 1.5 0.7 1 0.8 0.9 0.4-0.2-0.2-0.8 0.3-2.2 1.2-3 0.8-0.8 1.8-1.4 2.1-1.3 0.3 0.2 1 0.1 1.5-0.2 0.6-0.3 0.5-0.7-0.3-1-0.6-0.3-1.2-2-1.2-3.8 0.1-2-1.1-5-3.3-8.2-1.9-2.8-5.5-8.7-8-13.3-2.6-4.5-4.5-8.7-4.2-9.2 0.3-0.6 1.5-1.4 2.7-1.9 2-0.7 2.3-1.5 2-5.5-0.1-2.9 0.3-4.9 1-5.3 0.7-0.4 8.5-1 17.3-1.4l16-0.6c-33.3 0-45.3 0.3-48 0.6z"/><path class="n" d="m546 756.5c3.6 3.6 6.7 6.5 7 6.5 0.3 0-2.3-2.9-5.7-6.5-3.4-3.6-6.5-6.5-7-6.5-0.4 0 2.1 2.9 5.7 6.5zm503.5 95.1c-1.2 0.9-1.9 2.6-1.9 4.2 0.1 1.5 0.5 4.7 0.9 7.2 0.4 2.5 2.1 8 3.9 12.3l3.1 7.8c-5.8 5.3-7.5 7.2-7.5 7.7 0 0.4 0.5 1.4 1.2 2.3 0.7 0.9 3.8 3.3 6.8 5.3l5.5 3.6c-6-0.4-7.9 0-8.2 0.5-0.2 0.5 2.9 2.6 6.9 4.6 4 2 10.3 5.9 13.9 8.5 3.7 2.7 10.9 8.8 16 13.5 5.2 4.7 11.2 11.1 13.4 14.3 2.2 3.1 5 7.6 6.3 9.9 1.3 2.3 2.6 4.7 3.1 5.2 0.4 0.5 1.7 4.1 2.9 8 2 6.3 2.6 7.3 6.7 9.8 2.5 1.5 4.7 2.7 5 2.7 0.3 0 0.5-0.8 0.5-1.7 0-1 0.7-2.8 1.5-4 0.8-1.3 1.6-4.1 1.7-6.4 0.2-2.2 0.1-4.2-0.2-4.4-0.3-0.1-0.8-1.2-1.3-2.4l-0.7-2.1c5 3.4 11 7.8 16.5 11.9 5.5 4.1 12.9 10.2 16.4 13.6 3.6 3.3 5.8 5.1 5 3.9-0.8-1.1-5.7-5.8-10.9-10.4-5.2-4.6-15.9-14.7-23.8-22.5-7.8-7.7-14.5-15-14.7-16.2-0.3-1.3-1-2.3-1.5-2.3-0.6 0-0.8-2.2-0.4-5.7 0.4-3.2 1.2-6.9 1.9-8.3 0.7-1.5 2.9-3.1 5.3-4l4.1-1.5c-3.3-5.4-7-11.1-10.3-16.1-3.4-5.1-8.8-12.5-12.1-16.5-3.4-4.1-9.9-10.4-14.5-14.2-4.7-3.7-12.1-8.6-16.5-10.9-4.4-2.3-10.9-5.2-14.5-6.5-3.6-1.2-6.8-2.3-7-2.3-0.3 0-1.4 0.7-2.5 1.6zm-98.8 25.2c-7.3 3.7-16.3 8.8-20.2 11.3-3.9 2.5-12.6 7.8-19.5 11.9-6.9 4-15.9 9.6-20 12.3-4.1 2.8-11.2 8.8-15.8 13.3-6.4 6.6-9.1 10.2-12.2 16.7-2.2 4.5-4.2 9.6-4.5 11.2-0.3 1.7 0.3 0.8 1.3-2 1.1-2.7 2.8-6.8 3.9-9 1.1-2.2 4.2-6.7 6.9-10.1 2.7-3.4 7.4-8.2 10.4-10.8 3-2.6 9.3-7.3 14-10.4 4.7-3.1 13.2-8.1 19-11 9.4-4.9 11-5.4 15.5-5 3.9 0.3 5.8 1.2 8.5 3.6 1.9 1.8 4 3.2 4.5 3.2 0.5 0 2.6 1.4 4.5 3.1 1.9 1.7 4.9 4.3 6.5 5.8 1.6 1.5 3.6 3 4.2 3.4 0.7 0.4 3.4 0 6-0.9 2.7-0.8 5.6-2.3 6.6-3.2 1-0.9 3.4-3.9 5.2-6.7 1.8-2.7 3.6-6.5 3.9-8.2 0.3-1.8 1.2-4.5 2-6 1.2-2.4 1.2-3.4 0-6.8-0.8-2.2-2.4-5.6-3.7-7.5-1.6-2.4-3.4-3.7-5.8-4.3-1.9-0.4-4.4-0.7-5.7-0.7-1.3 0-8.2 3.1-15.5 6.8zm69.3 27.1c-1.9 0.4-4.9 1.5-6.5 2.4l-3 1.6c6.2-1.3 6.5-1.2 6.5 0.9 0 1.6 0.5 2.1 1.8 1.9 0.9-0.2 1.6-0.9 1.4-1.5-0.1-0.7 0.9-1.8 2.3-2.4 1.4-0.7 2.5-1.9 2.5-2.5 0-0.7-0.3-1.2-0.7-1.2-0.5 0.1-2.4 0.4-4.3 0.8zm-209.7 84.1c0 4.1 0.2 5.9 0.4 4 0.2-1.9 0.2-5.3 0-7.5-0.2-2.2-0.4-0.6-0.4 3.5z"/><path class="o" d="m1006.3 909.3c-1.7 0.7-5.7 3.3-8.7 6-3.1 2.6-5.5 4.9-5.3 5.2 0.1 0.3 4-1 8.7-2.8 4.7-1.9 11-4 14-4.7 3-0.7 4.8-1.5 4-1.8-0.8-0.3-1.8-0.9-2.2-1.5-0.4-0.6-2.2-0.4-5 0.7l-4.3 1.8c2.9-3.3 3.3-4.2 2.9-4.1-0.5 0-2.3 0.6-4.1 1.2zm-41.8 3.8c-2.7 1.1-7.4 3.6-10.3 5.7-3 2-5.8 4.2-6.2 4.7-0.5 0.5-1.1 2.5-1.4 4.3-0.4 2.3-0.1 3.7 1.2 4.8 1.6 1.5 2.1 1.2 7.7-4.7 3.3-3.5 8.4-8.8 11.4-11.6 3.1-2.9 4.9-5.3 4.1-5.2-0.8 0-3.7 1-6.5 2zm149.9 61.7c0.8 1.5 3.1 6 5 10 2 3.9 3.4 7.2 3.1 7.2-0.3 0 1.3 3.3 3.4 7.3 2.2 3.9 4.9 10.6 6.1 14.7 1.6 5.9 2 10.4 2 21 0 7.4 0.2 13.3 0.4 13 0.2-0.3 1.2-5.7 2.1-12 1-6.3 1.9-17.8 2.1-25.5l0.3-14c-9.5-14.8-12.1-17.7-15.7-19.9-2.6-1.6-6-3.2-7.5-3.6-2.7-0.8-2.8-0.8-1.3 1.8zm-15.3 181.8c-3 7.7-7.1 17.7-9.3 22.4-2.2 4.7-5.9 11.4-8.2 15-2.4 3.6-4.7 7.2-5.1 8-0.4 0.8 0.7 0.2 2.4-1.5 1.8-1.7 4.3-4.3 5.4-6 1.2-1.6 1.5-2.5 0.7-2-1 0.8-1.3 0.6-0.9-0.5 0.3-0.8 1.1-1.5 1.6-1.5 0.6 0 1.5-0.4 2-0.9 0.4-0.5 0.3-0.6-0.4-0.3-0.7 0.4-1.3 0.5-1.3 0.2 0-0.3 1.7-4 3.9-8.2 2.1-4.3 6.4-14.2 9.5-22 3.1-7.9 5.5-14.8 5.4-15.4-0.2-0.6-2.7 5.1-5.7 12.7zm10.9-7.6c0 0.6-0.7 0.8-1.5 0.5-1.1-0.4-2.7 2.1-6 9-2.5 5.2-4.5 9.8-4.5 10.3 0 0.4 2.2-2.9 5-7.3 2.7-4.4 6.1-9 7.5-10.2 2-1.9 2.2-2.4 1-2.8-0.9-0.2-1.6 0-1.5 0.5zm-90 19.1c-1.9 0.5-16.7 0.7-33 0.4-16.2-0.3-31.1-0.2-33 0.3-3.4 0.8-3.5 0.9-3.5 5.6 0 4.1-0.3 5-2.2 5.7-1.3 0.5-2.5 1.4-2.8 1.9-0.3 0.5 1.6 4.7 4.2 9.3 2.5 4.5 6.1 10.5 8 13.2 1.9 2.8 3.4 6 3.3 7.3 0 1.2 0.3 2.4 0.8 2.6 0.4 0.2 3.6 0.7 7.2 1.1 3.6 0.3 6.7 0.8 7 1 0.3 0.2 7.5 1.1 16 2 10.7 1.2 18.9 1.5 26.5 1.1 6-0.3 12.8-0.8 15-1.1 2.2-0.3 5.6-0.8 7.5-1.1 1.9-0.4 4.4-0.8 5.5-0.9 1.1-0.1 3.6-0.6 5.5-1 2.9-0.6 3.2-0.9 1.8-1.6-1-0.5-3.4-4.2-5.3-8.1-2.5-5.1-3.9-9.8-4.6-15.3-0.6-4.7-1.9-9.4-3.2-11.5-1.1-1.9-3.7-5.4-5.6-7.8-3.2-3.8-4-4.3-7.6-4.1-2.2 0-5.6 0.5-7.5 1z"/><path class="p" d="m937 931.5c-4.7 3.5-11.5 8.5-15.3 11.2-3.7 2.6-8.2 5.8-10 7.1-1.7 1.3-5.4 4.2-8.2 6.5-2.8 2.4-6 6.3-7.2 8.7-1.3 2.5-2.3 6.4-2.3 8.8 0 3.4-0.5 4.6-3 6.7-1.6 1.4-3.6 2.5-4.3 2.5-0.6 0-3.5 1.1-6.2 2.5-2.8 1.3-6.9 2.9-9.3 3.5-4.2 1-4.2 1-4.8 6.3-0.4 3.8 0.1 8 1.9 15.2l2.4 10-1-19c7.6-1.1 12.9-2.1 16.8-3 3.9-0.9 7.3-2.2 7.8-3 0.4-0.8 1.2-1.3 1.7-1 0.5 0.3 1.1 2 1.1 3.8 0.1 1.7 0.5-1.3 0.9-6.8 0.4-5.5 1.2-11.7 1.8-13.7 0.8-2.6 2.6-4.8 5.7-7 2.5-1.8 4.3-3.5 4-3.8-0.3-0.3-2.3 1-4.5 2.8-2.2 1.7-4.2 2.9-4.5 2.5-0.2-0.5 0.3-1.5 1.3-2.3 0.9-0.9 2.8-2.2 4.2-2.9 1.4-0.7 3.1-1.1 3.7-0.7 0.7 0.3 5.8-1.5 11.3-4.1 5.4-2.7 9.7-5 9.5-5.3-0.2-0.3 1.5-1.5 3.8-2.7 2.3-1.1 5-2.4 5.9-2.7 1.1-0.3 1.6-0.2 1.3 0.4-0.3 0.5 0.6 0.4 2-0.2 1.4-0.7 2.3-1.5 2-1.8-0.3-0.3 0.3-1 1.3-1.7 0.9-0.7 2.2-1.3 2.7-1.3 0.5 0 0.1 0.7-1 1.5-1.9 1.4-1.8 1.4 0.7 0.3 1.5-0.7 2.6-1.7 2.5-2.2-0.1-0.4 1.4-1.7 3.3-2.8 1.9-1.1 4.2-2.6 5-3.4 0.8-0.7 1.3-1.6 1-1.9-0.3-0.3-1.9-0.6-3.7-0.8-1.7-0.1-2.9-0.5-2.7-0.9 0.2-0.5-0.2-1-0.9-1.1-0.6-0.2-2.2 0.3-3.5 1.2-2.2 1.5-2.2 1.5-1.7-0.6 0.3-1.4-0.1-2.9-1-3.8-0.9-0.9-1.3-2.7-1.1-4.5 0.2-1.6 0.1-3-0.3-2.9-0.3 0-4.4 2.9-9.1 6.4zm202 66c-0.1 0.5-0.3 7.1-0.5 14.5-0.1 7.4-1 18-1.9 23.5-0.9 5.5-1.5 13.4-1.5 17.5 0.1 5.8 0.3 6.7 0.9 4 0.4-1.9 1.5-5.3 2.4-7.5 1-2.2 3.2-5.6 5-7.5 1.7-1.9 4.2-5.8 5.5-8.5 2.2-4.4 2.4-5.9 1.8-13-0.3-4.4-1-8.2-1.5-8.5-0.4-0.3-1.7-2.3-2.7-4.5-1-2.2-2.5-4.7-3.2-5.5-0.7-0.8-1.9-2.4-2.7-3.5-0.9-1.1-1.6-1.5-1.6-1zm-276.9 5c0 0.5 0.8 4.1 1.9 8 1.5 5.4 1.8 5.9 1.3 2.5-0.3-2.5-1.2-6.1-1.9-8-0.7-1.9-1.3-3-1.3-2.5zm4 16.3c-0.1 0.6 1.3 6.9 2.9 13.9 1.7 7.1 3.8 16.2 4.6 20.3q1.5 7.5 1 16c-0.3 4.7-0.8 8.7-1.2 9-0.3 0.3-1.8 1-3.3 1.5-1.6 0.5-6.4 4.8-10.8 9.5-4.4 4.7-8.7 9.8-9.5 11.5-0.8 1.7-1.8 4.9-2.2 7.2-0.4 2.7 0 6.3 0.9 9.5 0.8 2.9 2.5 6.3 3.7 7.5 1.3 1.2 4.3 3.1 6.8 4.2q4.5 2.1 11 2.1c3.7 0 8.9-0.8 12-1.8 3-1 7.4-3 9.7-4.5 2.4-1.5 5-4 5.8-5.7 0.9-1.9 1.1-3.2 0.5-3.5-0.5-0.3-1.7-2-2.6-3.8l-1.7-3.2c3.8 3.1 3.5 2.7 1.8 1-1.6-1.6-3.1-3.6-3.2-4.5-0.1-0.8-0.7-1.6-1.3-1.8-0.5-0.1-0.8-0.7-0.5-1.2 0.3-0.5 0.2-1-0.3-1-0.4 0-0.8-0.9-1-2-0.1-1.1-0.3-3-0.4-4.3-0.1-1.2-0.5-2.4-0.9-2.7-0.3-0.3-2.1-6.8-3.8-14.5-1.8-7.7-5.3-23.5-7.9-35.2-2.6-11.7-4.8-21.1-5-21-0.1 0.1 0.7 5.2 1.8 11.2 1.2 6 2.3 12 2.6 13.3 0.2 1.2 0.1 2-0.4 1.8-0.4-0.2-1.7-3.9-3-8.2-1.2-4.4-3.1-11.1-4.1-14.9-1.1-3.9-2-6.4-2-5.8zm310.8 78c-2.7 4.7-5.6 8.4-7.4 9.5-1.7 1-5.9 2-9.5 2.4-3.6 0.3-9.9 1.5-14 2.6-4.1 1.1-9.8 2.4-12.5 2.8-2.8 0.4-6.1 0.4-7.5 0-1.4-0.4-3.6-0.3-5 0.2-2.5 0.9-2.5 0.9-1.8-3.6 0.5-2.5 0.6-4.6 0.3-4.6-0.3 0-3.2 6.9-6.4 15.3-3.3 8.3-6.7 17.9-7.6 21.2-0.9 3.3-4.7 13.2-8.3 22-3.6 8.8-8.1 18.7-9.9 22-1.8 3.3-3.1 6.1-2.8 6.3 0.3 0.1 2.4-2.8 4.7-6.5 2.2-3.8 5.6-10.2 7.3-14.3 1.8-4.1 4.9-11 6.9-15.2 2.6-5.6 4-7.7 5.1-7.3 0.8 0.3 1.5 0.2 1.5-0.2 0-0.5 1.3-0.7 2.8-0.5 1.5 0.1 5.6-0.4 9.2-1.1 3.6-0.8 7-1.2 7.5-0.8 0.5 0.3 1.7 0.6 2.5 0.8 0.8 0.1 2.3 1.1 3.2 2.2 1 1.2 2.5 1.9 3.3 1.6 0.8-0.3 1.5-1 1.5-1.5 0-0.5 0.6-1 1.2-1 0.9-0.1 0.8 0.5-0.3 1.7-0.9 1-1.9 2.7-2.3 3.8-0.5 1.3-0.4 1.6 0.2 1 0.5-0.5 4.3-5.3 8.3-10.5 4.1-5.2 11-14.9 15.5-21.5 4.5-6.6 10-15.4 12.2-19.5 2.3-4.1 4.8-9.2 5.6-11.3 0.8-2 1.3-3.7 1.1-3.7-0.2 0-2.3 3.5-4.6 7.7zm-351.6 15.8c0.3 2.2-0.2 3.9-2.2 6.4-2.1 2.8-2.6 4.3-2.4 8.5 0.2 2.8 1.5 8.7 3 13.1 2.1 5.8 2.9 7.3 3.1 5.5 0.2-1.4 1.2-5.9 2.2-10l1.8-7.5c-3.8-14-5.2-18.2-5.5-18.5-0.3-0.3-0.3 0.8 0 2.5zm281.2 79.3c-2.2 2-6.6 6-9.6 8.7-3.1 2.8-8.9 7.2-13 9.9-4.1 2.8-9.3 5.6-11.6 6.3-2.7 0.8-4.3 0.9-4.3 0.3 0-0.5-0.5-0.8-1-0.5-0.5 0.3-1 0-1-0.5 0-0.5 0.3-1 0.8-1 0.4-0.1 2-1.2 3.7-2.6 2.2-1.9 2.4-2.3 0.8-1.5-1.3 0.6-2.3 0.9-2.3 0.6 0-0.3-2.1 0.1-4.7 0.9-2.7 0.7-7 1.8-9.8 2.5-2.7 0.7-6.1 1.3-7.5 1.5-1.4 0.2-4.1 0.6-6 1-1.9 0.3-5.3 0.8-7.5 1.1-2.2 0.3-9 0.8-15 1.1-7.6 0.4-15.8 0.1-26.5-1.1-8.5-0.9-15.7-1.8-16-2-0.3-0.2-3.4-0.7-7-1-3.6-0.4-6.8-0.9-7.2-1.1-0.5-0.2-0.8 0.1-0.8 0.6 0 0.5 0.6 1.2 1.3 1.5 0.9 0.4 0.8 0.7-0.3 1.2-0.8 0.3-1.5 0.4-1.6 0.2 0-0.2-0.9 0.4-2 1.4-1.3 1.3-2.9 1.7-4.9 1.4-1.6-0.3-4.4-0.8-6-1.2-1.7-0.5-2.6-0.4-2.2 0.1 0.5 0.5 1.4 1 2 1.1 0.7 0.1 3 0.7 5.2 1.2 3 0.8 4.1 0.7 4.3-0.2 0.3-0.8 0.7-0.7 1.5 0.4 0.7 0.9 5.3 2.5 11.2 3.8 5.5 1.2 10.2 1.9 10.5 1.6 0.3-0.3 1.1 0.1 1.8 0.8 0.7 0.6 1.3 0.9 1.2 0.5 0-0.5 0.8-0.4 1.8 0.1 0.9 0.5 4.4 1.3 7.7 1.7 3.3 0.5 13 0.8 21.5 0.8 13.2 0 17.2-0.4 26.5-2.7 6-1.4 14.2-3.6 18-4.8 3.8-1.1 10.6-3.8 15-5.9 4.4-2.1 11.6-6.5 16-9.8 4.4-3.3 11.1-9.2 15-13.1 3.8-3.9 6.7-7.1 6.5-7.1-0.3 0-2.3 1.7-4.5 3.8z"/><path class="q" d="m913.9 900.2c-5.7 2.9-14.2 7.9-18.9 11-4.7 3.1-11 7.8-14 10.4-3 2.6-7.7 7.4-10.4 10.8-2.7 3.4-5.9 8.1-7.1 10.6-1.3 2.5-3.2 7.6-4.4 11.5-1.2 3.8-2.4 10.1-2.7 14-0.4 4.9 0 9.8 1.4 16.5 1 5.2 3 12.4 4.3 16l2.4 6.5c0.9-11.6 2-19.1 3-24 1.2-5.9 2.7-10.4 4.5-13 1.5-2.2 3.8-4.7 5.1-5.6 1.3-0.9 4.9-2.4 7.9-3.3 3-1 6.9-2.3 8.5-3.1 1.6-0.7 4.8-1.9 7-2.7 2.2-0.7 5.2-2.3 6.8-3.5 1.5-1.3 3.2-2.3 3.7-2.3 0.5 0 3.2-1.7 5.9-3.8 2.7-2 8.5-6.3 12.8-9.4 4.3-3.1 12.6-9.2 18.5-13.5l10.7-7.8c-5.7-4.9-9.2-8-11.4-9.9-2.2-2-4.5-3.6-5-3.6-0.5 0-2.6-1.4-4.5-3.2-2.7-2.5-4.6-3.3-8.6-3.6-4.5-0.4-6 0.1-15.5 5zm96.4 9.3l-2.8 2.5c7.4-2.7 9.5-3.8 9.5-4.3 0-0.4-0.9-0.7-1.9-0.7-1.1 0-3.2 1.1-4.8 2.5zm119.5 50.6c0.4 1.2 0.9 2.3 1.2 2.4 0.3 0.2 0.4 2.2 0.3 4.4-0.2 2.3-1 5.1-1.8 6.3-0.8 1.3-1.5 3.2-1.5 4.3 0 1.1 3.4 7.2 7.6 13.5 4.2 6.3 7.9 11.7 8.4 12 0.4 0.3 1.5 2.3 2.6 4.5 1 2.2 2.3 4.4 2.9 5 0.5 0.5 3.3 0.9 6 0.8 2.8-0.1 7.1-0.2 9.8-0.2 2.8-0.1 4.5-0.5 4.2-1.1-0.3-0.6 0.4-1 1.5-1 1.1 0 2-0.5 2-1 0-0.6 0.7-1 1.5-1 0.9 0 1.2-0.5 0.8-1.2-0.6-0.8-0.2-1 1.5-0.5 1.2 0.4 2.4 0.2 2.7-0.3 0.3-0.6-1.5-4.3-4-8.3-2.4-3.9-5.5-8.3-6.7-9.7-1.3-1.4-1.9-1.9-1.3-1 0.5 0.8-2-1.2-5.5-4.5-3.6-3.4-11-9.5-16.5-13.6-5.5-4.1-11.5-8.5-13.2-9.7l-3.3-2.2z"/><path class="r" d="m493 738.5c3.6 3.6 6.7 6.5 7 6.5 0.3 0-2.3-2.9-5.7-6.5-3.4-3.6-6.5-6.5-7-6.5-0.4 0 2.1 2.9 5.7 6.5zm406 217.7c-1.4 0.6-3.9 1.6-5.5 2.4-1.6 0.7-5.5 2-8.5 3-3 0.9-6.6 2.4-7.9 3.3-1.3 0.9-3.6 3.4-5.1 5.6-1.9 2.8-3.3 7.2-4.9 15-1.1 6-2.1 14.4-2.2 18.5 0 5.7 0.9 11.3 3.9 23 2.2 8.5 4.5 16.7 5.1 18.3 0.6 1.5 1.3 2.7 1.6 2.7 0.3 0 0.3-1 0-2.2-0.2-1.3-1.1-6.1-2-10.8-0.9-4.7-3-14.4-4.6-21.5-2.3-9.7-2.9-14.3-2.5-18.2 0.6-5.3 0.6-5.3 4.9-6.3 2.3-0.6 6.5-2.2 9.2-3.5 2.8-1.4 5.6-2.5 6.3-2.5 0.6 0 2.6-1.1 4.2-2.5 2.4-2 3-3.3 3-6.5 0-2.2 0.6-5.5 1.3-7.2 0.7-1.8 3-5.2 5.1-7.5 2-2.4 3.1-4.3 2.4-4.2-0.7 0-2.4 0.5-3.8 1.1zm276.3 51.9c0.4 0.5 0 0.9-0.8 0.9-0.8 0-1.5 0.5-1.5 1 0 0.5-0.9 1-2 1-1.1 0-1.8 0.5-1.5 1 0.3 0.6-1.4 1-4.3 1.1-2.6 0-7 0.1-9.7 0.2l-5 0.2c0.6 15.1 0.3 16.6-2 21-1.5 2.8-3.9 6.3-5.5 8-1.6 1.7-3.7 5-4.8 7.5-1.1 2.5-2.2 6.9-2.6 9.8l-0.6 5.2c4.3-1.4 6.7-2.1 8.2-2.4 2-0.4 3.1-1.5 3.8-3.6 0.5-1.7 1.8-3.2 2.7-3.5 1-0.3 3-0.1 4.5 0.5 2.3 0.8 3 0.7 3.8-0.7 0.5-1 0.9-1.3 0.9-0.8 0 0.5 0.6 0.4 1.3-0.2 0.7-0.7 3-1.4 5.1-1.5 2.5-0.2 3.7-0.8 3.7-1.8-0.1-1.2 0.2-1.3 1.2-0.3 0.7 0.7 1.6 1 2.1 0.5 0.4-0.4 0.7-0.1 0.7 0.6 0 0.6 0.7 1.2 1.5 1.2 1 0 1.9-1.9 2.8-5.7 1.1-4.8 1.7-5.8 3.5-6 1.2-0.2 2.2 0.2 2.2 0.7 0 0.5 1 1 2.2 1 1.3 0.1 2.8 0.8 3.5 1.8 1 1.4 1.2 0.7 1.2-4.3-0.1-3.3-0.7-8.7-1.5-12-0.8-3.3-2.6-8.9-4-12.5-1.3-3.6-2.8-7-3.2-7.5-0.4-0.6-2-1.1-3.7-1.2-1.6 0-2.6 0.3-2.2 0.8z"/><path class="s" d="m1178.7 1041.8c-0.2 0.4-0.9 3.1-1.6 6q-1.1 5.2-2.6 5.2c-0.8 0-1.5-0.6-1.5-1.2 0-0.7-0.3-1-0.7-0.6-0.5 0.5-1.4 0.2-2.1-0.5-1-1-1.3-0.9-1.2 0.3 0 1-1.2 1.6-3.7 1.8-2.1 0.1-4.4 0.8-5.1 1.5-0.7 0.6-1.3 0.7-1.2 0.2 0-0.5-1 0.3-2.2 1.9-1.7 2.1-2 3-1 3.5 0.7 0.3 1 1.4 0.7 2.4-0.3 1.1 0.2 2.1 1.5 2.7 1.1 0.5 2.5 2.3 3 4 0.5 1.7 1.8 3.2 2.7 3.4 1 0.2 2.9 0.7 4.3 1q2.5 0.6 5.2-1.4c1.6-1.1 4.1-4.8 5.7-8.2 1.6-3.5 3.4-9 4.1-12.3 0.7-3.3 2-6.6 2.9-7.3 1.4-1.1 1.3-1.2-0.7-1.2-1.2 0-2.2-0.5-2.2-1 0-0.5-0.9-1-2-1-1 0-2.1 0.3-2.3 0.8zm-170.2 190.9c1.6 0.2 4.8 0.2 7 0 2.2-0.2 0.8-0.4-3-0.4-3.9 0-5.7 0.2-4 0.4z"/><path class="t" d="m541 668.5c-4.1 4.1-7.3 7.5-7 7.5 0.3 0 3.9-3.4 8-7.5 4.1-4.1 7.2-7.5 6.9-7.5-0.2 0-3.8 3.4-7.9 7.5zm-45.5 15.8l-9 9.2c14.3-14 18.5-18.1 18.5-18.3 0-0.1-0.1-0.2-0.3-0.2-0.1 0-4.3 4.2-9.2 9.3zm15.5 37.2c6.3 6.3 11.7 11.5 12 11.5 0.3 0-4.5-5.2-10.7-11.5-6.2-6.3-11.6-11.5-12-11.5-0.4 0 4.4 5.2 10.7 11.5zm-4.5 30.5c3.9 3.9 7.2 7 7.5 7 0.3 0-2.5-3.1-6.2-7-3.7-3.8-7.1-7-7.5-7-0.4 0 2.3 3.1 6.2 7zm82.5 4.5c-4.1 4.1-7.3 7.5-7 7.5 0.3 0 3.9-3.4 8-7.5 4.1-4.1 7.2-7.5 6.9-7.5-0.2 0-3.8 3.4-7.9 7.5zm-30 0.2l-6.5 6.8c10.5-10.1 13.5-13.1 13.5-13.3 0-0.1-0.1-0.2-0.3-0.2-0.1 0-3.2 3-6.7 6.7zm744 14l-6.5 6.8c10.5-10.1 13.5-13.1 13.5-13.3 0-0.1-0.1-0.2-0.3-0.2-0.1 0-3.2 3-6.7 6.7zm-716.5 25.3c4.4 4.4 8.2 8 8.5 8 0.3 0-3-3.6-7.2-8-4.2-4.4-8.1-8-8.5-8-0.4 0 2.8 3.6 7.2 8zm79.5 23.5c-4.1 4.1-7.3 7.5-7 7.5 0.3 0 3.9-3.4 8-7.5 4.1-4.1 7.2-7.5 6.9-7.5-0.2 0-3.8 3.4-7.9 7.5zm-88 2.7c0 0.2 3.5 3.7 7.7 7.8l7.8 7.5c-11.2-12-14.6-15.5-15-15.5-0.3 0-0.5 0.1-0.5 0.2zm611.8 220.4c0.1 2.4-0.2 4.4-0.8 4.4-0.5 0-1-0.9-1-2 0-1.6-0.4-1.8-1.7-1.1-1.2 0.6-2.3 3.2-3.1 7.2-0.8 3.5-2.7 9.2-4.3 12.6-1.6 3.5-4.1 7.2-5.6 8.3q-2.8 2-5.3 1.4c-1.4-0.3-3.3-0.8-4.2-1-1-0.2-2.3-1.7-2.8-3.4-0.5-1.7-1.9-3.5-3-4q-2-1-1.5-3c0.3-1.1 0-2-0.5-2-0.5 0-0.8-0.9-0.5-2 0.4-1.5-0.1-2.1-2-2.5-1.4-0.3-3.2-0.3-4 0-0.8 0.3-1.8 1.7-2.2 3.1-0.5 1.5-1.5 3-2.3 3.4-0.8 0.4-3.1 1-5.1 1.4-2 0.4-4.1 1.2-4.7 1.9-0.5 0.6-1.3 2.8-1.7 4.7-0.4 1.9-3.8 11.5-7.6 21.2-3.8 9.8-6.9 19.1-6.9 20.8 0 2.7 0.2 2.9 2.3 2.1 1.2-0.4 3.3-0.5 4.7-0.1 1.4 0.4 4.8 0.4 7.5 0 2.8-0.4 8.4-1.7 12.5-2.8 4.1-1.1 10.4-2.3 14-2.6 3.6-0.4 7.8-1.4 9.5-2.4 1.8-1.1 4.8-4.8 7.3-9.2 2.3-4.1 4.5-7.7 4.8-8 0.3-0.3 0.3 0.4-0.1 1.5-0.6 1.8-0.5 1.8 0.4 0.2 0.6-0.9 0.9-1.9 0.6-2.2-0.3-0.3 0.1-1.1 0.8-1.8 0.7-0.6 2.3-5 3.6-9.7 1.3-4.7 2.7-11 3.2-14 0.5-3 0.9-9.6 1-14.7 0.1-5-0.3-9.4-0.7-9.6-0.5-0.3-0.8 1.5-0.6 3.9zm-371.2 55.9c0.1 14.3 0.6 27.6 1.2 29.5l1 3.5c-0.3-8.1 0.3-9.9 2.3-12.6l2.6-3.4-7.2-43z"/><path class="a" d="m990.5 937c-12.1 2.1-23.8 4.4-26 5.1-2.2 0.7-9.4 4-16 7.2-6.6 3.3-18.3 9-26 12.7-7.7 3.7-15.5 8-17.4 9.6-1.9 1.6-4 4.3-4.7 5.9-0.6 1.6-1.5 7-1.8 12-0.4 5-1.3 16.9-2.2 26.5-0.8 9.6-1.9 21.5-2.5 26.5-0.5 5-2.2 16.9-3.6 26.5-2.2 15.3-2.4 18.3-1.4 24 0.7 3.6 2.5 8.9 4.1 11.8 1.7 2.8 4.2 6.1 5.7 7.1 1.6 1 8.9 3.6 16.3 5.6 7.4 2.1 18.9 5.5 25.5 7.7 6.6 2.2 14.9 5.1 18.5 6.5 3.6 1.4 13 5.2 21 8.5 8 3.3 20.8 9 28.5 12.6 7.7 3.6 15.6 6.7 17.5 7 2.2 0.4 4.4 0 6-1 1.4-0.9 4.6-5.1 7.1-9.4 2.6-4.4 8.4-14.2 12.9-21.9 4.6-7.7 11.7-19.2 15.8-25.5 4.1-6.3 12.5-18.3 18.7-26.5 6.3-8.3 12.4-16.1 13.7-17.5 1.3-1.4 4.1-4.8 6.1-7.5 2.1-2.8 4.3-6.8 4.8-9 0.6-2.2 0.8-5.8 0.4-8-0.3-2.2-1.5-6-2.7-8.5-1.3-3-7.3-10-17.6-20.5-8.7-8.8-18.4-19.2-21.7-23-3.3-3.8-6.8-7.9-7.9-9-1-1.1-5.7-6.7-10.5-12.4-4.7-5.8-11.3-13.7-14.7-17.5-3.3-3.9-7.1-7.7-8.5-8.3-1.3-0.7-5.3-1.2-8.9-1.2-3.6 0.1-16.4 1.8-28.5 3.9z"/><path class="g" d="m891 908.5c-3.8 1.9-8.2 3.3-10.5 3.4-2.2 0-6.7 0.6-10 1.2-3.3 0.6-8.3 1.9-11 2.9-2.8 1.1-6.3 2.9-7.9 4.2l-3 2.3c2.4-4.6 2.1-4.4-1-1.5-2 1.9-3.7 4.2-3.7 5q-0.1 1.5-0.5 0.3c-0.2-0.7 0.1-2.3 0.7-3.5 1-2.2 1-2.3-0.6-0.3-0.9 1.1-2.1 3.6-2.7 5.5-1 2.9-0.8 4.2 0.8 7.9 1 2.4 3.3 5.5 4.9 6.8 2.1 1.6 2.4 2.2 1 1.7-1.6-0.5-1.7-0.4-0.5 0.5 0.8 0.6 2.3 1.1 3.3 1.1 0.9 0 1.5 0.5 1.2 1-0.3 0.5 0.4 1 1.5 1 1.2 0 2.2 0.9 2.6 2.3 0.5 1.8 1.4 0.6 4.9-6.8 3.3-7 6.1-10.9 12.2-17.5 4.4-4.7 11.6-10.9 15.9-13.9 4.3-3 8.3-5.8 8.9-6.3 0.5-0.4 0.7-0.8 0.5-0.7-0.3 0.1-3.4 1.6-7 3.4z"/><path class="h" d="m886 913.9c-3.6 2.6-9.2 7.7-12.6 11.2-3.4 3.5-7.5 8.7-9.3 11.4-1.7 2.8-3.1 5.5-3.1 6 0 0.5 1.7-1.7 3.8-5 2.2-3.3 5.7-8 7.9-10.5 2.2-2.5 7.5-7.2 11.9-10.5 4.3-3.2 8.3-6.3 8.9-6.7 0.5-0.5 0.5-0.8 0-0.8-0.6 0-3.9 2.2-7.5 4.9z"/><path class="a" d="m1186 666.2c-1.9 0.5-4.8 2.2-6.3 3.6-1.6 1.5-4.1 4.9-5.5 7.7-2.2 4.1-2.6 6.3-2.7 12.5 0 5.8 0.5 8.5 2.3 11.7 1.2 2.4 4.1 6.1 6.5 8.4 2.3 2.2 6.9 5.3 10.2 7 3.3 1.6 8.5 3.4 11.5 4 4 0.8 7.2 0.8 12 0 3.6-0.6 9.2-2.4 12.5-4 3.3-1.6 8.2-5.1 10.9-7.8 2.6-2.6 6.8-8.2 9.2-12.3 2.4-4.1 4.4-8 4.4-8.5 0-0.5-6.1-4-13.7-7.7-7.6-3.7-17.8-8.3-22.8-10.2-5-1.9-11.9-3.9-15.5-4.5-3.6-0.6-7.2-1-8-1-0.8 0-3.1 0.5-5 1.1zm271.5 197.9c-4.4 1.1-12 4.1-17 6.7-5.9 3.1-11.4 6.9-15.8 11.2-5.1 4.8-7.8 8.4-10.5 14-3.1 6.3-3.7 8.8-4.1 15.5-0.2 5.6 0.2 9.8 1.4 14 0.9 3.3 3.1 8.6 4.8 11.9 1.8 3.2 5.6 8 8.5 10.7 2.8 2.7 7.6 6 10.5 7.3 2.8 1.4 8.2 3 12 3.5 4.7 0.8 9 0.8 14.5 0 4.2-0.6 11.1-2.4 15.2-4 4.1-1.6 10.4-4.6 13.9-6.6 3.5-2.1 8.9-6.3 12-9.3 3.1-3.1 6.8-7.8 8.3-10.5 1.5-2.8 3.4-7.9 4.4-11.5 1.1-4.4 1.4-8.3 1-12-0.4-3-1.5-8.2-2.6-11.5-1.1-3.3-3.8-8.8-6-12.3-2.2-3.4-6.1-7.9-8.8-10-2.6-2.1-7.4-4.8-10.7-6.1-4.1-1.6-8.8-2.4-14.5-2.7-6.3-0.3-10.6 0.1-16.5 1.7zm-1020.5 2.7c-3 1-8.4 3.4-11.9 5.3-3.9 2.1-8.9 6.1-13 10.4-3.7 3.8-8.5 10.1-10.8 14-2.3 3.8-8.1 16.4-12.8 28-4.7 11.5-8.8 21.9-9.1 23-0.4 1.8 6.3 4.7 68.3 29.7 37.8 15.3 69.3 27.8 69.8 27.8 0.5 0 4.8-9.6 9.4-21.3 4.6-11.6 9.5-25.5 10.8-30.7 2.1-8.1 2.4-11.2 2-21-0.3-8.5-1-13.1-2.6-17.5-1.2-3.3-3.8-8.5-5.8-11.5-2-3-6.2-8-9.4-11-3.2-3-8.8-7.3-12.6-9.6-3.7-2.3-10.6-5.8-15.3-7.8-4.7-2.1-12.3-4.9-17-6.3-6.6-2-11.3-2.6-21.5-2.9-10.7-0.3-14-0.1-18.5 1.4zm1078.2 174.8c-0.1 1 1.9 21 4.3 44.4 2.4 23.4 4.6 42.6 4.7 42.8 0.2 0.1 3.5-0.4 7.3-1.3 3.8-0.8 9.7-2.8 13-4.4 3.3-1.6 8.2-4.9 10.9-7.3 3-2.7 6-6.7 8-10.8 2.8-5.9 3.1-7.3 3.1-16.5 0-5.6-0.6-12.2-1.4-15-0.8-2.8-2.5-7.1-3.8-9.8-1.2-2.6-4-6.5-6.1-8.8-2-2.2-5.7-5.4-8.2-6.9-2.5-1.6-7.2-3.9-10.5-5-3.3-1.1-9.4-2.4-13.6-2.7-7-0.5-7.6-0.4-7.7 1.3z"/></svg>